<svg id="Layer_2" data-name="Layer 2" xmlns="http://www.w3.org/2000/svg" viewBox="0 0 861 855"><defs><style>.cls-1{fill:#adadac;}.cls-2{fill:#fff;}</style></defs><title>Artboard 11</title><circle class="cls-1" cx="430.5" cy="420.5" r="401.5"/><path class="cls-2" d="M454.67,126.28c-8.51-7-19-14.55-30.58-14.12a23.06,23.06,0,0,0-13.75,5.38c-2.1,1.66-3.7,3.31-6.42,3.81s-5.48.11-8.12,0c-4.58-.17-9.41-.1-13.57,2.08-5.22,2.74-6.59,7.69-10.43,11.69-3.28,3.41-8.43,4.4-12.81,5.58-4.84,1.3-9.88,2.66-14.14,5.39-4.48,2.86-7.82,7.21-13.12,8.63-5.67,1.52-11.74.82-17.47,2.16-9.39,2.18-15.94,9.08-20.8,17-5.22,8.55-8.82,17.89-16.55,24.61-8.41,7.31-18.42,12.28-24.78,21.77a28.4,28.4,0,0,0-4.91,14.09c-.3,5.86,2.67,11.1-2.21,15.61-3.34,3.09-7.36,5.29-10.31,8.83-3.79,4.54-4.95,10-6,15.69-2.57,13.22-5,26.57-5.64,40.05a177.72,177.72,0,0,0,.45,18.32c.37,6.29.74,12.9-2.59,18.52-2.7,4.54-6.42,8.53-7.39,13.9-1,5.77,1.69,9.88,5.44,13.9,2.93,3.14,7.08,8.34,5,12.91-1,2.33-3.72,3.8-5.69,5.24a55,55,0,0,0-6.88,5.77,48.86,48.86,0,0,0-13.21,28.47c-1.34,11.75,2.65,22.27,7.73,32.65a130.23,130.23,0,0,1,12,40.41c1.8,12.85,2.36,26.46,7.37,38.59,4.29,10.38,12.25,18.81,23.83,20.09,10.14,1.12,19.6-3.57,23.35-13.24,2.79-7.21-8.81-10.33-11.57-3.19-2.53,6.53-13,5.29-17.45,1.93-7.34-5.52-9.43-16.12-10.85-24.6-1.9-11.38-2.77-22.91-5-34.24s-6.31-21.5-11.36-31.81c-4.47-9.13-7.85-18.36-5.7-28.63s8.07-17.52,16.31-23.68c8.43-6.29,11.86-15,7.49-25-1.91-4.38-4.95-7.44-7.9-11.06-3.1-3.8,2.73-8.92,4.75-12.32,5.72-9.65,4.32-20.6,3.8-31.27-.6-12.44.88-24.78,3-37,1-5.71,1.9-11.53,3.33-17.15,1.3-5.13,4.39-7.5,8.4-10.58,3.13-2.4,6.18-4.93,8.12-8.44,2.77-5,1.77-10,1.36-15.43-.83-10.77,8.76-17.68,16.58-23.28,8.11-5.82,15.06-11.83,20.21-20.49,4.09-6.86,7.11-14.9,12.83-20.63,7.25-7.27,17.71-4.48,26.76-7.12,6-1.74,9.65-5.74,14.58-9.17,4-2.75,8.68-3.74,13.26-5,4.74-1.29,9.57-2.77,13.61-5.66a24.28,24.28,0,0,0,5.88-6c1.28-1.85,2.24-4.48,4.16-5.79,3.71-2.56,10.06-.79,14.28-.91a23.42,23.42,0,0,0,14.82-5.36c4.94-3.91,8.85-4.94,14.91-2.75,5.53,2,10.52,5.65,15,9.35,5.91,4.88,14.45-3.57,8.48-8.48Z"/><path class="cls-2" d="M449.57,136.3a71.62,71.62,0,0,0,46.51,5c3.66-.86,7.47-3.12,11.1-3.61,3.47-.47,5.62,2.64,8.31,4.5,5.69,3.91,12.32,4.58,17.78,0L523.84,141l15,25.09c4.36,7.28,7.55,14,16.91,14.53s18,1.12,27.17,3c2.41.5,8.34.71,9.59,3.15,1.48,2.91.76,7.46,1.64,10.67,3.46,12.69,14.15,21.28,22.56,30.69,4.52,5.06,8.09,10.46,9.53,17.17,1.85,8.59,1.93,17.38,4.18,25.93,4.6,17.48,13.33,33.91,14.89,52.13,1.63,19.12-1.51,38.78-3.89,57.72q-1,7.56-2,15.1c-.65,4.55-2.12,8.49,1.18,12.23A34.47,34.47,0,0,1,649,426.71c2.38,15.59-1.85,31.75-4.77,47q-3.11,16.11-6.2,32.24c-1.93,10.05-3.3,20.56-7,30.16-3,7.83-8.49,15.85-16.8,18.61-6.66,2.21-15.45-.29-17.75-7.48s-13.94-4.19-11.57,3.19c4.06,12.67,17.66,19.22,30.38,16.43,14.22-3.13,23.43-16.21,27.9-29.2,5.59-16.25,7.5-34.16,10.73-51,2.93-15.23,6.71-30.62,7.52-46.16.78-14.89-2.07-30.08-12.86-41l1.54,5.84c3.66-24.6,8.1-50.15,7.56-75.09A114.88,114.88,0,0,0,651.36,296c-3.58-10.7-7.94-21.2-10.36-32.26-2.26-10.36-1.63-21.18-6.39-30.92-3.72-7.61-9.83-13.76-15.63-19.79-5.25-5.45-11.16-11.24-13.21-18.76-1.07-3.92-.64-8.11-2.1-11.94-1.84-4.84-5.79-7.44-10.64-8.77a155.18,155.18,0,0,0-18.89-3.67c-3.31-.48-6.63-.9-10-1.1-2.61-.16-5.87.51-8.37-.17-2.73-.74-3.62-3.69-5-6.07l-5.52-9.21-11-18.4c-2.12-3.54-6.47-3.68-9.42-1.21-.42.35-10.68-7.19-12.5-7.71-6.26-1.78-11.83,1.73-17.72,3.29a58.19,58.19,0,0,1-38.94-3.38c-7-3.2-13.07,7.14-6.05,10.36Z"/><path class="cls-2" d="M600,474.32q11.19-18.6,20.82-38.06c3.06-6.21,5.95-12.49,8.79-18.8.57-1.26,5.74-12.23,7.84-8,3.47,6.9,13.83.83,10.36-6.06-3.28-6.52-11.87-8.35-18.15-5.1-7,3.65-9.66,11.57-12.74,18.32a514.69,514.69,0,0,1-27.28,51.69c-4,6.64,6.39,12.68,10.36,6.06Z"/><path class="cls-2" d="M596.54,473c.05-20.68.49-41.34.89-62a57.83,57.83,0,0,0-5.37-26.65,234.27,234.27,0,0,1-10.94-27.74c-2.91-9.29-4.92-19-1.49-28.43,3.15-8.64,7.38-16.07,7.19-25.58-.34-17.38-10.61-35.5-21-49S537.4,238,521.63,236.7c-7.8-.65-16.12-.38-23.54,2.36s-12.5,7.58-17.95,13.24c-3,3.13-5.6,5-10.07,5.07s-8.75-.62-13.14-.58a92.68,92.68,0,0,0-49.19,14.86c-7.29,4.77-13.09,11.88-20.62,16.14-8.61,4.86-19.57,4-29.05,3.15a148.82,148.82,0,0,1-16.93-2.47c-4.05-.83-9.13-1.44-12.63-3.86-4.47-3.08-1-8.57.63-12.45a157.14,157.14,0,0,0,5.59-15,152.4,152.4,0,0,0,6.07-31.6c.29-3.2-3-6-6-6-15.7.22-24.92,13.85-33,25.47-9.66,13.9-19.13,28-26.84,43.08-7.4,14.47-13.27,29.86-15.58,46-1.24,8.65-.86,17.3-1.69,26-.9,9.41-5.15,18.15-8.66,26.79-7.64,18.83-13.57,38.42-10,58.87l11.57-3.19a71.24,71.24,0,0,0-29-41c-6.39-4.38-12.39,6-6.06,10.36a58.6,58.6,0,0,1,23.51,33.83c2,7.59,12.89,4.3,11.57-3.19-2.91-16.47,2.29-32.94,8.23-48.15,2.94-7.52,6.46-14.86,8.69-22.64,2.34-8.18,2.33-16.46,2.64-24.88,1.14-30.64,16.63-58.08,33.22-83,4.49-6.74,9-13.54,13.84-20,4.28-5.71,9.85-12.19,17.53-12.3l-6-6a137.13,137.13,0,0,1-10.33,41.2c-1.93,4.52-4.21,9-4.27,14.05-.23,18.39,26.24,20.1,39.21,21.61,9.15,1.06,18.47,1.63,27.58,0,8.9-1.59,15.71-6.26,22.32-12.18,13.14-11.78,29.4-19.59,47.11-21.18,8.35-.74,17.11,1.4,25.3-.32s12.54-8.45,18.4-13.76c11.71-10.61,31-6.5,44.88-3.57,4.09.87,8.34,1.81,11.9,4.1s5.94,5.74,8.17,9.2c5,7.75,9.95,15.88,13,24.59,3.23,9.13,3.6,17.85-.29,26.83-3.74,8.61-6.7,16.57-5.9,26.15.88,10.58,4.45,20.75,8.26,30.58s10.4,19.83,11.18,30.55c.84,11.42-.33,23.2-.51,34.63q-.29,17.46-.31,34.92c0,7.72,12,7.74,12,0Z"/><path class="cls-2" d="M260.21,552.88a175.21,175.21,0,0,0,14.34,50.75c7.44,16.34,17.76,30.76,29.19,44.51s22.83,27,32.22,42.19c4.06,6.58,8.35,13.33,14.3,18.38,6.36,5.39,13.93,8,22.05,9.46,34.34,6.19,73.85,7.05,106-8.42C506.78,696,522.69,668.41,537,641.6,545.2,626.12,553.65,611,564.15,597c5.34-7.15,10.8-14.3,14.91-22.25a66.85,66.85,0,0,0,4.92-12,50.37,50.37,0,0,0,1.3-6c.15-1,.29-2.08.41-3.12l.14-1.55c.63-2.79-1.14-4.26-5.34-4.43-.82,7.67,11.19,7.61,12,0,.75-7-8.28-11-13.69-7.28-3.22,2.18-4.39,5.88-4.78,9.57a54.28,54.28,0,0,1-2.3,11.76c-5.08,15-16.94,27-25.65,40-16.74,24.85-26.77,54.34-46.78,77-23.13,26.18-57.11,32.22-90.59,31.28a229.15,229.15,0,0,1-29.59-2.7c-8.26-1.31-16.38-2.9-22.55-9-5.59-5.49-9.29-12.56-13.44-19.12A217.34,217.34,0,0,0,327.61,658c-12.71-15.62-26.43-30.33-36.37-48a158,158,0,0,1-19-57.15c-1-7.56-13-7.65-12,0Z"/><path class="cls-2" d="M351.17,505.57c-6,4.69-11.42,10.7-10.47,18.87.91,7.74,7,13.69,13.87,16.67,8.06,3.49,16.91,4.3,25,7.83,7.9,3.45,15.61,6.42,24.37,5.22,7.58-1,14.41-4.62,21.11-8.13a72.81,72.81,0,0,1,21-7.43c7.09-1.37,13.69-5,15.42-12.51,1.65-7.22-1.55-15-5.11-21.13-7.94-13.68-22.78-23.67-26.61-39.58-1.8-7.5-13.38-4.32-11.57,3.19,3.59,14.95,15.2,24.86,24,36.73,2.82,3.79,10.78,14.44,7,19.41-1.68,2.23-6.56,2.33-9,2.78a50.18,50.18,0,0,0-10.33,3c-7.13,2.92-13.61,7.28-20.8,10-8.79,3.36-15.86,1.36-24.22-2.25a83.1,83.1,0,0,0-12.69-4.65c-4.31-1.1-9-1.62-13.06-3.51-2.86-1.33-6.83-4.19-6.56-7.81s4.62-6.27,7.11-8.22c6.08-4.76-2.47-13.19-8.48-8.48Z"/><path class="cls-2" d="M433.2,409.53c20.17-1.54,40.52-4,60.76-4.34,9.46-.17,18.58.94,27.42,4.43s17,8.83,24.89,14.11l-1.22-9.43c-.95,1-8.92-4.45-10.55-5.06-4.25-1.58-8.75-1.91-13.13-3s-7.15-3.87-11.13-5.83c-4.42-2.17-8.73-1.3-13.42-.93-10.3.81-20.57-1.17-30.85.33a138.91,138.91,0,0,0-15.35,3.58,80.12,80.12,0,0,1-8.26,1.85c-1.06.16-2.16.14-3.21.31a3.66,3.66,0,0,1-1.36-.1q-1.87-.66-.89,2.48c6.93-3.41.86-13.76-6-10.36-4.93,2.43-6.41,8.65-4.09,13.45,2.52,5.18,8.47,6.86,13.85,6.45,7-.52,13.64-2.74,20.38-4.43,7.57-1.9,14.84-2,22.6-1.65,3.78.18,7.57.39,11.35.2,2.81-.13,6.46-1.27,9.21-.64,2.47.57,4.5,3,6.73,4.2a32.58,32.58,0,0,0,8.85,3c3.1.64,6.3,1,9.35,1.87s5.55,2.94,8.42,4.43c5.38,2.79,11.62,2.76,16-1.7a6.08,6.08,0,0,0-1.21-9.42c-16.84-11.25-33.91-19.9-54.56-20.19-21.44-.31-43.21,2.72-64.57,4.35-7.65.58-7.72,12.58,0,12Z"/><path class="cls-2" d="M360.23,411.26q3.48-6.94-1-5.6l-2.81.34c-2.19.26-4.37.52-6.56.76-3.75.42-7.51.81-11.27,1.13-8.54.72-17.05.73-25.6,1a104.56,104.56,0,0,0-44.44,11.67l8.21,8.2c3.63-5.2,10.07-7.37,15.87-9.14q10.45-3.18,21-6A138.58,138.58,0,0,1,360.73,409c7.7.6,7.66-11.41,0-12-18.33-1.41-36.15,1.12-53.79,6-14.26,4-31.51,6.73-40.55,19.7-3.67,5.26,3.3,10.74,8.21,8.21A91.79,91.79,0,0,1,301.26,422c9.84-1.67,19.87-1,29.79-1.59s20.08-1.68,30.05-3c3.63-.48,7.36-1.4,9.2-5a8.09,8.09,0,0,0-1.59-9.69c-5.51-5.41-14,3.07-8.48,8.49Z"/><path class="cls-2" d="M363.72,409.85c7.72,0,7.73-12,0-12s-7.74,12,0,12Z"/><path class="cls-2" d="M375.24,437.9l-.2,10.38c-.05,2.61.56,6.48-.41,8.84l2.76-3.59,5.07,1.85.19-1.69c.65-1.12.47-3.43.64-4.69l1.16-8.43-10,2.64c7.47,9.55,19.95,6.83,30.15,4.89,5.67-1.09,12.72,1.13,17.72-2.3,4.14-2.84,5.92-8.79,2.85-13-3.25-4.49-11.36-3.41-11.18,3,.22,7.91-2.53,28.93,10.66,28.15a6.08,6.08,0,0,0,5.18-9,31.78,31.78,0,0,1-3.87-15.71c.05-7.72-11.95-7.73-12,0A44.53,44.53,0,0,0,419.44,461l5.18-9c4.49-.27,1.2,2.46,1.78-.07.33-1.4-.11-3.92-.14-5.36L426,435.8l-11.18,3q1.8-3.42-.64-3.15c-.85-.05-1.71-.12-2.56-.2a34.51,34.51,0,0,0-5.18.25c-3.14.36-6.21,1.08-9.3,1.71-5,1-10.69,1.78-14.19-2.7-2.62-3.35-9.44-1.62-10,2.65-1.06,7.69-7.21,26.93,5.74,27.87,4.81.35,7.87-3.55,8.21-8,.51-6.4.29-13,.41-19.38.16-7.73-11.84-7.73-12,0Z"/><path class="cls-2" d="M551.13,442.17q18.48-6.06,36.49-13.42c7-2.89,4-14.5-3.19-11.57q-18,7.36-36.49,13.42c-7.31,2.39-4.18,14,3.19,11.57Z"/><path class="cls-2" d="M543,432.48c-4.71,2.66-6.14,7.19-6.63,12.3-.18,1.87.24,5.05-.9,6.67-1.3,1.87-5.2,1.93-7.16,2.19a329.8,329.8,0,0,1-45.3,2.62,342.64,342.64,0,0,1-45.6-3.15c-.88-.1-1.75-.23-2.63-.4-1.16-.33-1,0,.43.9.73-.76,1-3.35,1.22-4.31a14.05,14.05,0,0,0-1-8.6,14.89,14.89,0,0,0-13.6-8.62l5.78,7.6,3.47-8.93c.19-.49.95-3.42,1.39-3.57-1.28.44,1.58,1.27,1.81,1.36a28.62,28.62,0,0,0,14.73,1.83c5.3-.71,10.31-2.47,15.49-3.75,5.51-1.36,11-1.32,16.62-1.17q18.31.49,36.62,1l9.9.28c2.69.07,5.91-.37,8.54.26,4,1,2.11,6.15,1.3,9.19-2,7.46,9.56,10.65,11.57,3.19,1.44-5.38,2.45-11.67-.16-16.87-2.86-5.71-8.35-7.29-14.33-7.58-16.47-.79-33-.93-49.48-1.4-7.15-.2-14.26-.49-21.32.92-6.76,1.35-14.08,5.19-21.11,4.18-6-.86-11.11-5.41-17.1-1.42-2.45,1.63-3.59,4.11-4.66,6.75-1.67,4.14-3.23,8.33-4.85,12.5-1.45,3.73,2.22,7.56,5.79,7.59,3.23,0,2.86,2.62,2.27,4.9-.82,3.16-1.6,6.16-.29,9.34,2.71,6.61,10.82,6.46,16.82,7.2a356.76,356.76,0,0,0,47.23,2.73c15-.12,30.53-.73,45.4-3.26,5.81-1,11-3.63,13.36-9.3a26,26,0,0,0,1.55-7.91c.12-1.32-.11-4.36.9-4.94,6.73-3.8.69-14.17-6-10.36Z"/><path class="cls-2" d="M253.85,452.67c2.16,1,2.11,8.52,3.3,11.48,2.24,5.54,7,8.43,12.78,9.29,15.18,2.26,31.71.95,46.94-.17a374.59,374.59,0,0,0,47.51-6.58c6-1.23,14.08-1.9,16.15-8.82.87-2.91-.06-5.82-1-8.55-.59-1.67-2.06-5.24,1.23-5.51a6.09,6.09,0,0,0,5.18-9c-2.68-5.53-5-14.37-10.76-17.5-6.34-3.47-11.1,1.72-17.06,2.88-6.73,1.32-13.94-1.46-20.6-2.36-7.16-1-14.17-.09-21.31.69-15.74,1.74-31.49,3.42-47.23,5.2-6.23.71-12.38,1.62-15.59,7.72-2.86,5.43-1.42,12.14.53,17.6,2.58,7.22,14.18,4.1,11.57-3.19-1.1-3.1-3.69-8.75.72-9.77,5.92-1.38,12.47-1.43,18.51-2.09,12.69-1.4,25.37-2.9,38.07-4.18a56.94,56.94,0,0,1,16.54.41c5.15,1,10.36,2.25,15.64,2.24,4.28,0,10.89-.91,14.25-3.92l1.3-.47c-1.32-.73-1.68-.68-1.08.17-.12.59,1.79,3.65,2,4l4.18,8.62,5.18-9c-5.61.46-10.31,3.26-12.81,8.43a13.73,13.73,0,0,0-1.21,8.25,23.31,23.31,0,0,0,1.22,4,19.55,19.55,0,0,1,1,2.78l-.17-1.81c-7.62,1.14-15.14,3.19-22.76,4.42q-12.09,1.94-24.29,3a351.33,351.33,0,0,1-46.34,1c-2.1-.1-5.42.13-6.88-1.7-1.13-1.41-1.11-4.69-1.4-6.38-.8-4.75-2.46-9.39-7.16-11.53-7-3.17-13.09,7.17-6.06,10.37Z"/><path class="cls-2" d="M244.21,423c.95,6.46,5.67,11.14,11.54,13.45s9.71-6,5.84-10l-14.85-15.3c-5.39-5.56-13.87,2.93-8.49,8.48L253.1,434.9l5.84-10c-2.11-.83-2.86-3.05-3.16-5.07-.46-3.21-4.53-5-7.38-4.19-3.44.95-4.66,4.16-4.19,7.38Z"/><path class="cls-2" d="M226,405.29l10.14,12.84c3.34,4.22,10.29.57,10.25-4.24a52.25,52.25,0,0,0-3.41-18.43l-7.38,7.38A10.36,10.36,0,0,1,240,405l2.65-10a9.73,9.73,0,0,1-7.25.21l2.65,10q5-4.65,10.12-9.13c4.33-3.79-.26-12.29-5.84-10-7.53,3.06-9.08,8.79-11.42,15.9-.27.81-2,3.19-2,3.79q4.26,3.54-2,4.93a15.52,15.52,0,0,1,2.12,1.25,10.67,10.67,0,0,1,4.12,7.24c.61,6.1,10.76,8.84,11.79,1.59A59.88,59.88,0,0,0,239,384.27l-10.36,6.06c2.3,4.19,5.64,8,10.58,8.8a10.8,10.8,0,0,0,11.12-5.64c5.15-10.43-9.18-15.66-16.71-17.41l-1.59,11.79,19,.73c5.43.21,7.61-6.59,4.24-10.24a39.65,39.65,0,0,0-13.24-9.55,36.24,36.24,0,0,0-7.44-2.45,19,19,0,0,0-2.36-.37l.92.38c.67-.87-1.12.14-.73.53,1.26,1.27,3.1,1.7,4.33,3.32s2.25,3.84,3.49,5.66c2.85,4.17,6.23,7.54,11.24,8.82,2.32.59,5.72-.34,6.78-2.76,2.78-6.35,5.27-14,1.11-20.35C254.48,354,246.45,356.3,239,356a18.67,18.67,0,0,0-2-.24c-3.36.46,3.54-1.68-1.07.68-1.65.84-.16.77.66.06,3.4-2.92,0-.54.18-.49,3.12.79,5.25,3.54,7.74,5.39,5.21,3.85,12.84,6.21,18.06,1s3.37-13.51-2.05-17.7c-5.67-4.38-13.33-2.94-19.93-4.4-.38-.09-1.74-.44-1.49-.39-.47-.09,2.1,1.85-.61.82.09,0,.68-.41.85-.36.8.21,1.77-.19,2.7.11,1.53.51,2.7,1.82,3.95,2.79,5.28,4.09,14.05,5.77,18.15-1.09,4.48-7.48-5.1-13.66-11.48-14.63a18.06,18.06,0,0,0-18.25,8c-3.3,5.05,3.21,11.31,8.21,8.21a87.43,87.43,0,0,1,19.9-9.19c2.41-.77,4.55-3.11,4.4-5.79l-.7-12.89c-.13-2.35-1.76-5.43-4.41-5.79-7.52-1-11.61,3-16.39,8.16-1.24,1.34-2.83,3.78-4.64,2.62s1.06-2,1.93-.32c2.26,4.22,10.2,3.77,11-1.43,1-6.53-3.3-12-10.22-12-7.07,0-10.52,6.64-12.44,12.48l11-1.43a19.9,19.9,0,0,1-1.89-11.48c.12-.76,1.73-5.37,2.46-4l10.36-6.06c-4.46-7.95-17.45-9.07-21.94-.41-4.85,9.38,6.7,20.77,15.93,15.37,4.49-2.63,6.17-8,5.35-12.9-1-6-5.49-9.59-9.24-14-1.62-1.89-3.74-4.72-3.4-7.41.23-1.76,1.17-3.29,2.74-2.18,5.15,3.65-4.46,8.19-7,8.73l7.6,5.79a37.19,37.19,0,0,1,13.49-26.54l-10-2.65c1,6.35,1.84,12.76-.92,18.79-2.21,4.81-5.25,9.5-5.27,15,0,8.12,9.36,19.89,18.11,13.44,7.18-5.29,6.52-20.63-4.54-19.78-4.53.34-7.68,4.12-8.79,8.3a17.18,17.18,0,0,0-.24,7.38c.14.84.39,1.68.48,2.53l.07,1.22c-.32,1.63.06,1.63,1.11,0-5.92,1.8-5.45,9.59,0,11.58,10.66,3.88,21.07-4.29,22.28-14.87l-9,5.18a.79.79,0,0,1-.44-.79c0-.25,0-.16-.13.27l4.61.59a1.06,1.06,0,0,1,0-.68c1.5-1.09,3.09-2.67,4.71-3.83,4.07-2.91,7.37-6.56,7.91-11.75,1.17-11.25-12.94-15.66-18.85-6.26-5.67,9,4.37,18.17,13.44,15.24,5.42-1.75,7.25-6.47,8.59-11.52a27.81,27.81,0,0,1,9.42-14.5c3.17-2.67,1.69-7.41-1.22-9.42A26.84,26.84,0,0,0,268.86,262c-2.5.34-5.23,1.62-5.79,4.41a26.87,26.87,0,0,0,2.54,18.35l6.78-8.81c-8.38-3.49-17.75,1.95-20.27,10.28L259.5,282c-.84-.2,1.2-2.3,2-2.73,3-1.58,6.77-.83,9.6-2.47,5.49-3.19,4.75-12.57,2.12-17.29-6.84-12.29-26.11-8.91-28.21,5.13-.59,4,1.55,7.36,5.79,7.6,8.31.47,15.21-4.82,17.86-12.5,1.87-5.43-4.48-8.77-8.82-6.78,3.34,1.56,4.58,1.62,3.72.2l.08-1.33a13.74,13.74,0,0,0,.23-4c-.15-3.48-1.25-4.68-1.23-7.26,0-2.91-.29-6.3.71-9.09a11,11,0,0,1,1.25-2.15c.93-1.38,1.07,1.5.54-.53a6.06,6.06,0,0,0,10,2.65,15.48,15.48,0,0,0,2.21-19.74c-2.12-3.12-6.58-4.13-9.43-1.21a44.47,44.47,0,0,0-11.25,42c1.43,5.65,10.22,5.79,11.57,0a17.93,17.93,0,0,1,9.47-12.33l-8.81-3.59c2.07,5.64.45,11.66-4.85,14.85l8.82,3.59a34.93,34.93,0,0,1,.6-18.59l-5.78,4.4c10.19-1,14.35,11.31,4.95,16.09l8.82,3.58-3.84,1.09,1.54-5.83c-.65.8-1.28,1.72-2.43,1.14v10.36c.6-.33,5.27,1.84,6.39,2a12.57,12.57,0,0,0,8-1c4.17-2.2,6.25-6.25,7.92-10.46,2.08-5.25,3.27-9.67,9.42-11.09,4.52-1,9.47-1.8,12.32-5.92,6.87-10-6.52-19.26-15.54-14.12-4.78,2.73-7.33,8.18-10.17,12.66-1.83,2.88-1,.43-.57.14,2.52-1.75,5.2-1.56,8.17-1.22a5.76,5.76,0,0,0,5.18-3c3.29-7.4-1.33-15.31-9.48-16.41-4-.55-8,1-11.33,3.08-2.52,1.55-6.8,5.85-9.83,3.78l3,5.18c-.09-.77,4.81-1.35,6-1.68a14.68,14.68,0,0,0,6.89-3.93A13,13,0,0,0,295.35,212c-3.94-9.92-18.41-9.78-22.79-.28-2.23,4.83,1.42,9.91,6.77,8.82a26.59,26.59,0,0,0,13.2-6.94c3.9-3.77,5-8.06,7.4-12.71-.94,1.84-1.44-.5.44,1.36.63.62,1.49,1,1.72,2a7.4,7.4,0,0,1-1.21,3.42,1.83,1.83,0,0,1-1.69-1.46c-.7-1.61-1.07-1.62-1.12,0-.58.75-.76,2.28-1.23,3.16a13.27,13.27,0,0,1-5.25,5.28c-5.27,3.12-2.82,10.91,3,11.18l19.73.9a5.84,5.84,0,0,0,5.18-3c2.4-5.31,2.47-10.35-.38-15.53a6.09,6.09,0,0,0-8.21-2.16c-8.09,4.66-16.14,16.22-6.78,24.19,4.11,3.5,9.33,3,14.14,1.43a33.61,33.61,0,0,1,7.51-1.95,58.8,58.8,0,0,0,8.69-1c8-2,14.51-11.81,9.22-19.48a10.27,10.27,0,0,0-11.22-3.78,18.26,18.26,0,0,0-5.59,3.06c-.81.59-3.38,2.53-3.35,2.54l3.59,2.76c.82,1.33-.81,2.07.84,0,.51-.64,1-1.32,1.49-2,1.58-2.08,3.2-4.13,3.93-6.7a10.19,10.19,0,0,0-5-12c-4.24-2.14-9-.56-13.23.58a14.43,14.43,0,0,0-2.91.74c-3.22,1.84,1-1.39-.22.53.48.51.7.37.67-.41a7,7,0,0,1,.72-1.95,10.21,10.21,0,0,1,3.85-4.05c4.9-3.12,3.11-11.23-3-11.18-4.65,0-9.94-.91-13.89,1.84s-7.77,6.66-11.56,9.91l8.49,8.48c3.69-4.11,6.47-8.76,9.32-13.46,2.65-4.39,5.8-9.65,10.83-11.59,1.89-.73,8.15-1.12,8.29,2.26s-3.42,2-.32-.21l-7.28-9.43c-2.92,2.58-6.91,3.05-9.66,6.07s-4,7.15-2.54,10.94c2.9,7.55,15,9.8,22,11.4l-3.59-8.81c-2,3.1-5.32,3.54-8.53,2.31v11.57c9-3.71,19.42-8.87,22.07-19.19.65-2.52.26-4.85.37-7.38.08-1.94,0-2,1.52-3.34.65-.58,3-2.33,3.71-2.06-.77-.28-.24.15,0,.87a6.32,6.32,0,0,1,.11,2.53c-.15,1.59-3.23,9.73-4.21,9.28l-2.76-3.59c1.12,7.11-5.39,8.37-9.6,11.88A11.77,11.77,0,0,0,324,202c5.5,11.58,23.19,6.09,21.92-6.42-.37-3.69-3.55-7.06-7.6-5.79-8.24,2.6-20,14.71-10.54,22.48,3.92,3.21,8.49,2.91,13,4.59.36.13,6.57,4.28,4.14-1-.26-.56-2.15-.79-2.23-1.63-.17-1.75,7.69-5.25,9.2-6.42A15,15,0,0,0,358,196.33,16.73,16.73,0,0,0,342.64,179c-3.76-.3-7,4.09-5.79,7.59,2.13,6.2,6.46,11.72,13,13.47a15.26,15.26,0,0,0,16.94-7.34c6.58-12-10.43-24.92-19.61-14.48l10,5.84c1.25-5.06,4.78-8,9.84-8.89,6.12-1.06,5.29-10,0-11.57A46.4,46.4,0,0,1,350.61,155l1.76,4.24c-.64,4.93-1.64.69.4,1.88a9.05,9.05,0,0,0,1.93.31,41.72,41.72,0,0,0,6.84,1.22c4.6.15,8.67-1.6,11-5.66,1.25-2.19,1-5.52-.94-7.27-7.37-6.49-19.78-1.14-20,8.92-.23,10.53,11.76,15.58,20.63,12.67l-7.38-4.19a4.83,4.83,0,0,1,1.57-.83l6,6a46.48,46.48,0,0,1,6.34-21.49c.6-1,2.13-5.09,3.56-2.78s-2.74,3.91-4.18,4.25l6.77,2.76c1.06,1.53-.94,1.52,1.14.86a10.54,10.54,0,0,0,2.16-1.23,16.33,16.33,0,0,0,4.43-3.93,9.75,9.75,0,0,0,.53-11.07c-.35-.59-1.8-1.74-1.84-2.42.08,1.27.31-.12.65,0,.6.15.85,0,1.46,1,2.15,3.52-2.7,6.82-5.41,7.82l7.38,4.19c-.65-2.46,5.43-3.67,7-4.22,3.47-1.17,7-2.49,9.56-5.21,4.81-5,5.47-12.25.83-17.55l-7.27,9.42c7.52,5.19,13.73-.31,21.39-1.09,2.49-.25,7.25,2.31,4.18,5.08-2.15,1.93-3.26-.64-2-2.36l-9.42,1.22,4.07,3.83,2.64-10L391,134.29c-4.9.69-5.18,7-2.65,10a27,27,0,0,0,22.9,9.48l-5.79-7.6c-1.86,7.63-11.17,12.16-18.21,8.28l3,5.18c0,1-.49.78-1.34-.36v-6.06c-1.74,3-8.54,2-11.51,2.5-4.61.79-9.49,3.14-12.07,7.2a11.17,11.17,0,0,0,1.28,13.46c3.48,3.71,8.75,4.54,13.57,4.81l-6-6c.64,6-2.16,10.64-7.71,13l8.21,2.15c-2.69-5.24-.83-11,3.52-14.6l-10-2.64A15.16,15.16,0,0,1,361,188.82c-3.57,2.17-4.24,8.36,0,10.36a6.55,6.55,0,0,1,3.65,3.49c.81,1.88.06,3.25.31,5s-2.43.62,1.09,1.71c3.11,1,1-.65.6-2.3a12,12,0,0,1,.93-8.48l-11-1.43c1.11,3,2.64,6.52,2.17,9.79-.13.94-1.55,4.76-3.21,4-5-2.21-11.73,2.63-8.21,8.21a32.67,32.67,0,0,0,18.86,14.28,6.07,6.07,0,0,0,7.6-5.79,22.23,22.23,0,0,0-16-21.56c-2.8-.86-6.95,1-7.38,4.19-.78,5.72,1.11,12.84.64,17.5q3.27-.47-1.4,5l-1-1.32c-1.19.73-1.51,1.66-3,2.29-2.88,1.24-6.29,1.48-9.29,2.42l4.62.61a.82.82,0,0,0,.1.77c-.53.68-.35,1,.56,1.1,1,1.83,2,2.81,2.41,5.11.32,2-.13,3.86,0,5.79a2.33,2.33,0,0,1-.66,1.28q3.85,1.66-.21,4.35l-5.83-10c-6.51,5.12-11.85,14.19-5,21.57a9.43,9.43,0,0,0,8.08,3.16c2.67-.11,2.7.15,1-2.79-2.81-4.93-.43-1.83-2.63-1.37-1,.21-2,.63-3,.9A50.16,50.16,0,0,1,327,268.2l5.18,9c.9-1.64,1.91-3.83,3.57-4.87,0,0,2.87-1.53,3-.45s-2.93,2.54-3.65,2.79a7.06,7.06,0,0,1-4.65,0c-5.64-1.61-10.3,5.93-5.84,10,4.89,4.51,10.62,9,17.69,7.95a12.89,12.89,0,0,0,11.42-12.06c.56-6.67-10.64-8.28-11.79-1.6-1.89,11,9.52,22.13,20.4,16.1,9.46-5.24,8.69-19.3.08-24.77-3.42-2.18-7.66.05-8.82,3.58l-2.39,7.28c-.74,2.24.44,5.78,2.76,6.77,7.92,3.38,17.4,6.41,26.14,5.27a11.78,11.78,0,0,0,10.09-14.91A10.94,10.94,0,0,0,374.91,271c-6.79,3.2-9.77,12.11-4.59,18.09,11.3,13.07,28.58-3.23,29.56-16,.52-6.82-3.6-13.49-11-13.45-4.3,0-7.5,2.74-11.31,4.2a19.46,19.46,0,0,1-13.27,0l4.2,4.19c-.07-.18-.56-.29-.65-.09-.46,1.11.75.87-.92,1.79-3.41,1.89-5.19-3.7-5.53-5.84l-2.75,6.77a5.69,5.69,0,0,1,2.49-1.39c3.24-.43,6-2.45,6-6,0-2.93-2.79-6.41-6-6l-17,2.15,5.79,7.6c1.35-4.52,3.26-12.8,9-13.71a4.92,4.92,0,0,1,3.75,1.27c.09.08-.32.15-.58-.07,2.52,2.13.65,1.19,2.48-.17,8.45-6.32,11.16-18.56,5.24-27.35L363,235.75c2.6,1,9.24,3.48,9.4,6.95.18,3.68-5.29,2.92-4.24-.38,1.43-4.49,7.2-.94,8.56,1.37,3,5.12.42,11.13-2.36,15.71l11,1.43c-.28-2,3.4-4.81,5-3.34,1.09,1,1,4.44-.62,5l7.38,7.38a2.24,2.24,0,0,1,2.82-1c1.08.78-.19,2,0,2.71-.1-.31,1.11,1.43,1.28,1.33-.3.18.58-2.2.16-1.72,1.12-1.29,2-1.59,3.87-1.79,5.27-.56,10.47,1.2,15.78.42,4.54-.66,9-2.53,12-6.14,6-7.28,2.06-17.63-6.83-20.05a12.6,12.6,0,0,0-11.88,2.5c-1,.92-3.84,3.94-3.74,5.41.1,1.68,2-2.73,1.47-2a23.43,23.43,0,0,1,2.6-3.3,6.08,6.08,0,0,0-1.21-9.43c-6.3-4.08-15.27-2.86-19.82,3.3A14.8,14.8,0,0,0,396.2,260c2.62,2.1,5.88,2.39,8.49,0,9.49-8.68,11.95-25.28-.66-32.62-5.21-3-11.22-2.42-16.49,0-5.06,2.36-9.24,6.45-14.9,7.32l5.84,10c3.09-4,9.16-3.79,11.47.92l5.18-9a13,13,0,0,1-7.34-2.76c-6.31-4.49-12.31,5.92-6.06,10.36a24.46,24.46,0,0,0,13.4,4.4c4.85.22,7.06-5.19,5.18-9-5.43-11.07-22.65-13.24-30.32-3.35-3.76,4.86-.32,11,5.84,10,7-1.07,11.59-6.57,18.08-8.6,3.09-1,5.7.2,6.71,3.47,1.25,4.06-1.61,7.77-4.42,10.33h8.49c-3.3-2.64-1.15-6.8,2.66-4.33l-1.21-9.43c-4.38,4.38-7.89,10.61-5.87,17,1.91,6,8.86,10.14,14.94,7.87,3-1.12,4.79-3.47,6.37-6.14.41-.7,1.46-2.76,2.43-.61,1.1,2.44-11.19,2-12.4,1.91-6.18-.59-13.45-.62-18.19,4.11a15.08,15.08,0,0,0-3.61,14.7,10.52,10.52,0,0,0,13,6.88c6-1.65,9.64-7.45,9.54-13.49-.24-16-21.77-17-26.81-3.27-1.53,4.16,3.24,8.89,7.38,7.38,10.63-3.85,14-19.28,4.37-26.35-5-3.65-11.59-3.23-16.63.1-5.62,3.72-7.85,9.72-6.93,16.21.77,5.39,8.54,5.43,11,1.43,6.7-11,8.22-27.36-4.56-34.88-10.43-6.13-26.74,2-23.91,15.17,2.68,12.51,19.53,15.62,26.18,4.46,7.51-12.61-6.12-22-16.24-26-4.84-1.9-9.57,4.66-6.77,8.81,3.44,5.11.59,8.39-2.9,12.3-3.19,3.58-6,7.83-4.93,12.87,2,9.61,15.27,10.93,20.6,3.4,6.19-8.73-2.17-20.19-11.9-20.42-12.9-.3-18.81,12.13-21.94,22.64-1,3.37,1.88,8.09,5.78,7.59l17-2.15v-12a17.4,17.4,0,0,0-8.55,3A6.39,6.39,0,0,0,349.8,267c1.11,7,6.19,13.3,13.38,14.58,6.69,1.18,14.27-2.49,16.28-9.27,1.84-6.24-1.43-13.77-7.74-15.93-6.72-2.3-14,2.4-15.28,9.26-1.83,9.84,8.61,11.72,16.14,11.28a31.11,31.11,0,0,0,11.14-2.8c1.81-.83,3.54-1.78,5.35-2.58-2.08.92,0-2-1.15,1-1,2.73-1.69,5-3.95,7.14-1.36,1.3-2.27,1.25-3.75,1.85-.94-.63-1.16-.41-.68.67.66-.51.4-.75-.75-.72-4.44.22-13.24-1.58-18.78-3.94l2.76,6.78,2.39-7.28-8.81,3.59c1,.62,1.39,3,.38,3.77s-3.45-1-3.23-2.27l-11.78-1.59c-.2,2.29-8.12-3.91-8.63-4.37l-5.83,10c10.69,3.05,28.5-6.14,22.33-19.35-2.29-4.91-7.69-7.56-13-7.26-6.82.39-11.76,5.94-14.79,11.54-2,3.69.43,9.43,5.18,9,8.65-.74,21.92-2.15,24.55-12.33a8.26,8.26,0,0,0-5.44-9.93,9.11,9.11,0,0,0-4-.33c-.81.15-1.17,1.3-.94.71.77-2,3.09-3.4,4.68-4.65,4.62-3.63-.39-12.23-5.84-10-6.51,2.63-9.17,10.79-3.92,16.25,5.45,5.68,14.66,2.44,18.13-3.67,3.65-6.42,2.62-16.7-1.27-22.8-4.14-6.5-13.75-9.77-20.07-4.28-5,4.37-5,13.22.55,17.15,3.6,2.55,6.89,1.19,10.82.25s8-2,11.24-4.76c5.67-4.87,7.59-14.33.58-19-5.49-3.66-13.71-2-15.44,4.92-2.1,8.42,8.11,14.34,15.2,11,3.86-1.85,6.16-5.79,6.91-9.88,1-5.2-1.44-10.17-.75-15.26l-7.38,4.19a10,10,0,0,1,7.16,10l7.59-5.78a20,20,0,0,1-11.69-8.77l-8.21,8.21a14.41,14.41,0,0,0,18-4.83c4.95-6.7,3.32-15.26.64-22.54-1.62-4.43-8.47-6.44-11-1.43-3.24,6.5-3.95,13.74-1.11,20.54S366,223.86,372.23,218c8.71-8.27,5.36-24.16-5.21-29.14v10.36a27.57,27.57,0,0,0,12.69-29.24c-.93-4.83-6.87-5.28-10-2.65-8.59,7.16-10.39,19.4-5.39,29.14,1.61,3.13,5.37,3.36,8.21,2.15a23.23,23.23,0,0,0,13.65-23.37c-.36-3.37-2.47-5.8-6-6a16.09,16.09,0,0,1-4.46-.8c.55.19-1.72,1.4.35.41,2.73-1.29,4.89-1.38,7.87-1.66,6.19-.57,12-2.13,15.33-7.86,1-1.7,1.25-4.38,0-6.06a11.56,11.56,0,0,0-16.34-2.72,10.67,10.67,0,0,0-4.7,8.2c-.18,4.56,3.22,6.65,7.08,8,13.05,4.53,28.5-4,31.75-17.31.86-3.49-1.75-7.93-5.78-7.59a15.94,15.94,0,0,1-14.41-6l-2.65,10,35.43-4.94c4.55-.64,5.64-7.21,2.65-10l-4.07-3.84c-3-2.87-7.11-1.92-9.42,1.22-4.48,6.07-2.17,15.27,4.07,19.23,7.18,4.56,16.65.38,19.94-7,3.44-7.7-.91-16.39-8.37-19.67-3.9-1.71-8-1.56-12.05-.5-3.07.8-7.86,3.95-10.75,2-5.89-4.07-11.52,4.56-7.27,9.42-.8-.92-.37.51-1.25,1.05a19.21,19.21,0,0,1-3.84,1.66c-3.07,1.07-6.22,1.86-9,3.7-5.16,3.45-8.07,9.13-6.45,15.28.77,2.95,4.35,5.3,7.38,4.19,8.08-2.95,15.42-9.65,14.56-19-.74-8-8.12-15.46-16.56-13.21-7.88,2.1-12.32,11.46-7.79,18.47.45.62.91,1.23,1.39,1.83l.1-2s-1.74,1.15-1.86,1.23a22.14,22.14,0,0,0-5,3.8c-3.12,3.47-4.25,8.32-1.49,12.34a6.26,6.26,0,0,0,6.78,2.76c6.67-1.58,12.74-7.06,13.16-14.22a13.74,13.74,0,0,0-11.89-14.28c-8-1-12.62,6-15.8,12.31a60.66,60.66,0,0,0-6.38,24.63c-.15,3,2.88,6.27,6,6,7-.62,12.79-7.13,10-14.36-1.12-2.91-4.05-5.28-7.38-4.19-1.55.51-3.81,1-5.11-.41-.19-.21-1-.86-.31-.21l.47-.48c.56-.15.23-.3-1-.44l-.93-7.27c.41-.72.37.05-1.22-.31-.66-.14-1.31-.28-2-.44a25.13,25.13,0,0,0-6.84-1c-4.36.14-8.89,1.88-10.84,6-5.05,10.79,15,17.75,22.59,20V163.58a23.1,23.1,0,0,0-18.22,17.27c-1.36,5.5,5.9,10.54,10,5.84.19-.22.15-.66.49-.09s-.19,1.19-1.26,1.59c-3.2,1.19-5.61-2.15-6.53-4.83l-5.78,7.6c2.37.18,4,3.82,3.22,5.88-1.2,3-7.29,4.82-9.7,6.79-7.28,5.93-7,16.09.78,21.5,7,4.87,19.14,2.53,18.4-7.74-.34-4.76-4-8.68-8-10.79-3.9-2-10-1.27-12.89-4.65l1.54,5.84c.71-3.22,2.34-5.45,5.56-6.46l-7.59-5.79c.13,1.33-.4,1.11.83,1.3a19.19,19.19,0,0,0,3.54-1.78,21.26,21.26,0,0,0,7.9-8.18c2.86-5.34,4.95-16.78-3.07-18.79-7.43-1.86-13.65,6.95-10.09,13.47s12.89,6.25,17.65,1.37c9.95-10.21,3.72-34.37-13.18-26.66a22.86,22.86,0,0,0-8.13,6.07c-2.89,3.51-3.05,7.09-3,11.43.06,7.46-7.7,10.91-13.75,13.4-5.55,2.28-5.8,9.37,0,11.57,8.31,3.17,17.42-.5,22.09-7.82a6.06,6.06,0,0,0-3.59-8.82c-2.19-.5-4.37-1-6.52-1.73-1.8-.56-5.4-2.77-7.1-2.67-1.48.07.53.86,1.15.83a10.42,10.42,0,0,0,2.61-1.21,22.54,22.54,0,0,0,5.39-3.57c5.05-4.44-1.67-13.38-7.27-9.42-8.11,5.73-10.37,20.43,1,24.24,10.1,3.39,19.81-8,16.69-17.58-3.32-10.2-16-13.11-25-9.08-11.87,5.35-15.18,18.28-23.27,27.3-5.19,5.79,2.64,13.5,8.49,8.48l11.56-9.91-4.25,1.76,9.65-.08-3-11.18c-5.7,3.63-10.43,9.72-10.69,16.74-.22,6,3.8,11.14,10,11.51a21.57,21.57,0,0,0,6.43-.8c1.49-.36,4.92-.66,6.09-1.6.3,0,.6,0,.9,0a2.21,2.21,0,0,1-2-1.38c-1.25-.3,1.42-1.33-.76.25-1.46,1.06-3.21,4-4.11,5.6-2.56,4.4-2.88,11.25,2.54,13.74,4.82,2.21,11.31-.84,14.69-4.45q.66-.45,1.35-.84c-1.59-.29-2.29-1-2.08-2a16.08,16.08,0,0,1-1,1.83c-2,1.5-7.63.86-10,1.19-1.79.25-9.58,3.57-10.46,2.9,0,0,0,.39,0-.5-.09-1.62,3.78-3.42,4.86-4l-8.21-2.16a3.63,3.63,0,0,1,.38,3.43l5.18-3-19.73-.9,3,11.18a25.57,25.57,0,0,0,12-15.61c1.53-6.13.13-12.08-6.79-13.48-6.06-1.23-12.39,3-13,9.23s4.62,12,10.82,12.48c6.5.51,11.82-4.34,13.11-10.53,1.39-6.61-2.72-13-8.57-15.82-6.26-3-13-1.65-16.26,4.78-1.51,3-2,6-4.42,8.57a15.37,15.37,0,0,1-8.41,4.34l6.78,8.81c.92-2,2.09-1.12,1.27-.32-1.31,1.3-5.91,1.19-7.68,1.86-5.4,2.05-10.31,8-7.77,14,2.36,5.6,10.44,5.85,15.3,4.19a35.16,35.16,0,0,0,7.8-4.26c1.29-.84,2.63-1.49,4-2.19a1.84,1.84,0,0,1,1.12-.22c.83.74,1,.24.6-1.51l5.18-3c-11-1.24-24.93,6.7-19.32,19.51a11.24,11.24,0,0,0,14,6.08c6.23-2,8.47-7.62,11.86-12.55.5-.73,4.66-4.17,2-5.63-.65-.35-5,1.25-6,1.48a21.14,21.14,0,0,0-13.93,10,48.17,48.17,0,0,0-3,7.11c-.37,1-1.33,4.61-2.4,5.16-1.4.72-5.22-1.46-6.7-1.77A11.62,11.62,0,0,0,270.7,257c-3.79,2.08-4,8.35,0,10.36,4.36,2.18,9.23,2.47,13.55-.06,4.63-2.7,6.68-7.6,3.43-12.29-6.66-9.58-20.55-2-17.77,8.78,1,3.93,5.44,5.3,8.82,3.59,8.52-4.33,13.38-14.59,10.72-23.91s-12.28-15.49-21.73-14.54a6.25,6.25,0,0,0-5.79,4.41,47.55,47.55,0,0,0-.61,25,6.07,6.07,0,0,0,8.82,3.59c9.57-5.77,14.27-17.77,10.36-28.41-1.36-3.7-5.18-5.53-8.82-3.59a29.61,29.61,0,0,0-15,19.51h11.57A32.05,32.05,0,0,1,276.44,219L267,217.79c1.27,1.89,1.37,3.53-.34,5.19l10,2.65c-1.65-6.33-8.32-9.52-14.51-8-7.54,1.83-10.67,8.93-11.34,16a58.16,58.16,0,0,0-.26,10.8c.2,1.86,1.12,3,1.27,4.73s-.37,3.44-.2,5.18c.72,7.29,7.33,12.18,14.23,9l-8.82-6.77c-1,2.84-3.48,3.85-6.28,3.69l5.78,7.59c.95-6.34,8.66-4,6.31.76l3.58-2.76c-7.37,1-15.91,3.59-18.34,11.56-2,6.65,1.06,14.5,8.18,16.18a6.14,6.14,0,0,0,7.39-4.19c.79-2.64,3.3-2.81,5.5-1.9,5.23,2.17,8.91-4.68,6.77-8.82a13.37,13.37,0,0,1-1.32-9.1l-5.79,4.4a17.1,17.1,0,0,1,12.79,3l-1.22-9.43C274,273,267.75,282,267.24,290.65q-.14.23-.51-.06l.83,2.68-3.14-1.37a2.58,2.58,0,0,1-.74,1.35c-1.61,1-3.26,2.47-4.83,3.62-3.52,2.6-6.36,5.7-7,10.17-1.13,7.82,6.24,16.38,14.19,11.31,7.07-4.5,6.57-15.18-.29-19.45-4.23-2.64-8.54.92-9,5.18-.38,3.38-4.5,4.24-7.09,3.29V319c5.63-1.71,7.81-6.61,7.66-12.19a51,51,0,0,0-.7-7.33l.27-.67q-4.89-4.38-5.94-.76l2.6-.71a2.77,2.77,0,0,1-.92-1.29,15.72,15.72,0,0,1,1.51-7.15,66.76,66.76,0,0,0,3.87-8.53c2.44-7.49,1.23-15.42,0-23-.77-4.86-7-5.24-10-2.65a49,49,0,0,0-17,35c-.23,4.11,4,6.55,7.59,5.78,9.25-2,18.24-9.67,16.69-20-1.35-9-11-16.09-19.72-11.43-9.2,4.9-9.45,16.76-4.41,24.73a41.69,41.69,0,0,0,5.1,6.22c.76.8,1.59,1.54,2.3,2.38s1.33,2.65,2,3.37l0,.85,1.52-.59c-.41-.27-.72.4-.55.51-1.33-.79.84,1.2.52.61.13.25.36.16.59.58,3.8,6.75,13.95.76,10.36-6.06-4.34-8.26-15.81-7.63-21.07-.74-6.18,8.08-4.24,19.78-.22,28.32,2.35,5,9.48,3.06,11-1.44a23,23,0,0,1,.86-2.41q1.95-2.28-1.34-4.47l11-1.44c-7.57-14.18-31.33-3.77-23.25,11.36,3.49,6.54,11.26,9.53,18,5.93a26.68,26.68,0,0,0,6.88-5.87c.8-.88,4-4.24,4-4.25l-4.4-5.78.7,12.89,4.41-5.79a100.82,100.82,0,0,0-22.77,10.41l8.21,8.21c1.88-2.87,7.33-3.34,9.43-.39l-.61-4.63q2.84-1.41,1-1.85a19.56,19.56,0,0,1-2.52-1.93,23.9,23.9,0,0,0-4.34-2.92,17.35,17.35,0,0,0-8.4-1.58c-6.16.4-12,4.63-12.19,11.2s5,10.85,10.85,12.55a37.44,37.44,0,0,0,9.25,1.21c1.82.06,3.52.4,5.29.56a1.43,1.43,0,0,1,1.26,1.12q2.76-1.57.16-1.76c-1-1.09-3-2-4.17-3-1-.86-2-1.77-3.13-2.54a18.48,18.48,0,0,0-9.84-3.64,10.92,10.92,0,0,0-8,3.09q-1.77,2.07-.3.65a6.09,6.09,0,0,0-2.16,2.15,9.55,9.55,0,0,0-1.71,4.9c-.55,7.59,5.79,12.69,12.9,13.15,3.08.2,7.58-1.52,10.38-.41,3.35,1.32,1.19,5.72.05,8.32l6.77-2.75c-3.17-.81-4.59-4.12-6.18-6.72a26.27,26.27,0,0,0-7.2-8.31c-5.64-3.94-13.79-4.74-18.23,1.46-3.75,5.23-2.11,13.05,3.26,16.59,3.08,2,7,1.93,10.35,3.33a28.83,28.83,0,0,1,10.12,7.36l4.24-10.24-19-.73c-6.72-.26-8.21,10.24-1.6,11.78a34.66,34.66,0,0,1,7,2.27c2,.95,1.93,2,2.67-1,.65-2.65.14-2.45-1.06-4.64-3.74-6.8-13.86-.79-10.36,6.06a45.83,45.83,0,0,1,4.72,27.2l11.78,1.6c-.75-7.59-4.45-14.41-11.19-18.32-3.26-1.89-7.08-3.24-10.64-1.33a9.43,9.43,0,0,0-4.6,8.08c-.13,8,8.07,12.35,15,9.11a15.4,15.4,0,0,0,7.67-8.54c.94-2.29,1.52-9.49,4.1-10.54l-5.83-10q-5.13,4.5-10.13,9.13c-3.47,3.22-1.45,8.68,2.65,10a20.31,20.31,0,0,0,13.63-.21c3.82-1.43,6.41-6.86,2.65-10a23.87,23.87,0,0,0-9.77-5.21c-4.07-1-9.08,2.93-7.38,7.38a42.83,42.83,0,0,1,3,15.24l10.24-4.25L234.44,396.8c-4.79-6.05-13.23,2.49-8.49,8.49Z"/><path class="cls-2" d="M415.19,204.19l1.53,8.39c.76,4.17,5.62,5,8.81,3.58,7.28-3.28,22-19.66,7.68-24.07a11.7,11.7,0,0,0-12.61,4.36c-.77,1-1.35,2.07-2,3.15-.56.91-1.63,1.57-.39,1.92-1.41-.4-2.13-3.81-2.23-4.87-.39-4.62-6.62-8.63-10.24-4.25A49.33,49.33,0,0,0,395.33,213c-.69,3,.9,6.73,4.19,7.38a23.65,23.65,0,0,0,21.76-6.2,6.05,6.05,0,0,0-1.22-9.42c-6.52-3.48-14-.29-17.05,6.27-1.72,3.7-1.51,7.69-1,11.63.42,3.3,1.76,7.44-1.23,9.8l7.28-.94A9.57,9.57,0,0,1,404,220.63c.93-3.45-1.82-8-5.79-7.6A17.69,17.69,0,0,0,388,217.37c-1.44,1.22-2.66,2.63-4,3.94-.5.48-4.08,2.45-4.12,2.55-.31.74.8,1.54,1.06,1.53s1.46-1.32,1.79-1.5c1.52-.88,3.53-1.08,5.22-1.52,3.89-1,7.41-2.52,10.24-5.45A6.06,6.06,0,0,0,397,207.5a51.17,51.17,0,0,0-22.77-6.5l4.24,10.24c3.86-3.52,9.6-2.69,13,1s8.53,1.3,10-2.65c5.59-14.75-12-28.29-24.67-18.56l8.21,2.15c-.64-1.12-.81-1.24-.52-.35a2.91,2.91,0,0,1,.67-1.26c1.09-.76,1.31-1.12,2.69-1.15,3.78-.08,7.48,3.84,10.05,6.15a6.08,6.08,0,0,0,10-2.65c2.49-8.33-.52-17.86-8-22.64-7.67-4.92-17.16-3.3-23.93,2.24l7.28-.94c.74.36-.79-.21.37-.45a9.05,9.05,0,0,1,5.12.43,21,21,0,0,1,9.46,7.44c5,6.79,6.47,15.37,5.84,23.6-.34,4.33,4.08,6.27,7.59,5.78,11.09-1.52,25.05-6.64,23.52-20.36-.55-4.9-3.23-9.66-7.79-11.81a10.71,10.71,0,0,0-7.6-.75c-3.34,1.1-4.71,4.75-8,6.13l5.84,1.54c-2.75-2.18.48-8.91,1-11.8,1.05-5.64.9-11.47-3.65-15.59l-1.21,9.43c3.49-2,6.93-.77,9.35,2.18,2.71,3.29,9.37,1.66,10-2.65,1.9-12.45-7.53-24.75-20.71-24L414,153.5c10.64-4.09,20.68,4.46,28.18,11.16a6.27,6.27,0,0,0,7.27.94c7.92-3.93,10.89-14.7,5.7-22-5.36-7.51-16.18-7.56-22.67-1.66l10,5.84c.76-2.93,1.5-6.4,3.63-8.7.72-.77,3.54-2.71,4.71-1.21.8,1-.64,6.28-.5,7.81a11,11,0,0,0,4.81,8.32c2.75,1.81,5.86,1.9,9,2.17,1.79.15,2.9,0,3.4,1.9,1.2,4.61-4.83,2.33-3.2-1.63,2.06-5-4.67-9.24-8.82-6.78a49.07,49.07,0,0,1-27.57,6.9,5.93,5.93,0,0,0-5.18,3c-4.38,7.91-3.24,16.7,2.42,23.6,1.39,1.69,3.86,1.93,5.84,1.54a34.8,34.8,0,0,0,13.26-5.65c2.86-2,4.42-6.77,1.21-9.43-5.67-4.68-14-7.62-21.13-4.25a12.6,12.6,0,0,0-4.7,18.82c5.05,7.07,13.24,7.55,20.65,10.46,1.34.53,6.18,2.47,5.13,4.42s-7.92.62-9.52.28l4.41,5.79a11.09,11.09,0,0,1,6.47-8.9c4-1.76,8-2.77,9.43-7.46,2.46-8-4.75-17-10.52-21.59l-2.65,10c2.89-1.11,5.56-2.17,8.64-1.86.62.06,1.33,1.42,1.34.19,0,.39-2.57,1.48-2.75,1.57-4.5,2.31-8.16,5.1-9.83,10.1-3.77,11.33,4.39,20.73,12.43,27.49l4.24-10.24a27.15,27.15,0,0,0-12,4.79c-1.54,1-3.22,2.48-5,3-2.08.6-3.33-.42-5.21-1.25-9.63-4.24-19.77,2.66-19.39,13.33.17,4.83,2.83,9.34,6.37,12.49,1.23,1.09,4.15,4,5.86,4.07,1,.77,1.14.13.34-1.92.44-2.45-.09-2.87-1.6-1.28-1.2.24-2.55,1.63-3.68,2.16-2.75,1.3-9.27,1.48-4.45-1.73,3.66-2.43,7-4.33,9.58-8a6.06,6.06,0,0,0-.94-7.27,31.6,31.6,0,0,1-8.2-12.07l-11,4.62c3.28,6.11,3,13.39,7.49,19,3.49,4.4,9,7.66,14.83,6.53,3-.59,5.27-2.28,7.44-4.38s3.93-4.38,7.19-2.82a4.44,4.44,0,0,1,2.32,2.63,3.89,3.89,0,0,1,.37,1.68c-.37,1.35-.2,1.49.53.43l.77-.57c-.21.25-.53.29-.95.1-.61-.29-2.24,0-2.9,0-4.18,0-8.78.21-12,3.32-4.89,4.78-3,12.46,1.11,17.06,9.23,10.29,26.21,4.3,24.2-10.08l-8.82,6.77c6.55,3.42,14.52,6.65,21.45,2.23,5.79-3.69,8.07-10.7,4.78-16.8l-8.21,8.21,7.8,5.17-2.75-6.78.1.54,8.81,6.77c1.16-7.67,5.63-12,12.81-14.26,6.24-2,11.13-7.7,7.56-14.32a12.66,12.66,0,0,0-15.5-5.61c-3.3,1.25-5.84,3.66-8.24,6.16-.8.83-4.87,5.83-6.32,4.35v8.48A24.47,24.47,0,0,1,484,231l-7.6-5.79c0,4-5.46,8.25-9.08,5.27-3.3-2.71-2.14-7.73.79-10.05l-9.43-7.27c-1.93,3.11-5.78,8.89-10.18,7.85-.8-.19-3.12-1.5-2.73-2.66s4.32-.33,5.09-.16c4.7,1,8.77,3.85,13.52,4.82,5.72,1.17,10.41.19,15-3.41,1.88-1.48,2.37-5.32.94-7.27-5.05-6.84-13.36-10.25-21.65-7.34l7.59,5.78.15-12.39c.05-3.82-.62-8.63.16-12.39.59-2.87,2.2-5.6,2.88-8.54a42.35,42.35,0,0,0,.95-12.09c-.19-3.15-2.59-6.13-6-6a15.11,15.11,0,0,0-8.7,2.76c-2.93,2.11-4.35,6.65-1.22,9.43,3.9,3.47,16.51,14.78,8.15,20.17-4.09,2.64-3.85,9.8,1.43,11,3.59.79,5.6,3.93,7.93,6.53a22.54,22.54,0,0,0,7.83,6c6.38,2.8,13.53,1.93,17.41-4.28,1.3-2.07,1-5.62-.94-7.27a12.73,12.73,0,0,0-17.42.61c-5.31,5.23-4.53,13.45-.17,18.95,5.22,6.59,13.67,7.86,21.6,7.17,2.43-.21,7.82-1.65,9.85.1a2.09,2.09,0,0,1,.48,3c-1.61,1.72-1.75-1.05-2.67,1.75-.78,2.36.68,1,2.26.59s3-.73,4.42-1.25a14.53,14.53,0,0,0,7.36-5.44c3.81-5.66,3.41-13.48-1.66-18.25a14.49,14.49,0,0,0-18.62-.75c-1,.78-1.82,1.65-2.73,2.51-.26.25-4,3.52.58,1.86a16.61,16.61,0,0,1,2.26-2.18,25.57,25.57,0,0,1,5.54-1.47c3.94-.83,5.3-5.58,3.58-8.81-3.76-7.09-11.16-15.48-20.17-12.69a14,14,0,0,0-4.89,2.89c-1.33,1.15-2.22,1.39-.86,2.35,1.82,1.28.5.47,1.33.36,1.74-.25,3.64-1.42,5.59-1.66a79.7,79.7,0,0,0,8.42-1.19c3.76-.88,5.52-5.6,3.58-8.82a17.86,17.86,0,0,0-15.29-8.75,17.48,17.48,0,0,0-8.58,2.17,19.17,19.17,0,0,0-3.8,3L474.12,182c-1.73.94-1.53,1.44.6,1.48l-2.15,8.21c5.87-4.18,11.86-8.21,17.61-12.54,4.53-3.42,7.58-7.88,6.61-13.8-2-12.44-18.09-14.39-24.25-4l11,1.43A48.08,48.08,0,0,0,463.36,134v10.36c6.15-4.13,13.2,1.81,9.21,8.41a6.1,6.1,0,0,0,.94,7.27c5.56,5.45,15,6.09,20.63.22s4.66-15.47-1.22-20.56v8.48c1.91-1.76,5.14-1.12,7.07.39a4.71,4.71,0,0,1,1.84,3.1c.05.22-.74.6-.71.8-.55.57-.14,1.19,1.22,1.87q.78,3,2,1.09c1.7-.26,4.24-1.67,5.94-2.31a21.41,21.41,0,0,0,5.58-3c3.93-3,5.88-7.28,4.46-12.11l-8.82,6.77c3.35,2.27,8.07,5,9.1,9.27a5.8,5.8,0,0,1-.22,3c0,.18-.74-.09-.74-.09s.76.79.64.16l-2.76,6.77c3.71-2.68,10.17-4,12.43,1.42a4.21,4.21,0,0,1-6.16,5.2c-7.35-4.42-10.7-13.22-20.76-12.3-9.45.87-14.72,11.52-12.29,20.12,3.06,10.85,15.41,14,25.23,12.36l-6.78-8.81c-.38.51-1.68-.22-1.18-1.41,1-2.32,3.19.21,3.48,1.56.66,3.17-3.25,9.06-4.44,11.75l-5.16,11.7c-1.7,3.87.2,9.25,5.18,9a60.94,60.94,0,0,0,16.62-3l-7.6-5.79a5.32,5.32,0,0,0,0,1.18c.1,4.79-.18,2.26,1.58,2.39,1.5.11,3.93-.81,5.34-1.24a15.07,15.07,0,0,0,8.63-6.54c3.79-6.33,3-14.94-2.54-20l-2.65,10c2.68-.71,5.7-1.52,8.45-.7,2.41.72,2.17,2,3.26,3.26.35.42-1.49-.07.18.59,1.19.47,0-.33.79-.84a32.14,32.14,0,0,1,6.09-3.71c4.24-1.68,5.88-6.43,2.64-10-2.27-2.53-2.77-5.24-2.44-8.54l-11.19,3c6,8.18,11.85,17.82,22.29,20.71,8.45,2.34,20-.49,22.55-10,1.14-4.26-.2-9.42-4.33-11.57-4.36-2.27-9.77-.57-13.87,1.5a24.88,24.88,0,0,0-10.45,10.15c-.67,1.23-4.66,11.13-6.08,9.49l1.76,4.25c.31-2.56,13.25,5.05,14.55,5.62,5.94,2.62,13.09,3.08,18.22-1.53,3.19-2.86,5.17-10.81,10.57-9,4.57,1.55,3.51,7.94-.23,9.86a7.75,7.75,0,0,1-6.91-.24c-1.26-.64-1.81-1.89-2.82-2.57l-.43-.75-2.81.73c-.13.27.53,1.75.58,2.14.76,6.14-4.51,10.83-10.27,11.07-12.17.51-19.09-16.6-32.33-10.42a14.37,14.37,0,0,0-7.67,16.1c1.72,7.09,8.18,11.09,15.11,11.56l-5.18-9c-1.95,3.19-4.73,6.64-8.73,7.16-2,.26-7.3-1.11-5.88-4.34.76-1.72.53-.31,1.62-1,.26-.17.54-1,0-.53s-.06.41.94,0a3.32,3.32,0,0,1-.2-1.79,9.78,9.78,0,0,1,1.55-3.05c4.64-5.38,12.48-5.31,18.9-5.09,8.79.3,17.26.5,25.2-3.83l-8.81-3.59c.9,5.31,1.63,12.33-2.7,16.42-1.35,1.27-3.42,2.53-5.29,1.67-1.21-.56-2.2-2.13-1.51-3.34,2.94-5.19-3-11.28-8.21-8.21a71.33,71.33,0,0,1-8.71,4.44c-4.18,1.74-6.67,8.53-1.44,11,3.33,1.55,8.32,3.32,9.9,7,.56,1.3.17,2.09.1,3q-1.91-.15.26,2.12a2,2,0,0,1,1.12-.92c1.53.59,2.55.52,4,1.85a25,25,0,0,1,3,3.38c2.48,3.19,4.66,6.51,7.84,9.08,6.05,4.89,13.52,5.42,18.11-1.56a15.14,15.14,0,0,0-1.4-18.55c-1.85-2.12-5-2-7.27-.94l-10.84,5.13,8.21,8.21c3.15-6,7.58-8.49,13.77-10.64,5.77-2,11.41-5.41,12.54-12,2.21-12.86-17.51-17.2-19.3-3.54-1.43,10.95,7.06,23.17,19,19,13.85-4.8,12.37-20.6,8.63-31.73l-10,5.84,19,17.94c1.63,1.56,3.29,3.09,4.91,4.66,1,1,2.19,2.83,3.28,3.5.54,1.64.88,1.51,1-.38l-1.57.09c-1.34-.52-8.75-.59-8.85-1.83l1.75-4.24c-3.26,3.08-7.5,2.76-11,.26-2.53-1.83-6.83-.53-8.21,2.15-3.24,6.32-1.24,12.21,2.31,17.94a20.36,20.36,0,0,1,2.14,3.66c.18.53.3,2.7.5,2.93.59.67,1.65.09,1.74-1,.07-.89-.63-2.5-.63-3.5,0-6.2,1-12.24-3.72-17.2a15.07,15.07,0,0,0-16.37-3.6c-2.74,1.15-5.51,4.06-4.19,7.38s3.8,8.12,2.26,11.64c-.75,1.73-3.27,2.75-3.16,4.09,0,.46,2.16,2.58,2.49,3.34a21.34,21.34,0,0,1,1.27,5.5,32,32,0,0,1-1.18,12.76,6.14,6.14,0,0,0,2.76,6.77c5.76,3.79,14.19,2.36,17.84-3.74s.94-14.07-5-17.53a6.11,6.11,0,0,0-7.27.93c-11.59,12.2,13.24,23,23,18.48,5.72-2.66,9.37-9.45,6.68-15.5a10.14,10.14,0,0,0-2.17-3.28q-1.61-2-.24.35l1.67-3.26,5.83-11.41-6.78,2.76c-1.37-.48-.36-1.43-.66.23a20.06,20.06,0,0,0,0,3.1,43.87,43.87,0,0,0,.3,8c.95,5.82,5.2,10.93,11.48,11,6.08,0,11.81-4.41,13.71-10.11,2.54-7.62-1.48-15.11-5.57-21.31-4.24-6.41-14.64-.41-10.36,6.06,2.29,3.47,6.61,8.83,3.57,12.79a2.4,2.4,0,0,1-1.34.64c.14,0,.74.22.53-.11-.66-1-.39-3.17-.39-4.24,0-7.39.09-14.76-8.09-17.61a6,6,0,0,0-6.77,2.75c-2.22,4.35-4.47,8.68-6.67,13-1.62,3.21-3.36,6.52-2.38,10.24a11.08,11.08,0,0,0,2.81,4.68c1.24,1.22.75.44-.25.38a18.32,18.32,0,0,1-6.18-1.08,6.36,6.36,0,0,1-2.17-1.06c-1.24-1.67-1.6-.68-1.1,3l-7.27.94c1.41.81.61,1.4-.68.55l2.75,6.78c2.84-10.08,3.16-23.83-4.4-32.07-6-6.57-18.65-6.73-19.94,4-1.1,9.18,9,15.8,17.09,11.81,10.81-5.34,9.25-18.12,5.57-27.45l-4.19,7.38c7.93-3.34,4.38,9.56,5.23,13.67,1.29,6.14,6.21,11.93,12.94,11.3,6.38-.59,9.83-6.37,9.59-12.38a20.26,20.26,0,0,0-2.41-8.57c-1-2-5.33-6.48-4.15-8.79l-8.2,2.15a20,20,0,0,0,17.23,2.82c5.5-1.66,11.81-6,9.43-12.48-1.94-5.26-8.58-7.28-13.45-5-5.81,2.74-6.85,10.34-3.62,15.48,6.26,10,30.27,9.22,27.53-5.88-1.29-7.09-7.94-11.88-12.85-16.53L599.49,205c-4.13-3.91-12-.08-10,5.84,1.51,4.49,5,12.61.37,16.39-1.31,1.07-2.26,1.37-3.43.15a7.14,7.14,0,0,1-1.09-3.27c-.3-2.17.9-2.25-2.29-2.13-2.78.11-5.45,2.06-8.25,3a35.91,35.91,0,0,0-7.64,3.36A31.25,31.25,0,0,0,556,240.44c-2.91,5.54,2.83,10.76,8.2,8.21l10.85-5.13-7.27-.94c1.52,1.75-.2,3.8-1.78,4.53l4.62-.61c-5.16-1.16-7.77-6.62-10.88-10.43-3.28-4-7.62-7.59-13-8.17-9.17-1-18.88,8.71-13.44,17.72,5.23,8.67,18.63,5.45,21.61-3.36,3.9-11.52-6.46-19.68-15.57-23.93l-1.43,11a94.62,94.62,0,0,0,11.58-5.66l-8.21-8.21c-6.38,11.23,4.87,24.14,16.93,21.2,15-3.67,16.63-20.44,14.5-33.08-.67-4-5.72-5.27-8.81-3.59-6.58,3.59-14.47,2.27-21.65,2.12-6.52-.13-12.79.82-18.59,3.95-5.05,2.72-9.54,7.24-10.91,12.95s.6,12.94,6.11,16c12,6.55,23.09-12.08,11.92-19.94-11.76-8.27-24.85,5.25-19.54,17.43,2.92,6.69,10.13,10.11,17.23,9.44,8.16-.76,14.28-6.27,18.4-13,2.51-4.11-.8-8.73-5.18-9-4.77-.32-4.26-6.88,1.3-3.82s9.74,7.93,16.23,9.68c11.6,3.11,24.28-2.31,28.38-13.94,3.15-8.93-1.62-27.84-14.56-21.16a11.44,11.44,0,0,0-5.53,13.25c1.59,6.17,7.45,10.77,13.4,12.36,11.23,3,22.66-4.5,23.53-16.27a16.76,16.76,0,0,0-21.07-17.29,15.49,15.49,0,0,0-6.84,3.93c-2,2-2.93,4.9-4.82,6.95-3.86,4.19-11.79-3.06-15.68-4.76-5.3-2.31-11.12-2.58-16.16.58-4.55,2.86-7.82,9.5-4,14.15,4.18,5.06,11.76,4.54,16.71,1,5.55-4,5.85-11.11,10.29-15.82a12.71,12.71,0,0,1,3.42-2.59,10,10,0,0,1,2.63-1c-.48-2.89-1-3.67-1.69-2.31-.13,0-2.45,1.37-2.82,1.45a10,10,0,0,1-4.68-.29c-7-1.94-11.12-9.77-15.11-15.2-3.6-4.9-10.59-3.09-11.18,3-.63,6.46,1.67,12.25,6,17l2.65-10c-7.34,2.91-15.13,7.31-15.16,16.26a11.12,11.12,0,0,0,15.48,10.6c7.53-3.08,10-12.07,5.73-18.88-5.38-8.63-16-8.91-24.82-6.58-4.22,1.11-6,7-2.65,10a4,4,0,0,1,1,4.91c-1.06,1.93-3.42,1.92-5.35,2.36-5.45,1.24-10.82,3.94-11.36,10.17-.52,6.07,4.83,11.23,10.76,11.41,7.5.22,11.62-6.63,12.41-13.17.47-3.81-4.21-6.91-7.59-5.79a48.52,48.52,0,0,1-13.43,2.56l5.18,9,7-15.88c2.15-4.88,4.67-9.8,4.09-15.29-.92-8.84-10.53-15.14-18.94-11.87-7.7,3-11.17,13.27-6.28,20.1,5.48,7.63,16.23,6.28,21.43-.67,3.51-4.68-2.27-9.55-6.77-8.81-3.56.59-9.78-.24-10.64-4.6-.67-3.42,1.87-5.25,4.56-3.46,3.32,2.21,5.73,5.78,8.9,8.24,4,3.14,8.87,5,14,3.75,10.55-2.53,15.87-15.06,10.38-24.36-6-10.11-19.36-11.8-28.51-5.16a6.34,6.34,0,0,0-2.76,6.78c1.88,10.34,16.87,11.38,22,3.08,7.32-11.93-4-22.78-13.1-29-4.39-3-10.24,1.95-8.82,6.78-.39-1.35.24-.34-1.24.07-1,.27-2,.74-2.91,1.06a26.92,26.92,0,0,0-6.31,2.72c-3.68,2.36-6.7,6.22-6.27,10.79,1,10.48,13.42,10.43,18.87,3.59s2.3-16.29-4.5-21a17.58,17.58,0,0,0-22,1.22c-2.26,2.08-2.38,6.42,0,8.48,2.74,2.38.37,6.13-2.44,3.37l.94,7.28c10-16.56-9.32-35.77-25.63-24.83a6.09,6.09,0,0,0,0,10.36,35.62,35.62,0,0,1,14.64,21.55c1.22,5.1,8.4,5.76,11,1.44.53-.91,1.66-1.58,2-.3.45,1.55-3.35,3.49-4.21,4.1l-14.23,10.11c-2.87,2.05-3.56,5-2.15,8.21,2.92,6.6,11.56,6.46,16.51,2.48,2.22-1.78,3.85-4.94,6.83-5.39a5.75,5.75,0,0,1,5.86,2.77l3.59-8.81c-6.34,1.47-12.87.71-18.24,5-4.58,3.68-6.39,9.91-3.43,15.22a10.14,10.14,0,0,0,13.79,4.28c1.07-.58,4.05-4.19,5.1-4.23,2.46-.09,5.32,5.62,6.19,7.26l3.59-8.82c-5.85,1.24-12.28,3.4-15.24,9.07-2.6,5-1.41,11.89,3,15.4,5,4,10.85,1.76,15.05-2.18,1.22-1.14,2.72-3.48,4.68-2.18,1.76,1.17.59,3-.8,3.78-4.51,2.65-10,1.53-13.14,6.71-3.54,5.86.38,12.74,6.22,15.05,12.65,5,24.25-9.65,16.46-20.85-4.72-6.79-12.89-6.31-20.16-5.67-3.59.31-8.23.8-11.28-1.6a4.75,4.75,0,0,1-1.87-3.84c0-.76,1.5-.11.66-.8l-.94-7.27c.33-.52.23.3-.83-.14a20.79,20.79,0,0,1-2-.75c-2-1.12-3.46-3.19-5-4.9-3.26-3.72-6.87-6.93-11.83-8l1.44,11c6.44-4.15,9.15-11.36,8-18.86-1.3-8.49-7.58-14.7-13.72-20.16l-1.22,9.42a3.24,3.24,0,0,1,2.65-1.12l-6-6a30.62,30.62,0,0,1-1,10.61c-1.16,4-2.83,6.67-2.88,11l-.3,23.83c-.05,3.69,3.9,7.08,7.6,5.79,2.84-1,6.14-.83,8.09,1.83l.94-7.27c-2.63,2.07-8.5-1.33-11-2.42a30.55,30.55,0,0,0-11.33-2.86c-7.69-.23-15.25,5.07-14.79,13.36.43,7.77,8.08,13.95,15.62,13.92,8.8,0,15.37-7,19.67-13.91,3.86-6.22-4.42-11.23-9.42-7.27-9.17,7.27-8,23.66,2.36,29.38,11.67,6.46,26.27-3.26,26.42-16.11a6,6,0,0,0-7.59-5.78,35.53,35.53,0,0,0-17.52,11.31c-2.1,2.51-2.43,6,0,8.48,4.11,4.22,9.94,4.5,15.13,2.16a23.12,23.12,0,0,0,7.13-5.41,39.27,39.27,0,0,1,3.11-3.21c.41-.34,2.2-1.3,2.29-1.41q.85.6.18-1.32c.42-1.55-.05-1.92-1.41-1.09a15.12,15.12,0,0,0-4.1,1.52,27.58,27.58,0,0,0-15.73,20.77c-.67,4.45,4.1,10.3,8.81,6.78,2.79-2.09,4.65-4.22,5.42-7.71a6.23,6.23,0,0,0-2.76-6.77l-7.8-5.18c-5.24-3.47-10.91,3.21-8.21,8.21a6.44,6.44,0,0,1-2.69.87c-2.45,0-5-1.62-7.12-2.71-5-2.62-9.53,1.68-8.82,6.78.23,1.63-4.3-1.68-4.08-1.59s-2.9.14-1.29.24c.23,0,1.64-.14,1.63-.14,3.15-.21,6.3.27,9.38-.67,8.77-2.66,8.5-14.38,4.2-20.78a16.87,16.87,0,0,0-24.17-3.66c-1,.8-3.54,4.21-4.69,4.26-1.94.08-3.68-3.1-4.28-4.53-2.11-5-2.56-10.41-5.19-15.31-3.15-5.87-13.36-1.84-11,4.63a44.86,44.86,0,0,0,11.28,17.37l-.94-7.27c-2.32,3.39-7.45,4.55-10.23,7.72a12.07,12.07,0,0,0-1.3,14.33c6.83,11.31,24.11,6.91,31.22-1.83,4.11-5,1.46-10.68-3.46-13.72-1.32-.82-10.44-7.72-4.83-9,.84-.2,2.88,1.3,3.77,1.67a15.26,15.26,0,0,0,4.39,1.22,14.81,14.81,0,0,0,7.27-1c4.21-1.62,8.27-6.39,12.75-6.93s8.69-6.51,4.25-10.24c-3.92-3.3-11.19-8.53-9.7-14.6.66-2.71,3-3.2,5.21-4.42,2.44-1.32,4.79-2.84,6.29-5.26,3.43-5.51,1.17-12.34-3.83-16-5.94-4.32-13.12-2.76-19.48-.32-3.71,1.42-6.54,6.93-2.64,10a25.79,25.79,0,0,1,4.41,4.2c.81,1,1.42,3.07,2.4,3.89.19,1.55.74,1.61,1.63.19a24.93,24.93,0,0,0-2.8.95,21.92,21.92,0,0,0-4.52,2.38c-6.11,4.24-9.31,10.56-10,17.85-.24,2.45,2,5.29,4.4,5.79,6.71,1.4,15.1,2,20.64-2.85,5.82-5.17,5.44-13.85.1-19.17-5.67-5.66-13.25-5.72-20.07-8.88-1.07-.49-5.25-2.45-3.9-3.88s6.32,1,7.5,2l1.22-9.43a25.93,25.93,0,0,1-10.39,4.45l5.84,1.54a8,8,0,0,1-.55-9l-5.18,3a60.73,60.73,0,0,0,33.63-8.53l-8.82-6.78c-4.57,11.15,8.74,23.81,19.61,18.24,9.42-4.82,9.48-19.89.53-25.27a16.79,16.79,0,0,0-7.42-2c-.61-.05-3.62-.24-3.43,0a25.28,25.28,0,0,0,.6-3.86c.54-5.82-1.73-11-7.23-13.51-13-5.83-21.7,6.78-24.53,17.76-1.53,5.95,5.64,9.82,10,5.83,3.37-3.06,7.17,2.44,2.42,4.78l7.27.94c-10.63-9.5-24.9-20-39.85-14.24-5.84,2.25-5.69,12.21,1.6,11.79,4.64-.27,9.93,3.59,9.14,8.79l10-2.65c-5.84-7.1-16.05-8.47-23.9-4.05-3.25,1.82-4.07,6.84-1.22,9.42,2.51,2.27-.77,9.34-1.28,12.16-1,5.47-.81,11.48,3.92,15.23,1.56,1.23,3.77,2.4,5.84,1.54,3-1.25,6.66-2.8,8.77-5.44q2.6-2.1-1.52-.75a1.15,1.15,0,0,1,.45.5c-.11.54.72,1.71.68,2.46-.28,5.61-10.95,6.35-14.87,6.88l7.6,5.79c1.18-15.44-5.12-33.13-19.53-40.63-6.91-3.6-16.66-5-22.27,1.67-4.64,5.49-3.87,14.93,2.95,18.3a6.3,6.3,0,0,0,7.27-.94c6.4-5.25,14,1.65,11.86,8.73l10-2.65c-6.61-6-15.68-12.67-24.95-8.34-7.06,3.3-11.81,12.5-6.78,19.5,1.7,2.37,5.44,4.27,8.21,2.15,4.37-3.36,9.09-.4,7,5l10-2.64c-7.89-8.67-21.43-8.74-29.93-1-4.05,3.69-.67,10,4.25,10.24a37.55,37.55,0,0,1,16.71,4.86l-1.22-9.42c-2,2.07-4.95,2.32-7.64,3a20.31,20.31,0,0,0-7.71,3.65c-4.59,3.65-7.44,10.14-4.09,15.62,3,4.92,9,6,14.2,4.29a19.63,19.63,0,0,0,7-4.26c1.69-1.54,4.2-5.48,6.7-5.74l-5.78-7.59a21.85,21.85,0,0,0,9.6,24.4c2.45,1.56,5.2.69,7.27-.94,3.89-3.07,5.36-8,5.34-12.84,0-2.64-.64-5.22-.89-7.83a23.85,23.85,0,0,1,.12-4.23c.1-1.25,1.69-.1.17-.92l-1.22-9.42a11,11,0,0,1-10.08,3.11l4.19,7.38a36.36,36.36,0,0,1,7.31-15.26L404,196.65c.61,7,4.3,15.28,12.06,16.59a11.35,11.35,0,0,0,9.91-3.36,22.31,22.31,0,0,0,3.33-4.77c.26-.45.81-1.54.81-1.53-.23.09-.22.11,0,0q2-.23-2.7-2L428,197a15.65,15.65,0,0,1-8.53,8.76l8.81,3.59L426.76,201c-1.38-7.59-12.95-4.38-11.57,3.19Z"/><path class="cls-2" d="M595.49,301.28a10,10,0,0,1-6.58-8l-3,5.18c3-1.89,6.17.35,4.24,3.74L599.6,301c-5.62-6.88-5.08-16.63-.12-23.63l-11-1.44,7.39,19.24c1.72,4.48,6.32,5.58,10,2.65,6-4.72,11.55-9.9,13.71-17.45,1.74-6.06,1.17-13.12-2.34-18.47a18.36,18.36,0,0,0-30-.89l11,4.63c.92-3.89,7.53-5.27,11-5.24l-.25-.89a18.55,18.55,0,0,1,.49,2.33c.3,1.59.5,3.2.76,4.79l1.81,11.5c.55,3.51,1.13,7,1.66,10.54a28.22,28.22,0,0,0,.39,4.09c-.63,1.3.14,1.41,2.31.31q3.82.63,1.86-1.54c0-2.49-1-4.37,1.35-6.34,2-1.67,4.46-1.43,6.73-.58,2.48.93,5.51-.62,6.78-2.75l3.63-6.08H626.48a36.22,36.22,0,0,1,2.28,21.84l8.81-3.59a18.82,18.82,0,0,1-5.78-3.55c-.55-.52-1.36-2-2-2.29-.4-1.07-1.08-1-2,.32-1.67.27-2.08.72-1.24,1.34.05,1.18,3.05,4.39,3.75,5.57,1.29,2.16,2.48,4.39,3.57,6.67a75.68,75.68,0,0,1,4.9,13.53,26.37,26.37,0,0,1,1.17,5.66c0,.7-.38,1.94-.3,2.62.18,1.51-1-.14.51,0l5.18,3a31.07,31.07,0,0,1-2.69-17.29c.27-2.53-2-5.2-4.41-5.79-5.79-1.45-13-2.19-17.84,2a11.85,11.85,0,0,0-4.18,8.31,21.94,21.94,0,0,0,.35,4.64c.2,1,.36,2,.47,3.07-.67,1.06.49,1,3.46-.22l3,5.18c-1-8.76-1.26-18.13-3.19-26.74-1.55-6.9-8.06-9-14.41-6.95a18.11,18.11,0,0,0-11.72,12.77,16.61,16.61,0,0,0,.94,10c.56,1.45,1.3,2.79,1.92,4.22a13.64,13.64,0,0,1,1,2.46c-.38,1.05-.1,1.18.82.39l5.18,3c-2.72-4.06-3.38-8.69-1.1-13.13,1.85-3.58-.33-9.64-5.18-9-12.9,1.61-20.71,11.76-23.65,23.87-2.18,9-5.41,24.87,5,30.27,10.65,5.53,24.29-9,23.14-19.35-.59-5.24-4.19-9.85-9.6-10.55s-11,2.66-11.83,8.13h11.57c-.57-2.25,1.37-2.47,2.19-.64s-.21,5.27-.05,7.41c.41,5.74,4.38,11.16,10.64,11,15.36-.37,15.2-23.21,13.24-33.44-.7-3.64-5.78-5.68-8.81-3.58-7.89,5.45-11.83,15.55-8,24.7s13.81,13.39,23.24,11.57l-7.59-5.78a10.68,10.68,0,0,1-2.2,8.55l11,1.44c-.71-2.9-2.16-7-.87-9.9.41-.92,1.84-2.68,2.65-1.86,2.94,3,7.19,1.84,9.43-1.21,6.71-9.18-1.65-23.75-13-22.61-3.29.34-5.91,2.49-6,6-.14,5.83,2.41,10.91,5.48,15.7,1.69,2.65,6.85,8.21,5.23,11.66-2.22,4.68,1.42,10.1,6.77,8.81,10.07-2.42,22.34-18,11.54-26.95-5.39-4.45-13.07-1.22-15.15,5.1-2.23,6.77,2.87,14.2,4.33,20.69,1.55,6.9,2.12,14.95.29,21.86-.43,1.64-1.12,4.41-3,4.12-2.38-.36-2.94-5.81-2.14-7.49s.84-.76,2-1.82c.29-.25.07-.64,0-.59,2.53-1.54,1.44-.79.3-3.2a33.47,33.47,0,0,1-1.28-4.17c-1.78-5.58-4.77-10.75-10.84-12.19a6.11,6.11,0,0,0-7.38,4.19,17,17,0,0,1-8.77,11l8.82,3.59a57,57,0,0,1-.69-21.74c.76-4.61-2.62-8.36-7.38-7.38l-25.42,5.22c-2.69.55-4.25,3.26-4.41,5.78-1,16.2,21.67,22.33,28.41,7.28l-11-4.62a48,48,0,0,0,3.61,35.51l.94-7.27a1.55,1.55,0,0,1-2.23-.89c-.4-3,4.08-.84,5-.35,5.19,2.67,9.49,5.39,15.57,4.48,10.89-1.65,14.47-16.48,2.89-20.38-12.21-4.12-19.11,9.33-15.56,19.61,1.87,5.39,8.16,10.82,8.24,16.6.05,4.14-4.41,2.72-1.65,1.54l-7.27-.94c1.73,1.95.07,5.82-.63,7.94-1.45,4.39-3.23,8.68-4.88,13q-5,13.05-10.19,26h11.58a34.37,34.37,0,0,1,5.85-29.06l-9.43,1.21,8.08,7a6.21,6.21,0,0,0,8.49,0,19.33,19.33,0,0,0,7-14.68,6.08,6.08,0,0,0-6-6c-1.87,0-13.61,0-11.43-4.42,1.08-2.21,9.17-2.2,11.28-2.61,10.77-2.08,17.89-10.43,19-21.2.79-7.67-11.22-7.61-12,0-1.43,13.84-21.07,7.5-27.92,16.72-3.95,5.33-3,12.6,1.42,17.36,5.11,5.5,12.56,6.18,19.64,6.15l-6-6c-.12,2.82-1.36,4.48-3.47,6.19h8.49l-8.08-7c-3.13-2.71-7.06-2.06-9.42,1.21a46,46,0,0,0-7.07,38.31c1.58,6.25,9.53,5.1,11.58,0q6.61-16.56,12.91-33.24c3.21-8.51,6.5-17.74-.3-25.4-1.93-2.17-4.9-2-7.28-.94-5.81,2.48-8.11,9.64-6.31,15.43,2,6.52,9.25,9.58,15.6,7.83,7.19-2,11-8.8,10.25-16-.45-4.24-2.34-8-4.55-11.59-1.74-2.81-4.89-6.33-4.59-9.88a10.73,10.73,0,0,1,.54-2q1.44.6-.52-1.44,1.8-2.13-.33-1.15c-.93-.48-2.46-.4-3.54-.9-1.58-.73-3-1.77-4.59-2.55-6.58-3.33-14.34-3.84-19.32,2.49-4.29,5.46-4.08,13.43,1.21,18.13,5.45,4.85,13,4.13,18.4-.19,2.13-1.71,2.06-5.09.94-7.27a35.39,35.39,0,0,1-2.4-26.27c1.82-6.35-8.13-11-11-4.62-1.82,4.06-6.34,3.49-6-1.23l-4.4,5.79,25.42-5.22-7.38-7.38a72.72,72.72,0,0,0,.69,28.12c.86,3.9,5.57,5.35,8.81,3.59a29.06,29.06,0,0,0,14.28-18.15l-7.38,4.19c1.9.45,2.33,3.4,2.82,5.06a26.87,26.87,0,0,0,3.77,8.47c3.45,4.7,9.77,7.54,15.22,4.19,4.94-3,6.42-10,3.81-15-2.79-5.4-9.44-7.19-15-5.35-12.78,4.25-12.57,22.93-2.73,30.11a12.84,12.84,0,0,0,16.54-.92c4.48-4.25,5.71-10.48,6.34-16.35a65.71,65.71,0,0,0-2.52-25.89c-.62-2-1.4-4-2.16-5.94a9.7,9.7,0,0,0-.91-2.44L639,345.35l.07.67c-.9,1.18-.91,2.83-2.1,4a8.66,8.66,0,0,1-4.46,2.29l6.78,8.82c2.92-6.19,1.86-12-1.42-17.78-2.73-4.84-7.79-9.76-7.65-15.64l-6,6a2.78,2.78,0,0,1,2.59,4.55l9.43-1.21c-5.09-5.15-13.31-4.6-18.48.25-6.52,6.11-5.28,15.34-3.36,23.18,1.33,5.45,8.11,5.33,11,1.43a20.35,20.35,0,0,0,3.84-14.61c-.51-4-3.42-6.6-7.6-5.79-8.41,1.63-13.06-9.47-6-14.34l-8.81-3.59a33.83,33.83,0,0,1,.11,12.92,10.87,10.87,0,0,1-1.33,4,3.3,3.3,0,0,1-1,1.21c-1,.66-.34.86,1.86.61.71-.55.11-6.73,0-7.51a13.68,13.68,0,0,0-3.29-8.19c-9.63-10.51-25.8-.69-22.4,12.62,1.38,5.4,10.61,6,11.57,0-.11.75-2.35.49-2.07.24s-.67,2.69-.43,2.19c-1,2.17-3.53,3.45-5.24,4.94-.9.78.11.81-.07.29a14.25,14.25,0,0,1-.48-1.73,19,19,0,0,1,0-5.68c.94-8.09,3.32-22.52,13.63-23.81l-5.18-9a25,25,0,0,0-2.43,17.25c1.29,5.63,4.62,12.3,11.43,10.76,5.38-1.21,8.54-7,8.46-12.18s-6.61-11.59-3-16.15c.4-.5,2.81-1.82,2.84-2q1.61-.23-1.08-.87l.35,2.9,1.37,11.61c.72,6,.11,15.15,8.49,15.13,5.61,0,9.85-5.5,10.06-10.81,0-1.07-1.42-6.77-.84-7.47,1-1.21,5.8.18,6.9.45l-4.4-5.78c-.89,8.26,2.72,35.5,16.57,24.09,9.28-7.65,3-23.52-.65-32.36-3.53-8.56-11-27.41-23.39-23.26-5.94,2-7.64,8.18-5.17,13.53a26.2,26.2,0,0,0,13.52,12.83c3.27,1.39,8,.61,8.81-3.59a50.29,50.29,0,0,0-3.49-31.09c-1.89-4.28-8.25-3.53-10.36,0l-3.63,6.08,6.77-2.76c-12.51-4.69-25.67,6.08-23.38,19.26.91,5.21,4.75,12.27,11,11.92s9.27-7.28,9-12.76c-.35-8-2.48-16.28-3.73-24.19-1-6.09-.85-14.23-7-17.61-4.89-2.68-12.18-.85-17.11,1-5.58,2.09-10.22,5.78-11.64,11.8-1.64,6.94,7,9.93,11,4.62,3.55-4.78,10.1.58,10.81,4.68,1.36,7.91-5.61,13.27-11,17.58l10,2.65-7.39-19.24c-1.9-5-7.86-5.8-11-1.43-8.29,11.7-6.88,27.31,2,38.18,2.48,3,7.66,1.87,9.43-1.22,7.72-13.51-7.21-28.59-20.66-20.15-1.64,1-3.23,3.11-3,5.18,1.14,9.33,6.47,16.34,15.39,19.55,7.28,2.61,10.41-9,3.19-11.57Z"/></svg>