<svg xmlns="http://www.w3.org/2000/svg" viewBox="0 0 1924 1074"><defs><style>.cls-1{fill:#7c5118;}.cls-2{fill:#3e4a54;}.cls-3{fill:#664217;}.cls-4{fill:#4e6047;}.cls-5{fill:#bca106;}.cls-6{fill:#404c3b;}</style></defs><title>Artboard 6</title><g id="Layer_7" data-name="Layer 7"><rect class="cls-1" x="2" y="1" width="1928" height="1093"/><path class="cls-2" d="M0,150H47a120.27,120.27,0,0,1,27,29c19.2,29.14,20.33,59,20,72a141.05,141.05,0,0,0,10,24,146.71,146.71,0,0,0,44,50H129a62.61,62.61,0,0,1-16-3c-50.36-16.55-62.5-93.64-64-104a146,146,0,0,0-17-34A146.36,146.36,0,0,0,0,150Z"/><path class="cls-3" d="M71,153l59,3c4.76,7.52,9.46,15.51,14,24a385.31,385.31,0,0,1,36,97,137.19,137.19,0,0,0,14,17,140.93,140.93,0,0,0,45,31l-32,2a92.23,92.23,0,0,1-49-11c-37.77-20.84-45.88-61.82-47-68a143.4,143.4,0,0,0-7-40A145.6,145.6,0,0,0,71,153Z"/><path class="cls-2" d="M0,137H47a120.27,120.27,0,0,0,27-29C93.2,78.86,94.33,49,94,36a141.05,141.05,0,0,1,10-24,146.71,146.71,0,0,1,44-50H129a62.61,62.61,0,0,0-16,3C62.64-18.45,50.5,58.64,49,69a146,146,0,0,1-17,34A146.36,146.36,0,0,1,0,137Z"/><path class="cls-4" d="M71,134l59-3c4.76-7.52,9.46-15.51,14-24a385.31,385.31,0,0,0,36-97A137.19,137.19,0,0,1,194-7a140.93,140.93,0,0,1,45-31l-32-2a92.23,92.23,0,0,0-49,11c-37.77,20.84-45.88,61.82-47,68a143.4,143.4,0,0,1-7,40A145.6,145.6,0,0,1,71,134Z"/><path class="cls-2" d="M581,150H534a120.27,120.27,0,0,0-27,29c-19.2,29.14-20.33,59-20,72a141.05,141.05,0,0,1-10,24,146.71,146.71,0,0,1-44,50h19a62.61,62.61,0,0,0,16-3c50.36-16.55,62.5-93.64,64-104a145.84,145.84,0,0,1,49-68Z"/><path class="cls-3" d="M510,153l-59,3c-4.76,7.52-9.46,15.51-14,24a385.31,385.31,0,0,0-36,97,137.19,137.19,0,0,1-14,17,140.93,140.93,0,0,1-45,31l32,2a92.23,92.23,0,0,0,49-11c37.77-20.84,45.88-61.82,47-68a143.4,143.4,0,0,1,7-40A145.6,145.6,0,0,1,510,153Z"/><path class="cls-2" d="M581,137H534a120.27,120.27,0,0,1-27-29c-19.2-29.14-20.33-59-20-72a141.05,141.05,0,0,0-10-24,146.71,146.71,0,0,0-44-50h19a62.61,62.61,0,0,1,16,3c50.36,16.55,62.5,93.64,64,104a146,146,0,0,0,17,34A146.36,146.36,0,0,0,581,137Z"/><path class="cls-3" d="M510,134l-59-3c-4.76-7.52-9.46-15.51-14-24a385.31,385.31,0,0,1-36-97A137.19,137.19,0,0,0,387-7a140.93,140.93,0,0,0-45-31l32-2a92.23,92.23,0,0,1,49,11c37.77,20.84,45.88,61.82,47,68a143.4,143.4,0,0,0,7,40A145.6,145.6,0,0,0,510,134Z"/><path class="cls-2" d="M0,538H47a120.27,120.27,0,0,1,27,29c19.2,29.14,20.33,59,20,72a141.05,141.05,0,0,0,10,24,146.71,146.71,0,0,0,44,50H129a62.61,62.61,0,0,1-16-3c-50.36-16.55-62.5-93.64-64-104a146,146,0,0,0-17-34A146.36,146.36,0,0,0,0,538Z"/><path class="cls-3" d="M71,541l59,3c4.76,7.52,9.46,15.51,14,24a385.31,385.31,0,0,1,36,97,137.19,137.19,0,0,0,14,17,140.93,140.93,0,0,0,45,31l-32,2a92.23,92.23,0,0,1-49-11c-37.77-20.84-45.88-61.82-47-68a143.4,143.4,0,0,0-7-40A145.6,145.6,0,0,0,71,541Z"/><path class="cls-2" d="M0,525H47a120.27,120.27,0,0,0,27-29c19.2-29.14,20.33-59,20-72a141.05,141.05,0,0,1,10-24,146.71,146.71,0,0,1,44-50H129a62.61,62.61,0,0,0-16,3c-50.36,16.55-62.5,93.64-64,104a146,146,0,0,1-17,34A146.36,146.36,0,0,1,0,525Z"/><path class="cls-3" d="M71,522l59-3c4.76-7.52,9.46-15.51,14-24a385.31,385.31,0,0,0,36-97,137.19,137.19,0,0,1,14-17,140.93,140.93,0,0,1,45-31l-32-2a92.23,92.23,0,0,0-49,11c-37.77,20.84-45.88,61.82-47,68a143.4,143.4,0,0,1-7,40A145.6,145.6,0,0,1,71,522Z"/><path class="cls-2" d="M581,538H534a120.27,120.27,0,0,0-27,29c-19.2,29.14-20.33,59-20,72a141.05,141.05,0,0,1-10,24,146.71,146.71,0,0,1-44,50h19a62.61,62.61,0,0,0,16-3c50.36-16.55,62.5-93.64,64-104a145.84,145.84,0,0,1,49-68Z"/><path class="cls-3" d="M510,541l-59,3c-4.76,7.52-9.46,15.51-14,24a385.31,385.31,0,0,0-36,97,137.19,137.19,0,0,1-14,17,140.93,140.93,0,0,1-45,31l32,2a92.23,92.23,0,0,0,49-11c37.77-20.84,45.88-61.82,47-68a143.4,143.4,0,0,1,7-40A145.6,145.6,0,0,1,510,541Z"/><path class="cls-2" d="M581,525H534a120.27,120.27,0,0,1-27-29c-19.2-29.14-20.33-59-20-72a141.05,141.05,0,0,0-10-24,146.71,146.71,0,0,0-44-50h19a62.61,62.61,0,0,1,16,3c50.36,16.55,62.5,93.64,64,104a145.84,145.84,0,0,0,49,68Z"/><path class="cls-2" d="M-7,928H40a120.27,120.27,0,0,1,27,29c19.2,29.14,20.33,59,20,72a141.05,141.05,0,0,0,10,24,146.71,146.71,0,0,0,44,50H122a62.61,62.61,0,0,1-16-3c-50.36-16.55-62.5-93.64-64-104a146,146,0,0,0-17-34A146.36,146.36,0,0,0-7,928Z"/><path class="cls-3" d="M64,931l59,3c4.76,7.52,9.46,15.51,14,24a385.31,385.31,0,0,1,36,97,137.19,137.19,0,0,0,14,17,140.93,140.93,0,0,0,45,31l-32,2a92.23,92.23,0,0,1-49-11c-37.77-20.84-45.88-61.82-47-68a143.4,143.4,0,0,0-7-40A145.6,145.6,0,0,0,64,931Z"/><path class="cls-2" d="M-7,915H40a120.27,120.27,0,0,0,27-29c19.2-29.14,20.33-59,20-72a141.05,141.05,0,0,1,10-24,146.71,146.71,0,0,1,44-50H122a62.61,62.61,0,0,0-16,3c-50.36,16.55-62.5,93.64-64,104a146,146,0,0,1-17,34A146.36,146.36,0,0,1-7,915Z"/><path class="cls-3" d="M64,912l59-3c4.76-7.52,9.46-15.51,14-24a385.31,385.31,0,0,0,36-97,137.19,137.19,0,0,1,14-17,140.93,140.93,0,0,1,45-31l-32-2a92.23,92.23,0,0,0-49,11c-37.77,20.84-45.88,61.82-47,68a143.4,143.4,0,0,1-7,40A145.6,145.6,0,0,1,64,912Z"/><path class="cls-2" d="M574,928H527a120.27,120.27,0,0,0-27,29c-19.2,29.14-20.33,59-20,72a141.05,141.05,0,0,1-10,24,146.71,146.71,0,0,1-44,50h19a62.61,62.61,0,0,0,16-3c50.36-16.55,62.5-93.64,64-104a145.84,145.84,0,0,1,49-68Z"/><path class="cls-3" d="M503,931l-59,3c-4.76,7.52-9.46,15.51-14,24a385.31,385.31,0,0,0-36,97,137.19,137.19,0,0,1-14,17,140.93,140.93,0,0,1-45,31l32,2a92.23,92.23,0,0,0,49-11c37.77-20.84,45.88-61.82,47-68a143.4,143.4,0,0,1,7-40A145.6,145.6,0,0,1,503,931Z"/><path class="cls-2" d="M574,915H527a120.27,120.27,0,0,1-27-29c-19.2-29.14-20.33-59-20-72a141.05,141.05,0,0,0-10-24,146.71,146.71,0,0,0-44-50h19a62.61,62.61,0,0,1,16,3c50.36,16.55,62.5,93.64,64,104a145.84,145.84,0,0,0,49,68Z"/><path class="cls-3" d="M503,912l-59-3c-4.76-7.52-9.46-15.51-14-24a385.31,385.31,0,0,1-36-97,137.19,137.19,0,0,0-14-17,140.93,140.93,0,0,0-45-31l32-2a92.23,92.23,0,0,1,49,11c37.77,20.84,45.88,61.82,47,68a143.4,143.4,0,0,0,7,40A145.6,145.6,0,0,0,503,912Z"/><path class="cls-2" d="M747,147h47a120.27,120.27,0,0,1,27,29c19.2,29.14,20.33,59,20,72a141.05,141.05,0,0,0,10,24,146.71,146.71,0,0,0,44,50H876a62.61,62.61,0,0,1-16-3c-50.36-16.55-62.5-93.64-64-104a145.84,145.84,0,0,0-49-68Z"/><path class="cls-3" d="M818,150l59,3c4.76,7.52,9.46,15.51,14,24a385.31,385.31,0,0,1,36,97,137.19,137.19,0,0,0,14,17,140.93,140.93,0,0,0,45,31l-32,2a92.23,92.23,0,0,1-49-11c-37.77-20.84-45.88-61.82-47-68a143.4,143.4,0,0,0-7-40A145.6,145.6,0,0,0,818,150Z"/><path class="cls-2" d="M747,134h47a120.27,120.27,0,0,0,27-29c19.2-29.14,20.33-59,20-72A141.05,141.05,0,0,1,851,9a146.71,146.71,0,0,1,44-50H876a62.61,62.61,0,0,0-16,3c-50.36,16.55-62.5,93.64-64,104a146,146,0,0,1-17,34A146.36,146.36,0,0,1,747,134Z"/><path class="cls-3" d="M818,131l59-3c4.76-7.52,9.46-15.51,14-24A385.31,385.31,0,0,0,927,7a137.19,137.19,0,0,1,14-17,140.93,140.93,0,0,1,45-31l-32-2a92.23,92.23,0,0,0-49,11c-37.77,20.84-45.88,61.82-47,68a143.4,143.4,0,0,1-7,40A145.6,145.6,0,0,1,818,131Z"/><path class="cls-2" d="M1328,147h-47a120.27,120.27,0,0,0-27,29c-19.2,29.14-20.33,59-20,72a141.05,141.05,0,0,1-10,24,146.71,146.71,0,0,1-44,50h19a62.61,62.61,0,0,0,16-3c50.36-16.55,62.5-93.64,64-104a145.84,145.84,0,0,1,49-68Z"/><path class="cls-3" d="M1257,150l-59,3c-4.76,7.52-9.46,15.51-14,24a385.31,385.31,0,0,0-36,97,137.19,137.19,0,0,1-14,17,140.93,140.93,0,0,1-45,31l32,2a92.23,92.23,0,0,0,49-11c37.77-20.84,45.88-61.82,47-68a143.4,143.4,0,0,1,7-40A145.6,145.6,0,0,1,1257,150Z"/><path class="cls-2" d="M1328,134h-47a120.27,120.27,0,0,1-27-29c-19.2-29.14-20.33-59-20-72a141.05,141.05,0,0,0-10-24,146.71,146.71,0,0,0-44-50h19a62.61,62.61,0,0,1,16,3c50.36,16.55,62.5,93.64,64,104a146,146,0,0,0,17,34A146.36,146.36,0,0,0,1328,134Z"/><path class="cls-3" d="M1257,131l-59-3c-4.76-7.52-9.46-15.51-14-24a385.31,385.31,0,0,1-36-97,137.19,137.19,0,0,0-14-17,140.93,140.93,0,0,0-45-31l32-2a92.23,92.23,0,0,1,49,11c37.77,20.84,45.88,61.82,47,68a143.4,143.4,0,0,0,7,40A145.6,145.6,0,0,0,1257,131Z"/><path class="cls-2" d="M747,535h47a120.27,120.27,0,0,1,27,29c19.2,29.14,20.33,59,20,72a141.05,141.05,0,0,0,10,24,146.71,146.71,0,0,0,44,50H876a62.61,62.61,0,0,1-16-3c-50.36-16.55-62.5-93.64-64-104a145.84,145.84,0,0,0-49-68Z"/><path class="cls-3" d="M818,538l59,3c4.76,7.52,9.46,15.51,14,24a385.31,385.31,0,0,1,36,97,137.19,137.19,0,0,0,14,17,140.93,140.93,0,0,0,45,31l-32,2a92.23,92.23,0,0,1-49-11c-37.77-20.84-45.88-61.82-47-68a143.4,143.4,0,0,0-7-40A145.6,145.6,0,0,0,818,538Z"/><path class="cls-2" d="M747,522h47a120.27,120.27,0,0,0,27-29c19.2-29.14,20.33-59,20-72a141.05,141.05,0,0,1,10-24,146.71,146.71,0,0,1,44-50H876a62.61,62.61,0,0,0-16,3c-50.36,16.55-62.5,93.64-64,104a145.84,145.84,0,0,1-49,68Z"/><path class="cls-3" d="M818,519l59-3c4.76-7.52,9.46-15.51,14-24a385.31,385.31,0,0,0,36-97,137.19,137.19,0,0,1,14-17,140.93,140.93,0,0,1,45-31l-32-2a92.23,92.23,0,0,0-49,11c-37.77,20.84-45.88,61.82-47,68a143.4,143.4,0,0,1-7,40A145.6,145.6,0,0,1,818,519Z"/><path class="cls-2" d="M1328,535h-47a120.27,120.27,0,0,0-27,29c-19.2,29.14-20.33,59-20,72a141.05,141.05,0,0,1-10,24,146.71,146.71,0,0,1-44,50h19a62.61,62.61,0,0,0,16-3c50.36-16.55,62.5-93.64,64-104a145.84,145.84,0,0,1,49-68Z"/><path class="cls-3" d="M1257,538l-59,3c-4.76,7.52-9.46,15.51-14,24a385.31,385.31,0,0,0-36,97,137.19,137.19,0,0,1-14,17,140.93,140.93,0,0,1-45,31l32,2a92.23,92.23,0,0,0,49-11c37.77-20.84,45.88-61.82,47-68a143.4,143.4,0,0,1,7-40A145.6,145.6,0,0,1,1257,538Z"/><path class="cls-2" d="M1328,522h-47a120.27,120.27,0,0,1-27-29c-19.2-29.14-20.33-59-20-72a141.05,141.05,0,0,0-10-24,146.71,146.71,0,0,0-44-50h19a62.61,62.61,0,0,1,16,3c50.36,16.55,62.5,93.64,64,104a145.84,145.84,0,0,0,49,68Z"/><path class="cls-3" d="M1257,519l-59-3c-4.76-7.52-9.46-15.51-14-24a385.31,385.31,0,0,1-36-97,137.19,137.19,0,0,0-14-17,140.93,140.93,0,0,0-45-31l32-2a92.23,92.23,0,0,1,49,11c37.77,20.84,45.88,61.82,47,68a143.4,143.4,0,0,0,7,40A145.6,145.6,0,0,0,1257,519Z"/><path class="cls-2" d="M740,925h47a120.27,120.27,0,0,1,27,29c19.2,29.14,20.33,59,20,72a141.05,141.05,0,0,0,10,24,146.71,146.71,0,0,0,44,50H869a62.61,62.61,0,0,1-16-3c-50.36-16.55-62.5-93.64-64-104a145.84,145.84,0,0,0-49-68Z"/><path class="cls-3" d="M811,928l59,3c4.76,7.52,9.46,15.51,14,24a385.31,385.31,0,0,1,36,97,137.19,137.19,0,0,0,14,17,140.93,140.93,0,0,0,45,31l-32,2a92.23,92.23,0,0,1-49-11c-37.77-20.84-45.88-61.82-47-68a143.4,143.4,0,0,0-7-40A145.6,145.6,0,0,0,811,928Z"/><path class="cls-2" d="M740,912h47a120.27,120.27,0,0,0,27-29c19.2-29.14,20.33-59,20-72a141.05,141.05,0,0,1,10-24,146.71,146.71,0,0,1,44-50H869a62.61,62.61,0,0,0-16,3c-50.36,16.55-62.5,93.64-64,104a145.84,145.84,0,0,1-49,68Z"/><path class="cls-3" d="M811,909l59-3c4.76-7.52,9.46-15.51,14-24a385.31,385.31,0,0,0,36-97,137.19,137.19,0,0,1,14-17,140.93,140.93,0,0,1,45-31l-32-2a92.23,92.23,0,0,0-49,11c-37.77,20.84-45.88,61.82-47,68a143.4,143.4,0,0,1-7,40A145.6,145.6,0,0,1,811,909Z"/><path class="cls-2" d="M1321,925h-47a120.27,120.27,0,0,0-27,29c-19.2,29.14-20.33,59-20,72a141.05,141.05,0,0,1-10,24,146.71,146.71,0,0,1-44,50h19a62.61,62.61,0,0,0,16-3c50.36-16.55,62.5-93.64,64-104a145.84,145.84,0,0,1,49-68Z"/><path class="cls-3" d="M1250,928l-59,3c-4.76,7.52-9.46,15.51-14,24a385.31,385.31,0,0,0-36,97,137.19,137.19,0,0,1-14,17,140.93,140.93,0,0,1-45,31l32,2a92.23,92.23,0,0,0,49-11c37.77-20.84,45.88-61.82,47-68a143.4,143.4,0,0,1,7-40A145.6,145.6,0,0,1,1250,928Z"/><path class="cls-2" d="M1321,912h-47a120.27,120.27,0,0,1-27-29c-19.2-29.14-20.33-59-20-72a141.05,141.05,0,0,0-10-24,146.71,146.71,0,0,0-44-50h19a62.61,62.61,0,0,1,16,3c50.36,16.55,62.5,93.64,64,104a145.84,145.84,0,0,0,49,68Z"/><path class="cls-3" d="M1250,909l-59-3c-4.76-7.52-9.46-15.51-14-24a385.31,385.31,0,0,1-36-97,137.19,137.19,0,0,0-14-17,140.93,140.93,0,0,0-45-31l32-2a92.23,92.23,0,0,1,49,11c37.77,20.84,45.88,61.82,47,68a143.4,143.4,0,0,0,7,40A145.6,145.6,0,0,0,1250,909Z"/><path class="cls-2" d="M1492,149h47a120.27,120.27,0,0,1,27,29c19.2,29.14,20.33,59,20,72a141.05,141.05,0,0,0,10,24,146.71,146.71,0,0,0,44,50h-19a62.61,62.61,0,0,1-16-3c-50.36-16.55-62.5-93.64-64-104a145.84,145.84,0,0,0-49-68Z"/><path class="cls-3" d="M1563,152l59,3c4.76,7.52,9.46,15.51,14,24a385.31,385.31,0,0,1,36,97,137.19,137.19,0,0,0,14,17,140.93,140.93,0,0,0,45,31l-32,2a92.23,92.23,0,0,1-49-11c-37.77-20.84-45.88-61.82-47-68a143.4,143.4,0,0,0-7-40A145.6,145.6,0,0,0,1563,152Z"/><path class="cls-2" d="M1492,136h47a120.27,120.27,0,0,0,27-29c19.2-29.14,20.33-59,20-72a141.05,141.05,0,0,1,10-24,146.71,146.71,0,0,1,44-50h-19a62.61,62.61,0,0,0-16,3c-50.36,16.55-62.5,93.64-64,104a146,146,0,0,1-17,34A146.36,146.36,0,0,1,1492,136Z"/><path class="cls-3" d="M1563,133l59-3c4.76-7.52,9.46-15.51,14-24a385.31,385.31,0,0,0,36-97,137.19,137.19,0,0,1,14-17,140.93,140.93,0,0,1,45-31l-32-2a92.23,92.23,0,0,0-49,11c-37.77,20.84-45.88,61.82-47,68a143.4,143.4,0,0,1-7,40A145.6,145.6,0,0,1,1563,133Z"/><path class="cls-2" d="M1492,537h47a120.27,120.27,0,0,1,27,29c19.2,29.14,20.33,59,20,72a141.05,141.05,0,0,0,10,24,146.71,146.71,0,0,0,44,50h-19a62.61,62.61,0,0,1-16-3c-50.36-16.55-62.5-93.64-64-104a145.84,145.84,0,0,0-49-68Z"/><path class="cls-3" d="M1563,540l59,3c4.76,7.52,9.46,15.51,14,24a385.31,385.31,0,0,1,36,97,137.19,137.19,0,0,0,14,17,140.93,140.93,0,0,0,45,31l-32,2a92.23,92.23,0,0,1-49-11c-37.77-20.84-45.88-61.82-47-68a143.4,143.4,0,0,0-7-40A145.6,145.6,0,0,0,1563,540Z"/><path class="cls-2" d="M1492,524h47a120.27,120.27,0,0,0,27-29c19.2-29.14,20.33-59,20-72a141.05,141.05,0,0,1,10-24,146.71,146.71,0,0,1,44-50h-19a62.61,62.61,0,0,0-16,3c-50.36,16.55-62.5,93.64-64,104a145.84,145.84,0,0,1-49,68Z"/><path class="cls-3" d="M1563,521l59-3c4.76-7.52,9.46-15.51,14-24a385.31,385.31,0,0,0,36-97,137.19,137.19,0,0,1,14-17,140.93,140.93,0,0,1,45-31l-32-2a92.23,92.23,0,0,0-49,11c-37.77,20.84-45.88,61.82-47,68a143.4,143.4,0,0,1-7,40A145.6,145.6,0,0,1,1563,521Z"/><path class="cls-2" d="M1485,927h47a120.27,120.27,0,0,1,27,29c19.2,29.14,20.33,59,20,72a141.05,141.05,0,0,0,10,24,146.71,146.71,0,0,0,44,50h-19a62.61,62.61,0,0,1-16-3c-50.36-16.55-62.5-93.64-64-104a145.84,145.84,0,0,0-49-68Z"/><path class="cls-3" d="M1556,930l59,3c4.76,7.52,9.46,15.51,14,24a385.31,385.31,0,0,1,36,97,137.19,137.19,0,0,0,14,17,140.93,140.93,0,0,0,45,31l-32,2a92.23,92.23,0,0,1-49-11c-37.77-20.84-45.88-61.82-47-68a143.4,143.4,0,0,0-7-40A145.6,145.6,0,0,0,1556,930Z"/><path class="cls-2" d="M1485,914h47a120.27,120.27,0,0,0,27-29c19.2-29.14,20.33-59,20-72a141.05,141.05,0,0,1,10-24,146.71,146.71,0,0,1,44-50h-19a62.61,62.61,0,0,0-16,3c-50.36,16.55-62.5,93.64-64,104a145.84,145.84,0,0,1-49,68Z"/><path class="cls-3" d="M1556,911l59-3c4.76-7.52,9.46-15.51,14-24a385.31,385.31,0,0,0,36-97,137.19,137.19,0,0,1,14-17,140.93,140.93,0,0,1,45-31l-32-2a92.23,92.23,0,0,0-49,11c-37.77,20.84-45.88,61.82-47,68a143.4,143.4,0,0,1-7,40A145.6,145.6,0,0,1,1556,911Z"/><path class="cls-3" d="M510,522l-59-3c-4.76-7.52-9.46-15.51-14-24a385.31,385.31,0,0,1-36-97,137.19,137.19,0,0,0-14-17,140.93,140.93,0,0,0-45-31l32-2a92.23,92.23,0,0,1,49,11c37.77,20.84,45.88,61.82,47,68a143.4,143.4,0,0,0,7,40A145.6,145.6,0,0,0,510,522Z"/><circle class="cls-5" cx="299.14" cy="455.02" r="72.59"/><circle class="cls-5" cx="299.95" cy="607.49" r="72.59"/><path class="cls-6" d="M300,537.33c1.08,0,2.15,0,3.21.08a45.52,45.52,0,0,1-.37-5.75c0-.84,0-1.67.07-2.5q-1.46.06-2.91.06a72.6,72.6,0,0,1-72.23-65.3,72.61,72.61,0,0,0,1,131.89A72.61,72.61,0,0,1,300,537.33Z"/><path class="cls-6" d="M308.24,496.31c.41,1,.79,2,1.15,3a47.76,47.76,0,0,1,5.18-2.53c.77-.32,1.55-.62,2.33-.89-.4-.88-.79-1.76-1.16-2.67a72.59,72.59,0,0,1,32.87-91.65A72.61,72.61,0,0,0,227,452.75,72.6,72.6,0,0,1,308.24,496.31Z"/><path class="cls-6" d="M315.07,569.12q.36-1.57.78-3.12a46.83,46.83,0,0,1-5.7-.89c-.82-.19-1.62-.39-2.42-.62q-.25,1.43-.57,2.85a72.6,72.6,0,0,1-79.52,56.2,72.61,72.61,0,0,0,128.92,27.85A72.6,72.6,0,0,1,315.07,569.12Z"/><circle class="cls-2" cx="340.5" cy="532.87" r="51.5"/><line class="cls-4" x1="392" y1="533" x2="627" y2="531"/><path class="cls-3" d="M68,132l59-3c4.76-7.52,9.46-15.51,14-24A385.31,385.31,0,0,0,177,8,137.19,137.19,0,0,1,191-9a140.93,140.93,0,0,1,45-31l-32-2a92.23,92.23,0,0,0-49,11c-37.77,20.84-45.88,61.82-47,68a143.4,143.4,0,0,1-7,40A145.6,145.6,0,0,1,68,132Z"/><circle class="cls-5" cx="278.86" cy="65.02" r="72.59"/><circle class="cls-5" cx="278.05" cy="217.49" r="72.59"/><path class="cls-6" d="M278.05,147.33c-1.08,0-2.15,0-3.21.08a45.52,45.52,0,0,0,.37-5.75c0-.84,0-1.67-.07-2.5q1.46.06,2.91.06a72.6,72.6,0,0,0,72.23-65.3,72.61,72.61,0,0,1-1,131.89A72.61,72.61,0,0,0,278.05,147.33Z"/><path class="cls-6" d="M269.76,106.31c-.41,1-.79,2-1.15,3a47.76,47.76,0,0,0-5.18-2.53c-.77-.32-1.55-.62-2.33-.89.4-.88.79-1.76,1.16-2.67a72.59,72.59,0,0,0-32.87-91.65A72.61,72.61,0,0,1,351,62.75,72.6,72.6,0,0,0,269.76,106.31Z"/><path class="cls-6" d="M262.93,179.12q-.36-1.58-.78-3.12a46.83,46.83,0,0,0,5.7-.89c.82-.19,1.62-.39,2.42-.62q.25,1.42.57,2.85a72.6,72.6,0,0,0,79.52,56.2,72.61,72.61,0,0,1-128.92,27.85A72.6,72.6,0,0,0,262.93,179.12Z"/><circle class="cls-2" cx="237.5" cy="142.87" r="51.5"/><line class="cls-4" x1="186" y1="143" x2="-49" y2="141"/><circle class="cls-5" cx="280.86" cy="844.02" r="72.59"/><circle class="cls-5" cx="280.05" cy="996.49" r="72.59"/><path class="cls-6" d="M280.05,926.33c-1.08,0-2.15,0-3.21.08a45.52,45.52,0,0,0,.37-5.75c0-.84,0-1.67-.07-2.5q1.46.06,2.91.06a72.6,72.6,0,0,0,72.23-65.3,72.61,72.61,0,0,1-1,131.89A72.61,72.61,0,0,0,280.05,926.33Z"/><path class="cls-6" d="M271.76,885.31c-.41,1-.79,2-1.15,3a47.76,47.76,0,0,0-5.18-2.53c-.77-.32-1.55-.62-2.33-.89.4-.88.79-1.76,1.16-2.67a72.59,72.59,0,0,0-32.87-91.65A72.61,72.61,0,0,1,353,841.75,72.6,72.6,0,0,0,271.76,885.31Z"/><path class="cls-6" d="M264.93,958.12q-.36-1.57-.78-3.12a46.83,46.83,0,0,0,5.7-.89c.82-.19,1.62-.39,2.42-.62q.25,1.43.57,2.85a72.6,72.6,0,0,0,79.52,56.2,72.61,72.61,0,0,1-128.92,27.85A72.6,72.6,0,0,0,264.93,958.12Z"/><circle class="cls-2" cx="239.5" cy="921.87" r="51.5"/><line class="cls-4" x1="188" y1="922" x2="-47" y2="920"/><circle class="cls-5" cx="656.86" cy="261.02" r="72.59"/><circle class="cls-5" cx="656.05" cy="413.49" r="72.59"/><path class="cls-6" d="M656.05,343.33c-1.08,0-2.15,0-3.21.08a45.52,45.52,0,0,0,.37-5.75c0-.84,0-1.67-.07-2.5q1.46.06,2.91.06a72.6,72.6,0,0,0,72.23-65.3,72.61,72.61,0,0,1-1,131.89A72.61,72.61,0,0,0,656.05,343.33Z"/><path class="cls-6" d="M647.76,302.31c-.41,1-.79,2-1.15,3a47.76,47.76,0,0,0-5.18-2.53c-.77-.32-1.55-.62-2.33-.89.4-.88.79-1.76,1.16-2.67a72.59,72.59,0,0,0-32.87-91.65A72.61,72.61,0,0,1,729,258.75,72.6,72.6,0,0,0,647.76,302.31Z"/><path class="cls-6" d="M640.93,375.12q-.36-1.58-.78-3.12a46.83,46.83,0,0,0,5.7-.89c.82-.19,1.62-.39,2.42-.62q.26,1.42.57,2.85a72.6,72.6,0,0,0,79.52,56.2,72.61,72.61,0,0,1-128.92,27.85A72.6,72.6,0,0,0,640.93,375.12Z"/><circle class="cls-2" cx="615.5" cy="338.87" r="51.5"/><line class="cls-4" x1="564" y1="339" x2="329" y2="337"/><circle class="cls-5" cx="663.14" cy="647.02" r="72.59"/><circle class="cls-5" cx="663.95" cy="799.49" r="72.59"/><path class="cls-6" d="M664,729.33c1.08,0,2.15,0,3.21.08a45.52,45.52,0,0,1-.37-5.75c0-.84,0-1.67.07-2.5q-1.46.06-2.91.06a72.6,72.6,0,0,1-72.23-65.3,72.61,72.61,0,0,0,1,131.89A72.61,72.61,0,0,1,664,729.33Z"/><path class="cls-6" d="M672.24,688.31c.41,1,.79,2,1.15,3a47.76,47.76,0,0,1,5.18-2.53c.77-.32,1.55-.62,2.33-.89-.4-.88-.79-1.76-1.16-2.67a72.59,72.59,0,0,1,32.87-91.65A72.61,72.61,0,0,0,591,644.75,72.6,72.6,0,0,1,672.24,688.31Z"/><path class="cls-6" d="M679.07,761.12q.36-1.57.78-3.12a46.83,46.83,0,0,1-5.7-.89c-.82-.19-1.62-.39-2.42-.62q-.26,1.43-.57,2.85a72.6,72.6,0,0,1-79.52,56.2,72.61,72.61,0,0,0,128.92,27.85A72.6,72.6,0,0,1,679.07,761.12Z"/><circle class="cls-2" cx="704.5" cy="724.87" r="51.5"/><line class="cls-4" x1="756" y1="725" x2="991" y2="723"/><circle class="cls-5" cx="663.95" cy="19.49" r="72.59"/><path class="cls-6" d="M664-50.67c1.08,0,2.15,0,3.21.08a45.52,45.52,0,0,1-.37-5.75c0-.84,0-1.67.07-2.5q-1.46.06-2.91.06a72.6,72.6,0,0,1-72.23-65.3A72.59,72.59,0,0,0,550-58.37,72.59,72.59,0,0,0,592.74,7.81,72.61,72.61,0,0,1,664-50.67Z"/><path class="cls-6" d="M679.07-18.88q.36-1.57.78-3.12a46.83,46.83,0,0,1-5.7-.89c-.82-.19-1.62-.39-2.42-.62q-.26,1.43-.57,2.85a72.6,72.6,0,0,1-79.52,56.2A72.61,72.61,0,0,0,720.56,63.39,72.6,72.6,0,0,1,679.07-18.88Z"/><circle class="cls-5" cx="656.86" cy="1038.02" r="72.59"/><path class="cls-6" d="M656.05,1120.33c-1.08,0-2.15,0-3.21.08a45.52,45.52,0,0,0,.37-5.75c0-.84,0-1.67-.07-2.5q1.46.06,2.91.06a72.6,72.6,0,0,0,72.23-65.3,72.61,72.61,0,0,1-1,131.89A72.61,72.61,0,0,0,656.05,1120.33Z"/><path class="cls-6" d="M647.76,1079.31c-.41,1-.79,2-1.15,3a47.76,47.76,0,0,0-5.18-2.53c-.77-.32-1.55-.62-2.33-.89.4-.88.79-1.76,1.16-2.67a72.59,72.59,0,0,0-32.87-91.65A72.61,72.61,0,0,1,729,1035.75,72.6,72.6,0,0,0,647.76,1079.31Z"/><circle class="cls-2" cx="615.5" cy="1115.87" r="51.5"/><circle class="cls-5" cx="1032.86" cy="451.02" r="72.59"/><circle class="cls-5" cx="1032.05" cy="603.49" r="72.59"/><path class="cls-6" d="M1032.05,533.33c-1.08,0-2.15,0-3.21.08a45.52,45.52,0,0,0,.37-5.75c0-.84,0-1.67-.07-2.5q1.45.06,2.91.06a72.6,72.6,0,0,0,72.23-65.3,72.61,72.61,0,0,1-1,131.89A72.61,72.61,0,0,0,1032.05,533.33Z"/><path class="cls-6" d="M1023.76,492.31c-.41,1-.79,2-1.15,3a47.76,47.76,0,0,0-5.18-2.53c-.77-.32-1.55-.62-2.33-.89.4-.88.79-1.76,1.16-2.67a72.59,72.59,0,0,0-32.87-91.65A72.61,72.61,0,0,1,1105,448.75,72.6,72.6,0,0,0,1023.76,492.31Z"/><path class="cls-6" d="M1016.93,565.12q-.36-1.57-.78-3.12a46.83,46.83,0,0,0,5.7-.89c.82-.19,1.62-.39,2.42-.62q.26,1.43.57,2.85a72.6,72.6,0,0,0,79.52,56.2,72.61,72.61,0,0,1-128.92,27.85A72.6,72.6,0,0,0,1016.93,565.12Z"/><circle class="cls-2" cx="991.5" cy="528.87" r="51.5"/><line class="cls-4" x1="940" y1="529" x2="705" y2="527"/><circle class="cls-5" cx="1421.14" cy="259.02" r="72.59"/><circle class="cls-5" cx="1421.95" cy="411.49" r="72.59"/><path class="cls-6" d="M1422,341.33c1.08,0,2.15,0,3.21.08a45.52,45.52,0,0,1-.37-5.75c0-.84,0-1.67.07-2.5q-1.45.06-2.91.06a72.6,72.6,0,0,1-72.23-65.3,72.61,72.61,0,0,0,1,131.89A72.61,72.61,0,0,1,1422,341.33Z"/><path class="cls-6" d="M1430.24,300.31c.41,1,.79,2,1.15,3a47.76,47.76,0,0,1,5.18-2.53c.77-.32,1.55-.62,2.33-.89-.4-.88-.79-1.76-1.16-2.67a72.59,72.59,0,0,1,32.87-91.65A72.61,72.61,0,0,0,1349,256.75,72.6,72.6,0,0,1,1430.24,300.31Z"/><path class="cls-6" d="M1437.07,373.12q.36-1.58.78-3.12a46.83,46.83,0,0,1-5.7-.89c-.82-.19-1.62-.39-2.42-.62q-.26,1.42-.57,2.85a72.6,72.6,0,0,1-79.52,56.2,72.61,72.61,0,0,0,128.92,27.85A72.6,72.6,0,0,1,1437.07,373.12Z"/><circle class="cls-2" cx="1462.5" cy="336.87" r="51.5"/><line class="cls-4" x1="1514" y1="337" x2="1749" y2="335"/><circle class="cls-5" cx="1407.14" cy="1028.02" r="72.59"/><path class="cls-6" d="M1408,1110.33c1.08,0,2.15,0,3.21.08a45.52,45.52,0,0,1-.37-5.75c0-.84,0-1.67.07-2.5q-1.45.06-2.91.06a72.6,72.6,0,0,1-72.23-65.3,72.61,72.61,0,0,0,1,131.89A72.61,72.61,0,0,1,1408,1110.33Z"/><path class="cls-6" d="M1416.24,1069.31c.41,1,.79,2,1.15,3a47.76,47.76,0,0,1,5.18-2.53c.77-.32,1.55-.62,2.33-.89-.4-.88-.79-1.76-1.16-2.67a72.59,72.59,0,0,1,32.87-91.65A72.61,72.61,0,0,0,1335,1025.75,72.6,72.6,0,0,1,1416.24,1069.31Z"/><circle class="cls-2" cx="1448.5" cy="1105.87" r="51.5"/><circle class="cls-5" cx="1407.86" cy="645.02" r="72.59"/><circle class="cls-5" cx="1407.05" cy="797.49" r="72.59"/><path class="cls-6" d="M1407.05,727.33c-1.08,0-2.15,0-3.21.08a45.52,45.52,0,0,0,.37-5.75c0-.84,0-1.67-.07-2.5q1.45.06,2.91.06a72.6,72.6,0,0,0,72.23-65.3,72.61,72.61,0,0,1-1,131.89A72.61,72.61,0,0,0,1407.05,727.33Z"/><path class="cls-6" d="M1398.76,686.31c-.41,1-.79,2-1.15,3a47.76,47.76,0,0,0-5.18-2.53c-.77-.32-1.55-.62-2.33-.89.4-.88.79-1.76,1.16-2.67a72.59,72.59,0,0,0-32.87-91.65A72.61,72.61,0,0,1,1480,642.75,72.6,72.6,0,0,0,1398.76,686.31Z"/><path class="cls-6" d="M1391.93,759.12q-.36-1.57-.78-3.12a46.83,46.83,0,0,0,5.7-.89c.82-.19,1.62-.39,2.42-.62q.26,1.43.57,2.85a72.6,72.6,0,0,0,79.52,56.2,72.61,72.61,0,0,1-128.92,27.85A72.6,72.6,0,0,0,1391.93,759.12Z"/><circle class="cls-2" cx="1366.5" cy="722.87" r="51.5"/><line class="cls-4" x1="1315" y1="723" x2="1080" y2="721"/><circle class="cls-5" cx="1039.14" cy="63.02" r="72.59"/><circle class="cls-5" cx="1039.95" cy="215.49" r="72.59"/><path class="cls-6" d="M1040,145.33c1.08,0,2.15,0,3.21.08a45.52,45.52,0,0,1-.37-5.75c0-.84,0-1.67.07-2.5q-1.45.06-2.91.06a72.6,72.6,0,0,1-72.23-65.3,72.61,72.61,0,0,0,1,131.89A72.61,72.61,0,0,1,1040,145.33Z"/><path class="cls-6" d="M1048.24,104.31c.41,1,.79,2,1.15,3a47.76,47.76,0,0,1,5.18-2.53c.77-.32,1.55-.62,2.33-.89-.4-.88-.79-1.76-1.16-2.67a72.59,72.59,0,0,1,32.87-91.65A72.61,72.61,0,0,0,967,60.75,72.6,72.6,0,0,1,1048.24,104.31Z"/><path class="cls-6" d="M1055.07,177.12q.36-1.58.78-3.12a46.83,46.83,0,0,1-5.7-.89c-.82-.19-1.62-.39-2.42-.62q-.26,1.42-.57,2.85a72.6,72.6,0,0,1-79.52,56.2,72.61,72.61,0,0,0,128.92,27.85A72.6,72.6,0,0,1,1055.07,177.12Z"/><circle class="cls-2" cx="1080.5" cy="140.87" r="51.5"/><line class="cls-4" x1="1132" y1="141" x2="1367" y2="139"/><circle class="cls-5" cx="1411.05" cy="22.49" r="72.59"/><path class="cls-6" d="M1411.05-47.67c-1.08,0-2.15,0-3.21.08a45.52,45.52,0,0,0,.37-5.75c0-.84,0-1.67-.07-2.5q1.45.06,2.91.06a72.6,72.6,0,0,0,72.23-65.3A72.59,72.59,0,0,1,1525-55.37a72.59,72.59,0,0,1-42.74,66.18A72.61,72.61,0,0,0,1411.05-47.67Z"/><path class="cls-6" d="M1395.93-15.88q-.36-1.57-.78-3.12a46.83,46.83,0,0,0,5.7-.89c.82-.19,1.62-.39,2.42-.62q.26,1.43.57,2.85a72.6,72.6,0,0,0,79.52,56.2,72.61,72.61,0,0,1-128.92,27.85A72.6,72.6,0,0,0,1395.93-15.88Z"/><circle class="cls-5" cx="1030.14" cy="840.02" r="72.59"/><circle class="cls-5" cx="1030.95" cy="992.49" r="72.59"/><path class="cls-6" d="M1031,922.33c1.08,0,2.15,0,3.21.08a45.52,45.52,0,0,1-.37-5.75c0-.84,0-1.67.07-2.5q-1.45.06-2.91.06a72.6,72.6,0,0,1-72.23-65.3,72.61,72.61,0,0,0,1,131.89A72.61,72.61,0,0,1,1031,922.33Z"/><path class="cls-6" d="M1039.24,881.31c.41,1,.79,2,1.15,3a47.76,47.76,0,0,1,5.18-2.53c.77-.32,1.55-.62,2.33-.89-.4-.88-.79-1.76-1.16-2.67a72.59,72.59,0,0,1,32.87-91.65A72.61,72.61,0,0,0,958,837.75,72.6,72.6,0,0,1,1039.24,881.31Z"/><path class="cls-6" d="M1046.07,954.12q.36-1.57.78-3.12a46.83,46.83,0,0,1-5.7-.89c-.82-.19-1.62-.39-2.42-.62q-.26,1.43-.57,2.85a72.6,72.6,0,0,1-79.52,56.2,72.61,72.61,0,0,0,128.92,27.85A72.6,72.6,0,0,1,1046.07,954.12Z"/><circle class="cls-2" cx="1071.5" cy="917.87" r="51.5"/><line class="cls-4" x1="1123" y1="918" x2="1358" y2="916"/><circle class="cls-5" cx="1784.86" cy="65.02" r="72.59"/><circle class="cls-5" cx="1784.05" cy="217.49" r="72.59"/><path class="cls-6" d="M1784.05,147.33c-1.08,0-2.15,0-3.21.08a45.52,45.52,0,0,0,.37-5.75c0-.84,0-1.67-.07-2.5q1.45.06,2.91.06a72.6,72.6,0,0,0,72.23-65.3,72.61,72.61,0,0,1-1,131.89A72.61,72.61,0,0,0,1784.05,147.33Z"/><path class="cls-6" d="M1775.76,106.31c-.41,1-.79,2-1.15,3a47.76,47.76,0,0,0-5.18-2.53c-.77-.32-1.55-.62-2.33-.89.4-.88.79-1.76,1.16-2.67a72.59,72.59,0,0,0-32.87-91.65A72.61,72.61,0,0,1,1857,62.75,72.6,72.6,0,0,0,1775.76,106.31Z"/><path class="cls-6" d="M1768.93,179.12q-.36-1.58-.78-3.12a46.83,46.83,0,0,0,5.7-.89c.82-.19,1.62-.39,2.42-.62q.26,1.42.57,2.85a72.6,72.6,0,0,0,79.52,56.2,72.61,72.61,0,0,1-128.92,27.85A72.6,72.6,0,0,0,1768.93,179.12Z"/><circle class="cls-2" cx="1743.5" cy="142.87" r="51.5"/><line class="cls-4" x1="1692" y1="143" x2="1457" y2="141"/><circle class="cls-5" cx="1791.14" cy="462.02" r="72.59"/><circle class="cls-5" cx="1791.95" cy="614.49" r="72.59"/><path class="cls-6" d="M1792,544.33c1.08,0,2.15,0,3.21.08a45.52,45.52,0,0,1-.37-5.75c0-.84,0-1.67.07-2.5q-1.45.06-2.91.06a72.6,72.6,0,0,1-72.23-65.3,72.61,72.61,0,0,0,1,131.89A72.61,72.61,0,0,1,1792,544.33Z"/><path class="cls-6" d="M1800.24,503.31c.41,1,.79,2,1.15,3a47.76,47.76,0,0,1,5.18-2.53c.77-.32,1.55-.62,2.33-.89-.4-.88-.79-1.76-1.16-2.67a72.59,72.59,0,0,1,32.87-91.65A72.61,72.61,0,0,0,1719,459.75,72.6,72.6,0,0,1,1800.24,503.31Z"/><path class="cls-6" d="M1807.07,576.12q.36-1.57.78-3.12a46.83,46.83,0,0,1-5.7-.89c-.82-.19-1.62-.39-2.42-.62q-.26,1.43-.57,2.85a72.6,72.6,0,0,1-79.52,56.2,72.61,72.61,0,0,0,128.92,27.85A72.6,72.6,0,0,1,1807.07,576.12Z"/><circle class="cls-2" cx="1832.5" cy="539.87" r="51.5"/><line class="cls-4" x1="1884" y1="540" x2="2119" y2="538"/><circle class="cls-5" cx="1770.86" cy="845.02" r="72.59"/><circle class="cls-5" cx="1770.05" cy="997.49" r="72.59"/><path class="cls-6" d="M1770.05,927.33c-1.08,0-2.15,0-3.21.08a45.52,45.52,0,0,0,.37-5.75c0-.84,0-1.67-.07-2.5q1.45.06,2.91.06a72.6,72.6,0,0,0,72.23-65.3,72.61,72.61,0,0,1-1,131.89A72.61,72.61,0,0,0,1770.05,927.33Z"/><path class="cls-6" d="M1761.76,886.31c-.41,1-.79,2-1.15,3a47.76,47.76,0,0,0-5.18-2.53c-.77-.32-1.55-.62-2.33-.89.4-.88.79-1.76,1.16-2.67a72.59,72.59,0,0,0-32.87-91.65A72.61,72.61,0,0,1,1843,842.75,72.6,72.6,0,0,0,1761.76,886.31Z"/><path class="cls-6" d="M1754.93,959.12q-.36-1.57-.78-3.12a46.83,46.83,0,0,0,5.7-.89c.82-.19,1.62-.39,2.42-.62q.26,1.43.57,2.85a72.6,72.6,0,0,0,79.52,56.2,72.61,72.61,0,0,1-128.92,27.85A72.6,72.6,0,0,0,1754.93,959.12Z"/><circle class="cls-2" cx="1729.5" cy="922.87" r="51.5"/><line class="cls-4" x1="1678" y1="923" x2="1443" y2="921"/><path class="cls-3" d="M2009,151l-59,3c-4.76,7.52-9.46,15.51-14,24a385.31,385.31,0,0,0-36,97,137.19,137.19,0,0,1-14,17,140.93,140.93,0,0,1-45,31l32,2a92.23,92.23,0,0,0,49-11c37.77-20.84,45.88-61.82,47-68a143.4,143.4,0,0,1,7-40A145.6,145.6,0,0,1,2009,151Z"/><path class="cls-3" d="M2009,132l-59-3c-4.76-7.52-9.46-15.51-14-24a385.31,385.31,0,0,1-36-97,137.19,137.19,0,0,0-14-17,140.93,140.93,0,0,0-45-31l32-2a92.23,92.23,0,0,1,49,11c37.77,20.84,45.88,61.82,47,68a143.4,143.4,0,0,0,7,40A145.6,145.6,0,0,0,2009,132Z"/><path class="cls-3" d="M2016.56,537.5l-59,3c-4.76,7.52-9.45,15.51-14,24a385.31,385.31,0,0,0-36,97,137.19,137.19,0,0,1-14,17,140.82,140.82,0,0,1-45,31l32,2a92.23,92.23,0,0,0,49-11c37.78-20.85,45.89-61.82,47-68a143.71,143.71,0,0,1,7-40A145.77,145.77,0,0,1,2016.56,537.5Z"/><path class="cls-3" d="M2016.56,518.5l-59-3c-4.76-7.52-9.45-15.51-14-24a385.31,385.31,0,0,1-36-97,137.19,137.19,0,0,0-14-17,140.82,140.82,0,0,0-45-31l32-2a92.23,92.23,0,0,1,49,11c37.78,20.84,45.89,61.82,47,68a143.77,143.77,0,0,0,7,40A145.86,145.86,0,0,0,2016.56,518.5Z"/><path class="cls-3" d="M2004.56,928l-59,3c-4.76,7.52-9.45,15.51-14,24a385.31,385.31,0,0,0-36,97,137.19,137.19,0,0,1-14,17,140.82,140.82,0,0,1-45,31l32,2a92.23,92.23,0,0,0,49-11c37.78-20.85,45.89-61.82,47-68a143.71,143.71,0,0,1,7-40A145.77,145.77,0,0,1,2004.56,928Z"/><path class="cls-3" d="M2004.56,909l-59-3c-4.76-7.52-9.45-15.51-14-24a385.31,385.31,0,0,1-36-97,137.19,137.19,0,0,0-14-17,140.82,140.82,0,0,0-45-31l32-2a92.23,92.23,0,0,1,49,11c37.78,20.84,45.89,61.82,47,68a143.77,143.77,0,0,0,7,40A145.86,145.86,0,0,0,2004.56,909Z"/><circle class="cls-5" cx="-50.86" cy="257.02" r="72.59"/><circle class="cls-5" cx="-50.05" cy="409.49" r="72.59"/><path class="cls-6" d="M-34.93,371.12q.36-1.58.78-3.12a46.83,46.83,0,0,1-5.7-.89c-.82-.19-1.62-.39-2.42-.62q-.25,1.42-.57,2.85a72.6,72.6,0,0,1-79.52,56.2,72.59,72.59,0,0,0,55,55.08A72.59,72.59,0,0,0,6.56,453.39,72.6,72.6,0,0,1-34.93,371.12Z"/><circle class="cls-2" cx="-9.5" cy="334.87" r="51.5"/><line class="cls-4" x1="42" y1="335" x2="277" y2="333"/><path class="cls-6" d="M-74.95,728.33c-1.08,0-2.15,0-3.21.08a45.52,45.52,0,0,0,.37-5.75c0-.84,0-1.67-.07-2.5q1.45.06,2.91.06a72.6,72.6,0,0,0,72.23-65.3A72.59,72.59,0,0,1,39,720.63,72.59,72.59,0,0,1-3.74,786.81,72.61,72.61,0,0,0-74.95,728.33Z"/></g></svg>