<svg xmlns="http://www.w3.org/2000/svg" viewBox="0 0 1919 1074"><defs><style>.cls-1{fill:#53657a;}.cls-2{fill:#3e4a54;}.cls-3{fill:#664217;}.cls-4{fill:#4e6047;}.cls-5{fill:#bca106;}.cls-6{fill:#404c3b;}</style></defs><title>Artboard 9</title><g id="Layer_7" data-name="Layer 7"><rect class="cls-1" width="1928" height="1093"/><path class="cls-2" d="M-2,149H45a120.27,120.27,0,0,1,27,29c19.2,29.14,20.33,59,20,72a141.05,141.05,0,0,0,10,24,146.71,146.71,0,0,0,44,50H127a62.61,62.61,0,0,1-16-3c-50.36-16.55-62.5-93.64-64-104a146,146,0,0,0-17-34A146.36,146.36,0,0,0-2,149Z"/><path class="cls-3" d="M69,152l59,3c4.76,7.52,9.46,15.51,14,24a385.31,385.31,0,0,1,36,97,137.19,137.19,0,0,0,14,17,140.93,140.93,0,0,0,45,31l-32,2a92.23,92.23,0,0,1-49-11c-37.77-20.84-45.88-61.82-47-68a143.4,143.4,0,0,0-7-40A145.6,145.6,0,0,0,69,152Z"/><path class="cls-2" d="M-2,136H45a120.27,120.27,0,0,0,27-29C91.2,77.86,92.33,48,92,35a141.05,141.05,0,0,1,10-24,146.71,146.71,0,0,1,44-50H127a62.61,62.61,0,0,0-16,3C60.64-19.45,48.5,57.64,47,68a146,146,0,0,1-17,34A146.36,146.36,0,0,1-2,136Z"/><path class="cls-4" d="M69,133l59-3c4.76-7.52,9.46-15.51,14-24A385.31,385.31,0,0,0,178,9,137.19,137.19,0,0,1,192-8a140.93,140.93,0,0,1,45-31l-32-2a92.23,92.23,0,0,0-49,11c-37.77,20.84-45.88,61.82-47,68a143.4,143.4,0,0,1-7,40A145.6,145.6,0,0,1,69,133Z"/><path class="cls-2" d="M579,149H532a120.27,120.27,0,0,0-27,29c-19.2,29.14-20.33,59-20,72a141.05,141.05,0,0,1-10,24,146.71,146.71,0,0,1-44,50h19a62.61,62.61,0,0,0,16-3c50.36-16.55,62.5-93.64,64-104a145.84,145.84,0,0,1,49-68Z"/><path class="cls-3" d="M508,152l-59,3c-4.76,7.52-9.46,15.51-14,24a385.31,385.31,0,0,0-36,97,137.19,137.19,0,0,1-14,17,140.93,140.93,0,0,1-45,31l32,2a92.23,92.23,0,0,0,49-11c37.77-20.84,45.88-61.82,47-68a143.4,143.4,0,0,1,7-40A145.6,145.6,0,0,1,508,152Z"/><path class="cls-2" d="M579,136H532a120.27,120.27,0,0,1-27-29c-19.2-29.14-20.33-59-20-72a141.05,141.05,0,0,0-10-24,146.71,146.71,0,0,0-44-50h19a62.61,62.61,0,0,1,16,3c50.36,16.55,62.5,93.64,64,104a146,146,0,0,0,17,34A146.36,146.36,0,0,0,579,136Z"/><path class="cls-3" d="M508,133l-59-3c-4.76-7.52-9.46-15.51-14-24A385.31,385.31,0,0,1,399,9,137.19,137.19,0,0,0,385-8a140.93,140.93,0,0,0-45-31l32-2a92.23,92.23,0,0,1,49,11c37.77,20.84,45.88,61.82,47,68a143.4,143.4,0,0,0,7,40A145.6,145.6,0,0,0,508,133Z"/><path class="cls-2" d="M-2,537H45a120.27,120.27,0,0,1,27,29c19.2,29.14,20.33,59,20,72a141.05,141.05,0,0,0,10,24,146.71,146.71,0,0,0,44,50H127a62.61,62.61,0,0,1-16-3c-50.36-16.55-62.5-93.64-64-104a146,146,0,0,0-17-34A146.36,146.36,0,0,0-2,537Z"/><path class="cls-3" d="M69,540l59,3c4.76,7.52,9.46,15.51,14,24a385.31,385.31,0,0,1,36,97,137.19,137.19,0,0,0,14,17,140.93,140.93,0,0,0,45,31l-32,2a92.23,92.23,0,0,1-49-11c-37.77-20.84-45.88-61.82-47-68a143.4,143.4,0,0,0-7-40A145.6,145.6,0,0,0,69,540Z"/><path class="cls-2" d="M-2,524H45a120.27,120.27,0,0,0,27-29c19.2-29.14,20.33-59,20-72a141.05,141.05,0,0,1,10-24,146.71,146.71,0,0,1,44-50H127a62.61,62.61,0,0,0-16,3c-50.36,16.55-62.5,93.64-64,104a146,146,0,0,1-17,34A146.36,146.36,0,0,1-2,524Z"/><path class="cls-3" d="M69,521l59-3c4.76-7.52,9.46-15.51,14-24a385.31,385.31,0,0,0,36-97,137.19,137.19,0,0,1,14-17,140.93,140.93,0,0,1,45-31l-32-2a92.23,92.23,0,0,0-49,11c-37.77,20.84-45.88,61.82-47,68a143.4,143.4,0,0,1-7,40A145.6,145.6,0,0,1,69,521Z"/><path class="cls-2" d="M579,537H532a120.27,120.27,0,0,0-27,29c-19.2,29.14-20.33,59-20,72a141.05,141.05,0,0,1-10,24,146.71,146.71,0,0,1-44,50h19a62.61,62.61,0,0,0,16-3c50.36-16.55,62.5-93.64,64-104a145.84,145.84,0,0,1,49-68Z"/><path class="cls-3" d="M508,540l-59,3c-4.76,7.52-9.46,15.51-14,24a385.31,385.31,0,0,0-36,97,137.19,137.19,0,0,1-14,17,140.93,140.93,0,0,1-45,31l32,2a92.23,92.23,0,0,0,49-11c37.77-20.84,45.88-61.82,47-68a143.4,143.4,0,0,1,7-40A145.6,145.6,0,0,1,508,540Z"/><path class="cls-2" d="M579,524H532a120.27,120.27,0,0,1-27-29c-19.2-29.14-20.33-59-20-72a141.05,141.05,0,0,0-10-24,146.71,146.71,0,0,0-44-50h19a62.61,62.61,0,0,1,16,3c50.36,16.55,62.5,93.64,64,104a145.84,145.84,0,0,0,49,68Z"/><path class="cls-2" d="M-9,927H38a120.27,120.27,0,0,1,27,29c19.2,29.14,20.33,59,20,72a141.05,141.05,0,0,0,10,24,146.71,146.71,0,0,0,44,50H120a62.61,62.61,0,0,1-16-3c-50.36-16.55-62.5-93.64-64-104a146,146,0,0,0-17-34A146.36,146.36,0,0,0-9,927Z"/><path class="cls-3" d="M62,930l59,3c4.76,7.52,9.46,15.51,14,24a385.31,385.31,0,0,1,36,97,137.19,137.19,0,0,0,14,17,140.93,140.93,0,0,0,45,31l-32,2a92.23,92.23,0,0,1-49-11c-37.77-20.84-45.88-61.82-47-68a143.4,143.4,0,0,0-7-40A145.6,145.6,0,0,0,62,930Z"/><path class="cls-2" d="M-9,914H38a120.27,120.27,0,0,0,27-29c19.2-29.14,20.33-59,20-72a141.05,141.05,0,0,1,10-24,146.71,146.71,0,0,1,44-50H120a62.61,62.61,0,0,0-16,3c-50.36,16.55-62.5,93.64-64,104a146,146,0,0,1-17,34A146.36,146.36,0,0,1-9,914Z"/><path class="cls-3" d="M62,911l59-3c4.76-7.52,9.46-15.51,14-24a385.31,385.31,0,0,0,36-97,137.19,137.19,0,0,1,14-17,140.93,140.93,0,0,1,45-31l-32-2a92.23,92.23,0,0,0-49,11c-37.77,20.84-45.88,61.82-47,68a143.4,143.4,0,0,1-7,40A145.6,145.6,0,0,1,62,911Z"/><path class="cls-2" d="M572,927H525a120.27,120.27,0,0,0-27,29c-19.2,29.14-20.33,59-20,72a141.05,141.05,0,0,1-10,24,146.71,146.71,0,0,1-44,50h19a62.61,62.61,0,0,0,16-3c50.36-16.55,62.5-93.64,64-104a145.84,145.84,0,0,1,49-68Z"/><path class="cls-3" d="M501,930l-59,3c-4.76,7.52-9.46,15.51-14,24a385.31,385.31,0,0,0-36,97,137.19,137.19,0,0,1-14,17,140.93,140.93,0,0,1-45,31l32,2a92.23,92.23,0,0,0,49-11c37.77-20.84,45.88-61.82,47-68a143.4,143.4,0,0,1,7-40A145.6,145.6,0,0,1,501,930Z"/><path class="cls-2" d="M572,914H525a120.27,120.27,0,0,1-27-29c-19.2-29.14-20.33-59-20-72a141.05,141.05,0,0,0-10-24,146.71,146.71,0,0,0-44-50h19a62.61,62.61,0,0,1,16,3c50.36,16.55,62.5,93.64,64,104a145.84,145.84,0,0,0,49,68Z"/><path class="cls-3" d="M501,911l-59-3c-4.76-7.52-9.46-15.51-14-24a385.31,385.31,0,0,1-36-97,137.19,137.19,0,0,0-14-17,140.93,140.93,0,0,0-45-31l32-2a92.23,92.23,0,0,1,49,11c37.77,20.84,45.88,61.82,47,68a143.4,143.4,0,0,0,7,40A145.6,145.6,0,0,0,501,911Z"/><path class="cls-2" d="M745,146h47a120.27,120.27,0,0,1,27,29c19.2,29.14,20.33,59,20,72a141.05,141.05,0,0,0,10,24,146.71,146.71,0,0,0,44,50H874a62.61,62.61,0,0,1-16-3c-50.36-16.55-62.5-93.64-64-104a145.84,145.84,0,0,0-49-68Z"/><path class="cls-3" d="M816,149l59,3c4.76,7.52,9.46,15.51,14,24a385.31,385.31,0,0,1,36,97,137.19,137.19,0,0,0,14,17,140.93,140.93,0,0,0,45,31l-32,2a92.23,92.23,0,0,1-49-11c-37.77-20.84-45.88-61.82-47-68a143.4,143.4,0,0,0-7-40A145.6,145.6,0,0,0,816,149Z"/><path class="cls-2" d="M745,133h47a120.27,120.27,0,0,0,27-29c19.2-29.14,20.33-59,20-72A141.05,141.05,0,0,1,849,8a146.71,146.71,0,0,1,44-50H874a62.61,62.61,0,0,0-16,3c-50.36,16.55-62.5,93.64-64,104a146,146,0,0,1-17,34A146.36,146.36,0,0,1,745,133Z"/><path class="cls-3" d="M816,130l59-3c4.76-7.52,9.46-15.51,14-24A385.31,385.31,0,0,0,925,6a137.19,137.19,0,0,1,14-17,140.93,140.93,0,0,1,45-31l-32-2a92.23,92.23,0,0,0-49,11c-37.77,20.84-45.88,61.82-47,68a143.4,143.4,0,0,1-7,40A145.6,145.6,0,0,1,816,130Z"/><path class="cls-2" d="M1326,146h-47a120.27,120.27,0,0,0-27,29c-19.2,29.14-20.33,59-20,72a141.05,141.05,0,0,1-10,24,146.71,146.71,0,0,1-44,50h19a62.61,62.61,0,0,0,16-3c50.36-16.55,62.5-93.64,64-104a145.84,145.84,0,0,1,49-68Z"/><path class="cls-3" d="M1255,149l-59,3c-4.76,7.52-9.46,15.51-14,24a385.31,385.31,0,0,0-36,97,137.19,137.19,0,0,1-14,17,140.93,140.93,0,0,1-45,31l32,2a92.23,92.23,0,0,0,49-11c37.77-20.84,45.88-61.82,47-68a143.4,143.4,0,0,1,7-40A145.6,145.6,0,0,1,1255,149Z"/><path class="cls-2" d="M1326,133h-47a120.27,120.27,0,0,1-27-29c-19.2-29.14-20.33-59-20-72a141.05,141.05,0,0,0-10-24,146.71,146.71,0,0,0-44-50h19a62.61,62.61,0,0,1,16,3c50.36,16.55,62.5,93.64,64,104a146,146,0,0,0,17,34A146.36,146.36,0,0,0,1326,133Z"/><path class="cls-3" d="M1255,130l-59-3c-4.76-7.52-9.46-15.51-14-24a385.31,385.31,0,0,1-36-97,137.19,137.19,0,0,0-14-17,140.93,140.93,0,0,0-45-31l32-2a92.23,92.23,0,0,1,49,11c37.77,20.84,45.88,61.82,47,68a143.4,143.4,0,0,0,7,40A145.6,145.6,0,0,0,1255,130Z"/><path class="cls-2" d="M745,534h47a120.27,120.27,0,0,1,27,29c19.2,29.14,20.33,59,20,72a141.05,141.05,0,0,0,10,24,146.71,146.71,0,0,0,44,50H874a62.61,62.61,0,0,1-16-3c-50.36-16.55-62.5-93.64-64-104a145.84,145.84,0,0,0-49-68Z"/><path class="cls-3" d="M816,537l59,3c4.76,7.52,9.46,15.51,14,24a385.31,385.31,0,0,1,36,97,137.19,137.19,0,0,0,14,17,140.93,140.93,0,0,0,45,31l-32,2a92.23,92.23,0,0,1-49-11c-37.77-20.84-45.88-61.82-47-68a143.4,143.4,0,0,0-7-40A145.6,145.6,0,0,0,816,537Z"/><path class="cls-2" d="M745,521h47a120.27,120.27,0,0,0,27-29c19.2-29.14,20.33-59,20-72a141.05,141.05,0,0,1,10-24,146.71,146.71,0,0,1,44-50H874a62.61,62.61,0,0,0-16,3c-50.36,16.55-62.5,93.64-64,104a145.84,145.84,0,0,1-49,68Z"/><path class="cls-3" d="M816,518l59-3c4.76-7.52,9.46-15.51,14-24a385.31,385.31,0,0,0,36-97,137.19,137.19,0,0,1,14-17,140.93,140.93,0,0,1,45-31l-32-2a92.23,92.23,0,0,0-49,11c-37.77,20.84-45.88,61.82-47,68a143.4,143.4,0,0,1-7,40A145.6,145.6,0,0,1,816,518Z"/><path class="cls-2" d="M1326,534h-47a120.27,120.27,0,0,0-27,29c-19.2,29.14-20.33,59-20,72a141.05,141.05,0,0,1-10,24,146.71,146.71,0,0,1-44,50h19a62.61,62.61,0,0,0,16-3c50.36-16.55,62.5-93.64,64-104a145.84,145.84,0,0,1,49-68Z"/><path class="cls-3" d="M1255,537l-59,3c-4.76,7.52-9.46,15.51-14,24a385.31,385.31,0,0,0-36,97,137.19,137.19,0,0,1-14,17,140.93,140.93,0,0,1-45,31l32,2a92.23,92.23,0,0,0,49-11c37.77-20.84,45.88-61.82,47-68a143.4,143.4,0,0,1,7-40A145.6,145.6,0,0,1,1255,537Z"/><path class="cls-2" d="M1326,521h-47a120.27,120.27,0,0,1-27-29c-19.2-29.14-20.33-59-20-72a141.05,141.05,0,0,0-10-24,146.71,146.71,0,0,0-44-50h19a62.61,62.61,0,0,1,16,3c50.36,16.55,62.5,93.64,64,104a145.84,145.84,0,0,0,49,68Z"/><path class="cls-3" d="M1255,518l-59-3c-4.76-7.52-9.46-15.51-14-24a385.31,385.31,0,0,1-36-97,137.19,137.19,0,0,0-14-17,140.93,140.93,0,0,0-45-31l32-2a92.23,92.23,0,0,1,49,11c37.77,20.84,45.88,61.82,47,68a143.4,143.4,0,0,0,7,40A145.6,145.6,0,0,0,1255,518Z"/><path class="cls-2" d="M738,924h47a120.27,120.27,0,0,1,27,29c19.2,29.14,20.33,59,20,72a141.05,141.05,0,0,0,10,24,146.71,146.71,0,0,0,44,50H867a62.61,62.61,0,0,1-16-3c-50.36-16.55-62.5-93.64-64-104a145.84,145.84,0,0,0-49-68Z"/><path class="cls-3" d="M809,927l59,3c4.76,7.52,9.46,15.51,14,24a385.31,385.31,0,0,1,36,97,137.19,137.19,0,0,0,14,17,140.93,140.93,0,0,0,45,31l-32,2a92.23,92.23,0,0,1-49-11c-37.77-20.84-45.88-61.82-47-68a143.4,143.4,0,0,0-7-40A145.6,145.6,0,0,0,809,927Z"/><path class="cls-2" d="M738,911h47a120.27,120.27,0,0,0,27-29c19.2-29.14,20.33-59,20-72a141.05,141.05,0,0,1,10-24,146.71,146.71,0,0,1,44-50H867a62.61,62.61,0,0,0-16,3c-50.36,16.55-62.5,93.64-64,104a145.84,145.84,0,0,1-49,68Z"/><path class="cls-3" d="M809,908l59-3c4.76-7.52,9.46-15.51,14-24a385.31,385.31,0,0,0,36-97,137.19,137.19,0,0,1,14-17,140.93,140.93,0,0,1,45-31l-32-2a92.23,92.23,0,0,0-49,11c-37.77,20.84-45.88,61.82-47,68a143.4,143.4,0,0,1-7,40A145.6,145.6,0,0,1,809,908Z"/><path class="cls-2" d="M1319,924h-47a120.27,120.27,0,0,0-27,29c-19.2,29.14-20.33,59-20,72a141.05,141.05,0,0,1-10,24,146.71,146.71,0,0,1-44,50h19a62.61,62.61,0,0,0,16-3c50.36-16.55,62.5-93.64,64-104a145.84,145.84,0,0,1,49-68Z"/><path class="cls-3" d="M1248,927l-59,3c-4.76,7.52-9.46,15.51-14,24a385.31,385.31,0,0,0-36,97,137.19,137.19,0,0,1-14,17,140.93,140.93,0,0,1-45,31l32,2a92.23,92.23,0,0,0,49-11c37.77-20.84,45.88-61.82,47-68a143.4,143.4,0,0,1,7-40A145.6,145.6,0,0,1,1248,927Z"/><path class="cls-2" d="M1319,911h-47a120.27,120.27,0,0,1-27-29c-19.2-29.14-20.33-59-20-72a141.05,141.05,0,0,0-10-24,146.71,146.71,0,0,0-44-50h19a62.61,62.61,0,0,1,16,3c50.36,16.55,62.5,93.64,64,104a145.84,145.84,0,0,0,49,68Z"/><path class="cls-3" d="M1248,908l-59-3c-4.76-7.52-9.46-15.51-14-24a385.31,385.31,0,0,1-36-97,137.19,137.19,0,0,0-14-17,140.93,140.93,0,0,0-45-31l32-2a92.23,92.23,0,0,1,49,11c37.77,20.84,45.88,61.82,47,68a143.4,143.4,0,0,0,7,40A145.6,145.6,0,0,0,1248,908Z"/><path class="cls-2" d="M1490,148h47a120.27,120.27,0,0,1,27,29c19.2,29.14,20.33,59,20,72a141.05,141.05,0,0,0,10,24,146.71,146.71,0,0,0,44,50h-19a62.61,62.61,0,0,1-16-3c-50.36-16.55-62.5-93.64-64-104a145.84,145.84,0,0,0-49-68Z"/><path class="cls-3" d="M1561,151l59,3c4.76,7.52,9.46,15.51,14,24a385.31,385.31,0,0,1,36,97,137.19,137.19,0,0,0,14,17,140.93,140.93,0,0,0,45,31l-32,2a92.23,92.23,0,0,1-49-11c-37.77-20.84-45.88-61.82-47-68a143.4,143.4,0,0,0-7-40A145.6,145.6,0,0,0,1561,151Z"/><path class="cls-2" d="M1490,135h47a120.27,120.27,0,0,0,27-29c19.2-29.14,20.33-59,20-72a141.05,141.05,0,0,1,10-24,146.71,146.71,0,0,1,44-50h-19a62.61,62.61,0,0,0-16,3c-50.36,16.55-62.5,93.64-64,104a146,146,0,0,1-17,34A146.36,146.36,0,0,1,1490,135Z"/><path class="cls-3" d="M1561,132l59-3c4.76-7.52,9.46-15.51,14-24a385.31,385.31,0,0,0,36-97,137.19,137.19,0,0,1,14-17,140.93,140.93,0,0,1,45-31l-32-2a92.23,92.23,0,0,0-49,11c-37.77,20.84-45.88,61.82-47,68a143.4,143.4,0,0,1-7,40A145.6,145.6,0,0,1,1561,132Z"/><path class="cls-2" d="M1490,536h47a120.27,120.27,0,0,1,27,29c19.2,29.14,20.33,59,20,72a141.05,141.05,0,0,0,10,24,146.71,146.71,0,0,0,44,50h-19a62.61,62.61,0,0,1-16-3c-50.36-16.55-62.5-93.64-64-104a145.84,145.84,0,0,0-49-68Z"/><path class="cls-3" d="M1561,539l59,3c4.76,7.52,9.46,15.51,14,24a385.31,385.31,0,0,1,36,97,137.19,137.19,0,0,0,14,17,140.93,140.93,0,0,0,45,31l-32,2a92.23,92.23,0,0,1-49-11c-37.77-20.84-45.88-61.82-47-68a143.4,143.4,0,0,0-7-40A145.6,145.6,0,0,0,1561,539Z"/><path class="cls-2" d="M1490,523h47a120.27,120.27,0,0,0,27-29c19.2-29.14,20.33-59,20-72a141.05,141.05,0,0,1,10-24,146.71,146.71,0,0,1,44-50h-19a62.61,62.61,0,0,0-16,3c-50.36,16.55-62.5,93.64-64,104a145.84,145.84,0,0,1-49,68Z"/><path class="cls-3" d="M1561,520l59-3c4.76-7.52,9.46-15.51,14-24a385.31,385.31,0,0,0,36-97,137.19,137.19,0,0,1,14-17,140.93,140.93,0,0,1,45-31l-32-2a92.23,92.23,0,0,0-49,11c-37.77,20.84-45.88,61.82-47,68a143.4,143.4,0,0,1-7,40A145.6,145.6,0,0,1,1561,520Z"/><path class="cls-2" d="M1483,926h47a120.27,120.27,0,0,1,27,29c19.2,29.14,20.33,59,20,72a141.05,141.05,0,0,0,10,24,146.71,146.71,0,0,0,44,50h-19a62.61,62.61,0,0,1-16-3c-50.36-16.55-62.5-93.64-64-104a145.84,145.84,0,0,0-49-68Z"/><path class="cls-3" d="M1554,929l59,3c4.76,7.52,9.46,15.51,14,24a385.31,385.31,0,0,1,36,97,137.19,137.19,0,0,0,14,17,140.93,140.93,0,0,0,45,31l-32,2a92.23,92.23,0,0,1-49-11c-37.77-20.84-45.88-61.82-47-68a143.4,143.4,0,0,0-7-40A145.6,145.6,0,0,0,1554,929Z"/><path class="cls-2" d="M1483,913h47a120.27,120.27,0,0,0,27-29c19.2-29.14,20.33-59,20-72a141.05,141.05,0,0,1,10-24,146.71,146.71,0,0,1,44-50h-19a62.61,62.61,0,0,0-16,3c-50.36,16.55-62.5,93.64-64,104a145.84,145.84,0,0,1-49,68Z"/><path class="cls-3" d="M1554,910l59-3c4.76-7.52,9.46-15.51,14-24a385.31,385.31,0,0,0,36-97,137.19,137.19,0,0,1,14-17,140.93,140.93,0,0,1,45-31l-32-2a92.23,92.23,0,0,0-49,11c-37.77,20.84-45.88,61.82-47,68a143.4,143.4,0,0,1-7,40A145.6,145.6,0,0,1,1554,910Z"/><path class="cls-3" d="M508,521l-59-3c-4.76-7.52-9.46-15.51-14-24a385.31,385.31,0,0,1-36-97,137.19,137.19,0,0,0-14-17,140.93,140.93,0,0,0-45-31l32-2a92.23,92.23,0,0,1,49,11c37.77,20.84,45.88,61.82,47,68a143.4,143.4,0,0,0,7,40A145.6,145.6,0,0,0,508,521Z"/><circle class="cls-5" cx="297.14" cy="454.02" r="72.59"/><circle class="cls-5" cx="297.95" cy="606.49" r="72.59"/><path class="cls-2" d="M298,536.33c1.08,0,2.15,0,3.21.08a45.52,45.52,0,0,1-.37-5.75c0-.84,0-1.67.07-2.5q-1.46.06-2.91.06a72.6,72.6,0,0,1-72.23-65.3,72.61,72.61,0,0,0,1,131.89A72.61,72.61,0,0,1,298,536.33Z"/><path class="cls-2" d="M306.24,495.31c.41,1,.79,2,1.15,3a47.76,47.76,0,0,1,5.18-2.53c.77-.32,1.55-.62,2.33-.89-.4-.88-.79-1.76-1.16-2.67a72.59,72.59,0,0,1,32.87-91.65A72.61,72.61,0,0,0,225,451.75,72.6,72.6,0,0,1,306.24,495.31Z"/><path class="cls-2" d="M313.07,568.12q.36-1.57.78-3.12a46.83,46.83,0,0,1-5.7-.89c-.82-.19-1.62-.39-2.42-.62q-.25,1.43-.57,2.85a72.6,72.6,0,0,1-79.52,56.2,72.61,72.61,0,0,0,128.92,27.85A72.6,72.6,0,0,1,313.07,568.12Z"/><circle class="cls-6" cx="338.5" cy="531.87" r="51.5"/><line class="cls-4" x1="390" y1="532" x2="625" y2="530"/><path class="cls-3" d="M66,131l59-3c4.76-7.52,9.46-15.51,14-24A385.31,385.31,0,0,0,175,7a137.19,137.19,0,0,1,14-17,140.93,140.93,0,0,1,45-31l-32-2a92.23,92.23,0,0,0-49,11c-37.77,20.84-45.88,61.82-47,68a143.4,143.4,0,0,1-7,40A145.6,145.6,0,0,1,66,131Z"/><circle class="cls-5" cx="276.86" cy="64.02" r="72.59"/><circle class="cls-5" cx="276.05" cy="216.49" r="72.59"/><path class="cls-2" d="M276.05,146.33c-1.08,0-2.15,0-3.21.08a45.52,45.52,0,0,0,.37-5.75c0-.84,0-1.67-.07-2.5q1.46.06,2.91.06a72.6,72.6,0,0,0,72.23-65.3,72.61,72.61,0,0,1-1,131.89A72.61,72.61,0,0,0,276.05,146.33Z"/><path class="cls-2" d="M267.76,105.31c-.41,1-.79,2-1.15,3a47.76,47.76,0,0,0-5.18-2.53c-.77-.32-1.55-.62-2.33-.89.4-.88.79-1.76,1.16-2.67a72.59,72.59,0,0,0-32.87-91.65A72.61,72.61,0,0,1,349,61.75,72.6,72.6,0,0,0,267.76,105.31Z"/><path class="cls-2" d="M260.93,178.12q-.36-1.58-.78-3.12a46.83,46.83,0,0,0,5.7-.89c.82-.19,1.62-.39,2.42-.62q.25,1.42.57,2.85a72.6,72.6,0,0,0,79.52,56.2,72.61,72.61,0,0,1-128.92,27.85A72.6,72.6,0,0,0,260.93,178.12Z"/><circle class="cls-6" cx="235.5" cy="141.87" r="51.5"/><line class="cls-4" x1="184" y1="142" x2="-51" y2="140"/><circle class="cls-5" cx="278.86" cy="843.02" r="72.59"/><circle class="cls-5" cx="278.05" cy="995.49" r="72.59"/><path class="cls-2" d="M278.05,925.33c-1.08,0-2.15,0-3.21.08a45.52,45.52,0,0,0,.37-5.75c0-.84,0-1.67-.07-2.5q1.46.06,2.91.06a72.6,72.6,0,0,0,72.23-65.3,72.61,72.61,0,0,1-1,131.89A72.61,72.61,0,0,0,278.05,925.33Z"/><path class="cls-2" d="M269.76,884.31c-.41,1-.79,2-1.15,3a47.76,47.76,0,0,0-5.18-2.53c-.77-.32-1.55-.62-2.33-.89.4-.88.79-1.76,1.16-2.67a72.59,72.59,0,0,0-32.87-91.65A72.61,72.61,0,0,1,351,840.75,72.6,72.6,0,0,0,269.76,884.31Z"/><path class="cls-2" d="M262.93,957.12q-.36-1.57-.78-3.12a46.83,46.83,0,0,0,5.7-.89c.82-.19,1.62-.39,2.42-.62q.25,1.43.57,2.85a72.6,72.6,0,0,0,79.52,56.2,72.61,72.61,0,0,1-128.92,27.85A72.6,72.6,0,0,0,262.93,957.12Z"/><circle class="cls-6" cx="237.5" cy="920.87" r="51.5"/><line class="cls-4" x1="186" y1="921" x2="-49" y2="919"/><circle class="cls-5" cx="654.86" cy="260.02" r="72.59"/><circle class="cls-5" cx="654.05" cy="412.49" r="72.59"/><path class="cls-2" d="M654.05,342.33c-1.08,0-2.15,0-3.21.08a45.52,45.52,0,0,0,.37-5.75c0-.84,0-1.67-.07-2.5q1.46.06,2.91.06a72.6,72.6,0,0,0,72.23-65.3,72.61,72.61,0,0,1-1,131.89A72.61,72.61,0,0,0,654.05,342.33Z"/><path class="cls-2" d="M645.76,301.31c-.41,1-.79,2-1.15,3a47.76,47.76,0,0,0-5.18-2.53c-.77-.32-1.55-.62-2.33-.89.4-.88.79-1.76,1.16-2.67a72.59,72.59,0,0,0-32.87-91.65A72.61,72.61,0,0,1,727,257.75,72.6,72.6,0,0,0,645.76,301.31Z"/><path class="cls-2" d="M638.93,374.12q-.36-1.58-.78-3.12a46.83,46.83,0,0,0,5.7-.89c.82-.19,1.62-.39,2.42-.62q.26,1.42.57,2.85a72.6,72.6,0,0,0,79.52,56.2,72.61,72.61,0,0,1-128.92,27.85A72.6,72.6,0,0,0,638.93,374.12Z"/><circle class="cls-6" cx="613.5" cy="337.87" r="51.5"/><line class="cls-4" x1="562" y1="338" x2="327" y2="336"/><circle class="cls-5" cx="661.14" cy="646.02" r="72.59"/><circle class="cls-5" cx="661.95" cy="798.49" r="72.59"/><path class="cls-2" d="M662,728.33c1.08,0,2.15,0,3.21.08a45.52,45.52,0,0,1-.37-5.75c0-.84,0-1.67.07-2.5q-1.46.06-2.91.06a72.6,72.6,0,0,1-72.23-65.3,72.61,72.61,0,0,0,1,131.89A72.61,72.61,0,0,1,662,728.33Z"/><path class="cls-2" d="M670.24,687.31c.41,1,.79,2,1.15,3a47.76,47.76,0,0,1,5.18-2.53c.77-.32,1.55-.62,2.33-.89-.4-.88-.79-1.76-1.16-2.67a72.59,72.59,0,0,1,32.87-91.65A72.61,72.61,0,0,0,589,643.75,72.6,72.6,0,0,1,670.24,687.31Z"/><path class="cls-2" d="M677.07,760.12q.36-1.57.78-3.12a46.83,46.83,0,0,1-5.7-.89c-.82-.19-1.62-.39-2.42-.62q-.26,1.43-.57,2.85a72.6,72.6,0,0,1-79.52,56.2,72.61,72.61,0,0,0,128.92,27.85A72.6,72.6,0,0,1,677.07,760.12Z"/><circle class="cls-6" cx="702.5" cy="723.87" r="51.5"/><line class="cls-4" x1="754" y1="724" x2="989" y2="722"/><circle class="cls-5" cx="661.95" cy="18.49" r="72.59"/><path class="cls-2" d="M662-51.67c1.08,0,2.15,0,3.21.08a45.52,45.52,0,0,1-.37-5.75c0-.84,0-1.67.07-2.5q-1.46.06-2.91.06a72.6,72.6,0,0,1-72.23-65.3A72.59,72.59,0,0,0,548-59.37,72.59,72.59,0,0,0,590.74,6.81,72.61,72.61,0,0,1,662-51.67Z"/><path class="cls-2" d="M677.07-19.88q.36-1.57.78-3.12a46.83,46.83,0,0,1-5.7-.89c-.82-.19-1.62-.39-2.42-.62q-.26,1.43-.57,2.85a72.6,72.6,0,0,1-79.52,56.2A72.61,72.61,0,0,0,718.56,62.39,72.6,72.6,0,0,1,677.07-19.88Z"/><circle class="cls-5" cx="654.86" cy="1037.02" r="72.59"/><path class="cls-2" d="M654.05,1119.33c-1.08,0-2.15,0-3.21.08a45.52,45.52,0,0,0,.37-5.75c0-.84,0-1.67-.07-2.5q1.46.06,2.91.06a72.6,72.6,0,0,0,72.23-65.3,72.61,72.61,0,0,1-1,131.89A72.61,72.61,0,0,0,654.05,1119.33Z"/><path class="cls-2" d="M645.76,1078.31c-.41,1-.79,2-1.15,3a47.76,47.76,0,0,0-5.18-2.53c-.77-.32-1.55-.62-2.33-.89.4-.88.79-1.76,1.16-2.67a72.59,72.59,0,0,0-32.87-91.65A72.61,72.61,0,0,1,727,1034.75,72.6,72.6,0,0,0,645.76,1078.31Z"/><circle class="cls-6" cx="613.5" cy="1114.87" r="51.5"/><circle class="cls-5" cx="1030.86" cy="450.02" r="72.59"/><circle class="cls-5" cx="1030.05" cy="602.49" r="72.59"/><path class="cls-2" d="M1030.05,532.33c-1.08,0-2.15,0-3.21.08a45.52,45.52,0,0,0,.37-5.75c0-.84,0-1.67-.07-2.5q1.45.06,2.91.06a72.6,72.6,0,0,0,72.23-65.3,72.61,72.61,0,0,1-1,131.89A72.61,72.61,0,0,0,1030.05,532.33Z"/><path class="cls-2" d="M1021.76,491.31c-.41,1-.79,2-1.15,3a47.76,47.76,0,0,0-5.18-2.53c-.77-.32-1.55-.62-2.33-.89.4-.88.79-1.76,1.16-2.67a72.59,72.59,0,0,0-32.87-91.65A72.61,72.61,0,0,1,1103,447.75,72.6,72.6,0,0,0,1021.76,491.31Z"/><path class="cls-2" d="M1014.93,564.12q-.36-1.57-.78-3.12a46.83,46.83,0,0,0,5.7-.89c.82-.19,1.62-.39,2.42-.62q.26,1.43.57,2.85a72.6,72.6,0,0,0,79.52,56.2,72.61,72.61,0,0,1-128.92,27.85A72.6,72.6,0,0,0,1014.93,564.12Z"/><circle class="cls-6" cx="989.5" cy="527.87" r="51.5"/><line class="cls-4" x1="938" y1="528" x2="703" y2="526"/><circle class="cls-5" cx="1419.14" cy="258.02" r="72.59"/><circle class="cls-5" cx="1419.95" cy="410.49" r="72.59"/><path class="cls-2" d="M1420,340.33c1.08,0,2.15,0,3.21.08a45.52,45.52,0,0,1-.37-5.75c0-.84,0-1.67.07-2.5q-1.45.06-2.91.06a72.6,72.6,0,0,1-72.23-65.3,72.61,72.61,0,0,0,1,131.89A72.61,72.61,0,0,1,1420,340.33Z"/><path class="cls-2" d="M1428.24,299.31c.41,1,.79,2,1.15,3a47.76,47.76,0,0,1,5.18-2.53c.77-.32,1.55-.62,2.33-.89-.4-.88-.79-1.76-1.16-2.67a72.59,72.59,0,0,1,32.87-91.65A72.61,72.61,0,0,0,1347,255.75,72.6,72.6,0,0,1,1428.24,299.31Z"/><path class="cls-2" d="M1435.07,372.12q.36-1.58.78-3.12a46.83,46.83,0,0,1-5.7-.89c-.82-.19-1.62-.39-2.42-.62q-.26,1.42-.57,2.85a72.6,72.6,0,0,1-79.52,56.2,72.61,72.61,0,0,0,128.92,27.85A72.6,72.6,0,0,1,1435.07,372.12Z"/><circle class="cls-6" cx="1460.5" cy="335.87" r="51.5"/><line class="cls-4" x1="1512" y1="336" x2="1747" y2="334"/><circle class="cls-5" cx="1405.14" cy="1027.02" r="72.59"/><path class="cls-2" d="M1406,1109.33c1.08,0,2.15,0,3.21.08a45.52,45.52,0,0,1-.37-5.75c0-.84,0-1.67.07-2.5q-1.45.06-2.91.06a72.6,72.6,0,0,1-72.23-65.3,72.61,72.61,0,0,0,1,131.89A72.61,72.61,0,0,1,1406,1109.33Z"/><path class="cls-2" d="M1414.24,1068.31c.41,1,.79,2,1.15,3a47.76,47.76,0,0,1,5.18-2.53c.77-.32,1.55-.62,2.33-.89-.4-.88-.79-1.76-1.16-2.67a72.59,72.59,0,0,1,32.87-91.65A72.61,72.61,0,0,0,1333,1024.75,72.6,72.6,0,0,1,1414.24,1068.31Z"/><circle class="cls-6" cx="1446.5" cy="1104.87" r="51.5"/><circle class="cls-5" cx="1405.86" cy="644.02" r="72.59"/><circle class="cls-5" cx="1405.05" cy="796.49" r="72.59"/><path class="cls-2" d="M1405.05,726.33c-1.08,0-2.15,0-3.21.08a45.52,45.52,0,0,0,.37-5.75c0-.84,0-1.67-.07-2.5q1.45.06,2.91.06a72.6,72.6,0,0,0,72.23-65.3,72.61,72.61,0,0,1-1,131.89A72.61,72.61,0,0,0,1405.05,726.33Z"/><path class="cls-2" d="M1396.76,685.31c-.41,1-.79,2-1.15,3a47.76,47.76,0,0,0-5.18-2.53c-.77-.32-1.55-.62-2.33-.89.4-.88.79-1.76,1.16-2.67a72.59,72.59,0,0,0-32.87-91.65A72.61,72.61,0,0,1,1478,641.75,72.6,72.6,0,0,0,1396.76,685.31Z"/><path class="cls-2" d="M1389.93,758.12q-.36-1.57-.78-3.12a46.83,46.83,0,0,0,5.7-.89c.82-.19,1.62-.39,2.42-.62q.26,1.43.57,2.85a72.6,72.6,0,0,0,79.52,56.2,72.61,72.61,0,0,1-128.92,27.85A72.6,72.6,0,0,0,1389.93,758.12Z"/><circle class="cls-6" cx="1364.5" cy="721.87" r="51.5"/><line class="cls-4" x1="1313" y1="722" x2="1078" y2="720"/><circle class="cls-5" cx="1037.14" cy="62.02" r="72.59"/><circle class="cls-5" cx="1037.95" cy="214.49" r="72.59"/><path class="cls-2" d="M1038,144.33c1.08,0,2.15,0,3.21.08a45.52,45.52,0,0,1-.37-5.75c0-.84,0-1.67.07-2.5q-1.45.06-2.91.06a72.6,72.6,0,0,1-72.23-65.3,72.61,72.61,0,0,0,1,131.89A72.61,72.61,0,0,1,1038,144.33Z"/><path class="cls-2" d="M1046.24,103.31c.41,1,.79,2,1.15,3a47.76,47.76,0,0,1,5.18-2.53c.77-.32,1.55-.62,2.33-.89-.4-.88-.79-1.76-1.16-2.67a72.59,72.59,0,0,1,32.87-91.65A72.61,72.61,0,0,0,965,59.75,72.6,72.6,0,0,1,1046.24,103.31Z"/><path class="cls-2" d="M1053.07,176.12q.36-1.58.78-3.12a46.83,46.83,0,0,1-5.7-.89c-.82-.19-1.62-.39-2.42-.62q-.26,1.42-.57,2.85a72.6,72.6,0,0,1-79.52,56.2,72.61,72.61,0,0,0,128.92,27.85A72.6,72.6,0,0,1,1053.07,176.12Z"/><circle class="cls-6" cx="1078.5" cy="139.87" r="51.5"/><line class="cls-4" x1="1130" y1="140" x2="1365" y2="138"/><circle class="cls-5" cx="1409.05" cy="21.49" r="72.59"/><path class="cls-2" d="M1409.05-48.67c-1.08,0-2.15,0-3.21.08a45.52,45.52,0,0,0,.37-5.75c0-.84,0-1.67-.07-2.5q1.45.06,2.91.06a72.6,72.6,0,0,0,72.23-65.3A72.59,72.59,0,0,1,1523-56.37a72.59,72.59,0,0,1-42.74,66.18A72.61,72.61,0,0,0,1409.05-48.67Z"/><path class="cls-2" d="M1393.93-16.88q-.36-1.57-.78-3.12a46.83,46.83,0,0,0,5.7-.89c.82-.19,1.62-.39,2.42-.62q.26,1.43.57,2.85a72.6,72.6,0,0,0,79.52,56.2,72.61,72.61,0,0,1-128.92,27.85A72.6,72.6,0,0,0,1393.93-16.88Z"/><circle class="cls-5" cx="1028.14" cy="839.02" r="72.59"/><circle class="cls-5" cx="1028.95" cy="991.49" r="72.59"/><path class="cls-2" d="M1029,921.33c1.08,0,2.15,0,3.21.08a45.52,45.52,0,0,1-.37-5.75c0-.84,0-1.67.07-2.5q-1.45.06-2.91.06a72.6,72.6,0,0,1-72.23-65.3,72.61,72.61,0,0,0,1,131.89A72.61,72.61,0,0,1,1029,921.33Z"/><path class="cls-2" d="M1037.24,880.31c.41,1,.79,2,1.15,3a47.76,47.76,0,0,1,5.18-2.53c.77-.32,1.55-.62,2.33-.89-.4-.88-.79-1.76-1.16-2.67a72.59,72.59,0,0,1,32.87-91.65A72.61,72.61,0,0,0,956,836.75,72.6,72.6,0,0,1,1037.24,880.31Z"/><path class="cls-2" d="M1044.07,953.12q.36-1.57.78-3.12a46.83,46.83,0,0,1-5.7-.89c-.82-.19-1.62-.39-2.42-.62q-.26,1.43-.57,2.85a72.6,72.6,0,0,1-79.52,56.2,72.61,72.61,0,0,0,128.92,27.85A72.6,72.6,0,0,1,1044.07,953.12Z"/><circle class="cls-6" cx="1069.5" cy="916.87" r="51.5"/><line class="cls-4" x1="1121" y1="917" x2="1356" y2="915"/><circle class="cls-5" cx="1782.86" cy="64.02" r="72.59"/><circle class="cls-5" cx="1782.05" cy="216.49" r="72.59"/><path class="cls-2" d="M1782.05,146.33c-1.08,0-2.15,0-3.21.08a45.52,45.52,0,0,0,.37-5.75c0-.84,0-1.67-.07-2.5q1.45.06,2.91.06a72.6,72.6,0,0,0,72.23-65.3,72.61,72.61,0,0,1-1,131.89A72.61,72.61,0,0,0,1782.05,146.33Z"/><path class="cls-2" d="M1773.76,105.31c-.41,1-.79,2-1.15,3a47.76,47.76,0,0,0-5.18-2.53c-.77-.32-1.55-.62-2.33-.89.4-.88.79-1.76,1.16-2.67a72.59,72.59,0,0,0-32.87-91.65A72.61,72.61,0,0,1,1855,61.75,72.6,72.6,0,0,0,1773.76,105.31Z"/><path class="cls-2" d="M1766.93,178.12q-.36-1.58-.78-3.12a46.83,46.83,0,0,0,5.7-.89c.82-.19,1.62-.39,2.42-.62q.26,1.42.57,2.85a72.6,72.6,0,0,0,79.52,56.2,72.61,72.61,0,0,1-128.92,27.85A72.6,72.6,0,0,0,1766.93,178.12Z"/><circle class="cls-6" cx="1741.5" cy="141.87" r="51.5"/><line class="cls-4" x1="1690" y1="142" x2="1455" y2="140"/><circle class="cls-5" cx="1789.14" cy="461.02" r="72.59"/><circle class="cls-5" cx="1789.95" cy="613.49" r="72.59"/><path class="cls-2" d="M1790,543.33c1.08,0,2.15,0,3.21.08a45.52,45.52,0,0,1-.37-5.75c0-.84,0-1.67.07-2.5q-1.45.06-2.91.06a72.6,72.6,0,0,1-72.23-65.3,72.61,72.61,0,0,0,1,131.89A72.61,72.61,0,0,1,1790,543.33Z"/><path class="cls-2" d="M1798.24,502.31c.41,1,.79,2,1.15,3a47.76,47.76,0,0,1,5.18-2.53c.77-.32,1.55-.62,2.33-.89-.4-.88-.79-1.76-1.16-2.67a72.59,72.59,0,0,1,32.87-91.65A72.61,72.61,0,0,0,1717,458.75,72.6,72.6,0,0,1,1798.24,502.31Z"/><path class="cls-2" d="M1805.07,575.12q.36-1.57.78-3.12a46.83,46.83,0,0,1-5.7-.89c-.82-.19-1.62-.39-2.42-.62q-.26,1.43-.57,2.85a72.6,72.6,0,0,1-79.52,56.2,72.61,72.61,0,0,0,128.92,27.85A72.6,72.6,0,0,1,1805.07,575.12Z"/><circle class="cls-6" cx="1830.5" cy="538.87" r="51.5"/><line class="cls-4" x1="1882" y1="539" x2="2117" y2="537"/><circle class="cls-5" cx="1768.86" cy="844.02" r="72.59"/><circle class="cls-5" cx="1768.05" cy="996.49" r="72.59"/><path class="cls-2" d="M1768.05,926.33c-1.08,0-2.15,0-3.21.08a45.52,45.52,0,0,0,.37-5.75c0-.84,0-1.67-.07-2.5q1.45.06,2.91.06a72.6,72.6,0,0,0,72.23-65.3,72.61,72.61,0,0,1-1,131.89A72.61,72.61,0,0,0,1768.05,926.33Z"/><path class="cls-2" d="M1759.76,885.31c-.41,1-.79,2-1.15,3a47.76,47.76,0,0,0-5.18-2.53c-.77-.32-1.55-.62-2.33-.89.4-.88.79-1.76,1.16-2.67a72.59,72.59,0,0,0-32.87-91.65A72.61,72.61,0,0,1,1841,841.75,72.6,72.6,0,0,0,1759.76,885.31Z"/><path class="cls-2" d="M1752.93,958.12q-.36-1.57-.78-3.12a46.83,46.83,0,0,0,5.7-.89c.82-.19,1.62-.39,2.42-.62q.26,1.43.57,2.85a72.6,72.6,0,0,0,79.52,56.2,72.61,72.61,0,0,1-128.92,27.85A72.6,72.6,0,0,0,1752.93,958.12Z"/><circle class="cls-6" cx="1727.5" cy="921.87" r="51.5"/><line class="cls-4" x1="1676" y1="922" x2="1441" y2="920"/><path class="cls-3" d="M2007,150l-59,3c-4.76,7.52-9.46,15.51-14,24a385.31,385.31,0,0,0-36,97,137.19,137.19,0,0,1-14,17,140.93,140.93,0,0,1-45,31l32,2a92.23,92.23,0,0,0,49-11c37.77-20.84,45.88-61.82,47-68a143.4,143.4,0,0,1,7-40A145.6,145.6,0,0,1,2007,150Z"/><path class="cls-3" d="M2007,131l-59-3c-4.76-7.52-9.46-15.51-14-24a385.31,385.31,0,0,1-36-97,137.19,137.19,0,0,0-14-17,140.93,140.93,0,0,0-45-31l32-2a92.23,92.23,0,0,1,49,11c37.77,20.84,45.88,61.82,47,68a143.4,143.4,0,0,0,7,40A145.6,145.6,0,0,0,2007,131Z"/><path class="cls-3" d="M2014.56,536.5l-59,3c-4.76,7.52-9.45,15.51-14,24a385.31,385.31,0,0,0-36,97,137.19,137.19,0,0,1-14,17,140.82,140.82,0,0,1-45,31l32,2a92.23,92.23,0,0,0,49-11c37.78-20.85,45.89-61.82,47-68a143.71,143.71,0,0,1,7-40A145.77,145.77,0,0,1,2014.56,536.5Z"/><path class="cls-3" d="M2014.56,517.5l-59-3c-4.76-7.52-9.45-15.51-14-24a385.31,385.31,0,0,1-36-97,137.19,137.19,0,0,0-14-17,140.82,140.82,0,0,0-45-31l32-2a92.23,92.23,0,0,1,49,11c37.78,20.84,45.89,61.82,47,68a143.77,143.77,0,0,0,7,40A145.86,145.86,0,0,0,2014.56,517.5Z"/><path class="cls-3" d="M2002.56,927l-59,3c-4.76,7.52-9.45,15.51-14,24a385.31,385.31,0,0,0-36,97,137.19,137.19,0,0,1-14,17,140.82,140.82,0,0,1-45,31l32,2a92.23,92.23,0,0,0,49-11c37.78-20.85,45.89-61.82,47-68a143.71,143.71,0,0,1,7-40A145.77,145.77,0,0,1,2002.56,927Z"/><path class="cls-3" d="M2002.56,908l-59-3c-4.76-7.52-9.45-15.51-14-24a385.31,385.31,0,0,1-36-97,137.19,137.19,0,0,0-14-17,140.82,140.82,0,0,0-45-31l32-2a92.23,92.23,0,0,1,49,11c37.78,20.84,45.89,61.82,47,68a143.77,143.77,0,0,0,7,40A145.86,145.86,0,0,0,2002.56,908Z"/><circle class="cls-5" cx="-52.86" cy="256.02" r="72.59"/><circle class="cls-5" cx="-52.05" cy="408.49" r="72.59"/><path class="cls-2" d="M-36.93,370.12q.36-1.58.78-3.12a46.83,46.83,0,0,1-5.7-.89c-.82-.19-1.62-.39-2.42-.62q-.25,1.42-.57,2.85a72.6,72.6,0,0,1-79.52,56.2,72.59,72.59,0,0,0,55,55.08A72.59,72.59,0,0,0,4.56,452.39,72.6,72.6,0,0,1-36.93,370.12Z"/><circle class="cls-6" cx="-11.5" cy="333.87" r="51.5"/><line class="cls-4" x1="40" y1="334" x2="275" y2="332"/><path class="cls-2" d="M-76.95,727.33c-1.08,0-2.15,0-3.21.08a45.52,45.52,0,0,0,.37-5.75c0-.84,0-1.67-.07-2.5q1.45.06,2.91.06a72.6,72.6,0,0,0,72.23-65.3A72.59,72.59,0,0,1,37,719.63,72.59,72.59,0,0,1-5.74,785.81,72.61,72.61,0,0,0-76.95,727.33Z"/></g></svg>