<svg xmlns="http://www.w3.org/2000/svg" viewBox="0 0 1920 1074"><defs><style>.cls-1{fill:#333d2f;}.cls-2{fill:#7c5118;}.cls-3{fill:#664217;}.cls-4{fill:#4e6047;}.cls-5{fill:#bca106;}.cls-6{fill:#53657a;}</style></defs><title>Artboard 5</title><g id="Layer_7" data-name="Layer 7"><rect class="cls-1" x="2" y="-18" width="1920" height="1093"/><path class="cls-2" d="M0,131H47a120.27,120.27,0,0,1,27,29c19.2,29.14,20.33,59,20,72a141.05,141.05,0,0,0,10,24,146.71,146.71,0,0,0,44,50H129a62.61,62.61,0,0,1-16-3c-50.36-16.55-62.5-93.64-64-104a146,146,0,0,0-17-34A146.36,146.36,0,0,0,0,131Z"/><path class="cls-3" d="M71,134l59,3c4.76,7.52,9.46,15.51,14,24a385.31,385.31,0,0,1,36,97,137.19,137.19,0,0,0,14,17,140.93,140.93,0,0,0,45,31l-32,2a92.23,92.23,0,0,1-49-11c-37.77-20.84-45.88-61.82-47-68a143.4,143.4,0,0,0-7-40A145.6,145.6,0,0,0,71,134Z"/><path class="cls-2" d="M0,118H47A120.27,120.27,0,0,0,74,89C93.2,59.86,94.33,30,94,17A141.05,141.05,0,0,1,104-7a146.71,146.71,0,0,1,44-50H129a62.61,62.61,0,0,0-16,3C62.64-37.45,50.5,39.64,49,50A146,146,0,0,1,32,84,146.36,146.36,0,0,1,0,118Z"/><path class="cls-4" d="M71,115l59-3c4.76-7.52,9.46-15.51,14-24A385.31,385.31,0,0,0,180-9a137.19,137.19,0,0,1,14-17,140.93,140.93,0,0,1,45-31l-32-2a92.23,92.23,0,0,0-49,11c-37.77,20.84-45.88,61.82-47,68a143.4,143.4,0,0,1-7,40A145.6,145.6,0,0,1,71,115Z"/><path class="cls-2" d="M581,131H534a120.27,120.27,0,0,0-27,29c-19.2,29.14-20.33,59-20,72a141.05,141.05,0,0,1-10,24,146.71,146.71,0,0,1-44,50h19a62.61,62.61,0,0,0,16-3c50.36-16.55,62.5-93.64,64-104a145.84,145.84,0,0,1,49-68Z"/><path class="cls-3" d="M510,134l-59,3c-4.76,7.52-9.46,15.51-14,24a385.31,385.31,0,0,0-36,97,137.19,137.19,0,0,1-14,17,140.93,140.93,0,0,1-45,31l32,2a92.23,92.23,0,0,0,49-11c37.77-20.84,45.88-61.82,47-68a143.4,143.4,0,0,1,7-40A145.6,145.6,0,0,1,510,134Z"/><path class="cls-2" d="M581,118H534a120.27,120.27,0,0,1-27-29c-19.2-29.14-20.33-59-20-72A141.05,141.05,0,0,0,477-7a146.71,146.71,0,0,0-44-50h19a62.61,62.61,0,0,1,16,3c50.36,16.55,62.5,93.64,64,104a146,146,0,0,0,17,34A146.36,146.36,0,0,0,581,118Z"/><path class="cls-3" d="M510,115l-59-3c-4.76-7.52-9.46-15.51-14-24A385.31,385.31,0,0,1,401-9a137.19,137.19,0,0,0-14-17,140.93,140.93,0,0,0-45-31l32-2a92.23,92.23,0,0,1,49,11c37.77,20.84,45.88,61.82,47,68a143.4,143.4,0,0,0,7,40A145.6,145.6,0,0,0,510,115Z"/><path class="cls-2" d="M0,519H47a120.27,120.27,0,0,1,27,29c19.2,29.14,20.33,59,20,72a141.05,141.05,0,0,0,10,24,146.71,146.71,0,0,0,44,50H129a62.61,62.61,0,0,1-16-3c-50.36-16.55-62.5-93.64-64-104a146,146,0,0,0-17-34A146.36,146.36,0,0,0,0,519Z"/><path class="cls-3" d="M71,522l59,3c4.76,7.52,9.46,15.51,14,24a385.31,385.31,0,0,1,36,97,137.19,137.19,0,0,0,14,17,140.93,140.93,0,0,0,45,31l-32,2a92.23,92.23,0,0,1-49-11c-37.77-20.84-45.88-61.82-47-68a143.4,143.4,0,0,0-7-40A145.6,145.6,0,0,0,71,522Z"/><path class="cls-2" d="M0,506H47a120.27,120.27,0,0,0,27-29c19.2-29.14,20.33-59,20-72a141.05,141.05,0,0,1,10-24,146.71,146.71,0,0,1,44-50H129a62.61,62.61,0,0,0-16,3c-50.36,16.55-62.5,93.64-64,104a146,146,0,0,1-17,34A146.36,146.36,0,0,1,0,506Z"/><path class="cls-3" d="M71,503l59-3c4.76-7.52,9.46-15.51,14-24a385.31,385.31,0,0,0,36-97,137.19,137.19,0,0,1,14-17,140.93,140.93,0,0,1,45-31l-32-2a92.23,92.23,0,0,0-49,11c-37.77,20.84-45.88,61.82-47,68a143.4,143.4,0,0,1-7,40A145.6,145.6,0,0,1,71,503Z"/><path class="cls-2" d="M581,519H534a120.27,120.27,0,0,0-27,29c-19.2,29.14-20.33,59-20,72a141.05,141.05,0,0,1-10,24,146.71,146.71,0,0,1-44,50h19a62.61,62.61,0,0,0,16-3c50.36-16.55,62.5-93.64,64-104a145.84,145.84,0,0,1,49-68Z"/><path class="cls-3" d="M510,522l-59,3c-4.76,7.52-9.46,15.51-14,24a385.31,385.31,0,0,0-36,97,137.19,137.19,0,0,1-14,17,140.93,140.93,0,0,1-45,31l32,2a92.23,92.23,0,0,0,49-11c37.77-20.84,45.88-61.82,47-68a143.4,143.4,0,0,1,7-40A145.6,145.6,0,0,1,510,522Z"/><path class="cls-2" d="M581,506H534a120.27,120.27,0,0,1-27-29c-19.2-29.14-20.33-59-20-72a141.05,141.05,0,0,0-10-24,146.71,146.71,0,0,0-44-50h19a62.61,62.61,0,0,1,16,3c50.36,16.55,62.5,93.64,64,104a145.84,145.84,0,0,0,49,68Z"/><path class="cls-2" d="M-7,909H40a120.27,120.27,0,0,1,27,29c19.2,29.14,20.33,59,20,72a141.05,141.05,0,0,0,10,24,146.71,146.71,0,0,0,44,50H122a62.61,62.61,0,0,1-16-3c-50.36-16.55-62.5-93.64-64-104a146,146,0,0,0-17-34A146.36,146.36,0,0,0-7,909Z"/><path class="cls-3" d="M64,912l59,3c4.76,7.52,9.46,15.51,14,24a385.31,385.31,0,0,1,36,97,137.19,137.19,0,0,0,14,17,140.93,140.93,0,0,0,45,31l-32,2a92.23,92.23,0,0,1-49-11c-37.77-20.84-45.88-61.82-47-68a143.4,143.4,0,0,0-7-40A145.6,145.6,0,0,0,64,912Z"/><path class="cls-2" d="M-7,896H40a120.27,120.27,0,0,0,27-29c19.2-29.14,20.33-59,20-72a141.05,141.05,0,0,1,10-24,146.71,146.71,0,0,1,44-50H122a62.61,62.61,0,0,0-16,3c-50.36,16.55-62.5,93.64-64,104a146,146,0,0,1-17,34A146.36,146.36,0,0,1-7,896Z"/><path class="cls-3" d="M64,893l59-3c4.76-7.52,9.46-15.51,14-24a385.31,385.31,0,0,0,36-97,137.19,137.19,0,0,1,14-17,140.93,140.93,0,0,1,45-31l-32-2a92.23,92.23,0,0,0-49,11c-37.77,20.84-45.88,61.82-47,68a143.4,143.4,0,0,1-7,40A145.6,145.6,0,0,1,64,893Z"/><path class="cls-2" d="M574,909H527a120.27,120.27,0,0,0-27,29c-19.2,29.14-20.33,59-20,72a141.05,141.05,0,0,1-10,24,146.71,146.71,0,0,1-44,50h19a62.61,62.61,0,0,0,16-3c50.36-16.55,62.5-93.64,64-104a145.84,145.84,0,0,1,49-68Z"/><path class="cls-3" d="M503,912l-59,3c-4.76,7.52-9.46,15.51-14,24a385.31,385.31,0,0,0-36,97,137.19,137.19,0,0,1-14,17,140.93,140.93,0,0,1-45,31l32,2a92.23,92.23,0,0,0,49-11c37.77-20.84,45.88-61.82,47-68a143.4,143.4,0,0,1,7-40A145.6,145.6,0,0,1,503,912Z"/><path class="cls-2" d="M574,896H527a120.27,120.27,0,0,1-27-29c-19.2-29.14-20.33-59-20-72a141.05,141.05,0,0,0-10-24,146.71,146.71,0,0,0-44-50h19a62.61,62.61,0,0,1,16,3c50.36,16.55,62.5,93.64,64,104a145.84,145.84,0,0,0,49,68Z"/><path class="cls-3" d="M503,893l-59-3c-4.76-7.52-9.46-15.51-14-24a385.31,385.31,0,0,1-36-97,137.19,137.19,0,0,0-14-17,140.93,140.93,0,0,0-45-31l32-2a92.23,92.23,0,0,1,49,11c37.77,20.84,45.88,61.82,47,68a143.4,143.4,0,0,0,7,40A145.6,145.6,0,0,0,503,893Z"/><path class="cls-2" d="M747,128h47a120.27,120.27,0,0,1,27,29c19.2,29.14,20.33,59,20,72a141.05,141.05,0,0,0,10,24,146.71,146.71,0,0,0,44,50H876a62.61,62.61,0,0,1-16-3c-50.36-16.55-62.5-93.64-64-104a145.84,145.84,0,0,0-49-68Z"/><path class="cls-3" d="M818,131l59,3c4.76,7.52,9.46,15.51,14,24a385.31,385.31,0,0,1,36,97,137.19,137.19,0,0,0,14,17,140.93,140.93,0,0,0,45,31l-32,2a92.23,92.23,0,0,1-49-11c-37.77-20.84-45.88-61.82-47-68a143.4,143.4,0,0,0-7-40A145.6,145.6,0,0,0,818,131Z"/><path class="cls-2" d="M747,115h47a120.27,120.27,0,0,0,27-29c19.2-29.14,20.33-59,20-72a141.05,141.05,0,0,1,10-24,146.71,146.71,0,0,1,44-50H876a62.61,62.61,0,0,0-16,3c-50.36,16.55-62.5,93.64-64,104a146,146,0,0,1-17,34A146.36,146.36,0,0,1,747,115Z"/><path class="cls-3" d="M818,112l59-3c4.76-7.52,9.46-15.51,14-24a385.31,385.31,0,0,0,36-97,137.19,137.19,0,0,1,14-17,140.93,140.93,0,0,1,45-31l-32-2a92.23,92.23,0,0,0-49,11c-37.77,20.84-45.88,61.82-47,68a143.4,143.4,0,0,1-7,40A145.6,145.6,0,0,1,818,112Z"/><path class="cls-2" d="M1328,128h-47a120.27,120.27,0,0,0-27,29c-19.2,29.14-20.33,59-20,72a141.05,141.05,0,0,1-10,24,146.71,146.71,0,0,1-44,50h19a62.61,62.61,0,0,0,16-3c50.36-16.55,62.5-93.64,64-104a145.84,145.84,0,0,1,49-68Z"/><path class="cls-3" d="M1257,131l-59,3c-4.76,7.52-9.46,15.51-14,24a385.31,385.31,0,0,0-36,97,137.19,137.19,0,0,1-14,17,140.93,140.93,0,0,1-45,31l32,2a92.23,92.23,0,0,0,49-11c37.77-20.84,45.88-61.82,47-68a143.4,143.4,0,0,1,7-40A145.6,145.6,0,0,1,1257,131Z"/><path class="cls-2" d="M1328,115h-47a120.27,120.27,0,0,1-27-29c-19.2-29.14-20.33-59-20-72a141.05,141.05,0,0,0-10-24,146.71,146.71,0,0,0-44-50h19a62.61,62.61,0,0,1,16,3c50.36,16.55,62.5,93.64,64,104a146,146,0,0,0,17,34A146.36,146.36,0,0,0,1328,115Z"/><path class="cls-3" d="M1257,112l-59-3c-4.76-7.52-9.46-15.51-14-24a385.31,385.31,0,0,1-36-97,137.19,137.19,0,0,0-14-17,140.93,140.93,0,0,0-45-31l32-2a92.23,92.23,0,0,1,49,11c37.77,20.84,45.88,61.82,47,68a143.4,143.4,0,0,0,7,40A145.6,145.6,0,0,0,1257,112Z"/><path class="cls-2" d="M747,516h47a120.27,120.27,0,0,1,27,29c19.2,29.14,20.33,59,20,72a141.05,141.05,0,0,0,10,24,146.71,146.71,0,0,0,44,50H876a62.61,62.61,0,0,1-16-3c-50.36-16.55-62.5-93.64-64-104a145.84,145.84,0,0,0-49-68Z"/><path class="cls-3" d="M818,519l59,3c4.76,7.52,9.46,15.51,14,24a385.31,385.31,0,0,1,36,97,137.19,137.19,0,0,0,14,17,140.93,140.93,0,0,0,45,31l-32,2a92.23,92.23,0,0,1-49-11c-37.77-20.84-45.88-61.82-47-68a143.4,143.4,0,0,0-7-40A145.6,145.6,0,0,0,818,519Z"/><path class="cls-2" d="M747,503h47a120.27,120.27,0,0,0,27-29c19.2-29.14,20.33-59,20-72a141.05,141.05,0,0,1,10-24,146.71,146.71,0,0,1,44-50H876a62.61,62.61,0,0,0-16,3c-50.36,16.55-62.5,93.64-64,104a145.84,145.84,0,0,1-49,68Z"/><path class="cls-3" d="M818,500l59-3c4.76-7.52,9.46-15.51,14-24a385.31,385.31,0,0,0,36-97,137.19,137.19,0,0,1,14-17,140.93,140.93,0,0,1,45-31l-32-2a92.23,92.23,0,0,0-49,11c-37.77,20.84-45.88,61.82-47,68a143.4,143.4,0,0,1-7,40A145.6,145.6,0,0,1,818,500Z"/><path class="cls-2" d="M1328,516h-47a120.27,120.27,0,0,0-27,29c-19.2,29.14-20.33,59-20,72a141.05,141.05,0,0,1-10,24,146.71,146.71,0,0,1-44,50h19a62.61,62.61,0,0,0,16-3c50.36-16.55,62.5-93.64,64-104a145.84,145.84,0,0,1,49-68Z"/><path class="cls-3" d="M1257,519l-59,3c-4.76,7.52-9.46,15.51-14,24a385.31,385.31,0,0,0-36,97,137.19,137.19,0,0,1-14,17,140.93,140.93,0,0,1-45,31l32,2a92.23,92.23,0,0,0,49-11c37.77-20.84,45.88-61.82,47-68a143.4,143.4,0,0,1,7-40A145.6,145.6,0,0,1,1257,519Z"/><path class="cls-2" d="M1328,503h-47a120.27,120.27,0,0,1-27-29c-19.2-29.14-20.33-59-20-72a141.05,141.05,0,0,0-10-24,146.71,146.71,0,0,0-44-50h19a62.61,62.61,0,0,1,16,3c50.36,16.55,62.5,93.64,64,104a145.84,145.84,0,0,0,49,68Z"/><path class="cls-3" d="M1257,500l-59-3c-4.76-7.52-9.46-15.51-14-24a385.31,385.31,0,0,1-36-97,137.19,137.19,0,0,0-14-17,140.93,140.93,0,0,0-45-31l32-2a92.23,92.23,0,0,1,49,11c37.77,20.84,45.88,61.82,47,68a143.4,143.4,0,0,0,7,40A145.6,145.6,0,0,0,1257,500Z"/><path class="cls-2" d="M740,906h47a120.27,120.27,0,0,1,27,29c19.2,29.14,20.33,59,20,72a141.05,141.05,0,0,0,10,24,146.71,146.71,0,0,0,44,50H869a62.61,62.61,0,0,1-16-3c-50.36-16.55-62.5-93.64-64-104a145.84,145.84,0,0,0-49-68Z"/><path class="cls-3" d="M811,909l59,3c4.76,7.52,9.46,15.51,14,24a385.31,385.31,0,0,1,36,97,137.19,137.19,0,0,0,14,17,140.93,140.93,0,0,0,45,31l-32,2a92.23,92.23,0,0,1-49-11c-37.77-20.84-45.88-61.82-47-68a143.4,143.4,0,0,0-7-40A145.6,145.6,0,0,0,811,909Z"/><path class="cls-2" d="M740,893h47a120.27,120.27,0,0,0,27-29c19.2-29.14,20.33-59,20-72a141.05,141.05,0,0,1,10-24,146.71,146.71,0,0,1,44-50H869a62.61,62.61,0,0,0-16,3c-50.36,16.55-62.5,93.64-64,104a145.84,145.84,0,0,1-49,68Z"/><path class="cls-3" d="M811,890l59-3c4.76-7.52,9.46-15.51,14-24a385.31,385.31,0,0,0,36-97,137.19,137.19,0,0,1,14-17,140.93,140.93,0,0,1,45-31l-32-2a92.23,92.23,0,0,0-49,11c-37.77,20.84-45.88,61.82-47,68a143.4,143.4,0,0,1-7,40A145.6,145.6,0,0,1,811,890Z"/><path class="cls-2" d="M1321,906h-47a120.27,120.27,0,0,0-27,29c-19.2,29.14-20.33,59-20,72a141.05,141.05,0,0,1-10,24,146.71,146.71,0,0,1-44,50h19a62.61,62.61,0,0,0,16-3c50.36-16.55,62.5-93.64,64-104a145.84,145.84,0,0,1,49-68Z"/><path class="cls-3" d="M1250,909l-59,3c-4.76,7.52-9.46,15.51-14,24a385.31,385.31,0,0,0-36,97,137.19,137.19,0,0,1-14,17,140.93,140.93,0,0,1-45,31l32,2a92.23,92.23,0,0,0,49-11c37.77-20.84,45.88-61.82,47-68a143.4,143.4,0,0,1,7-40A145.6,145.6,0,0,1,1250,909Z"/><path class="cls-2" d="M1321,893h-47a120.27,120.27,0,0,1-27-29c-19.2-29.14-20.33-59-20-72a141.05,141.05,0,0,0-10-24,146.71,146.71,0,0,0-44-50h19a62.61,62.61,0,0,1,16,3c50.36,16.55,62.5,93.64,64,104a145.84,145.84,0,0,0,49,68Z"/><path class="cls-3" d="M1250,890l-59-3c-4.76-7.52-9.46-15.51-14-24a385.31,385.31,0,0,1-36-97,137.19,137.19,0,0,0-14-17,140.93,140.93,0,0,0-45-31l32-2a92.23,92.23,0,0,1,49,11c37.77,20.84,45.88,61.82,47,68a143.4,143.4,0,0,0,7,40A145.6,145.6,0,0,0,1250,890Z"/><path class="cls-2" d="M1492,130h47a120.27,120.27,0,0,1,27,29c19.2,29.14,20.33,59,20,72a141.05,141.05,0,0,0,10,24,146.71,146.71,0,0,0,44,50h-19a62.61,62.61,0,0,1-16-3c-50.36-16.55-62.5-93.64-64-104a145.84,145.84,0,0,0-49-68Z"/><path class="cls-3" d="M1563,133l59,3c4.76,7.52,9.46,15.51,14,24a385.31,385.31,0,0,1,36,97,137.19,137.19,0,0,0,14,17,140.93,140.93,0,0,0,45,31l-32,2a92.23,92.23,0,0,1-49-11c-37.77-20.84-45.88-61.82-47-68a143.4,143.4,0,0,0-7-40A145.6,145.6,0,0,0,1563,133Z"/><path class="cls-2" d="M1492,117h47a120.27,120.27,0,0,0,27-29c19.2-29.14,20.33-59,20-72a141.05,141.05,0,0,1,10-24,146.71,146.71,0,0,1,44-50h-19a62.61,62.61,0,0,0-16,3c-50.36,16.55-62.5,93.64-64,104a146,146,0,0,1-17,34A146.36,146.36,0,0,1,1492,117Z"/><path class="cls-3" d="M1563,114l59-3c4.76-7.52,9.46-15.51,14-24a385.31,385.31,0,0,0,36-97,137.19,137.19,0,0,1,14-17,140.93,140.93,0,0,1,45-31l-32-2a92.23,92.23,0,0,0-49,11c-37.77,20.84-45.88,61.82-47,68a143.4,143.4,0,0,1-7,40A145.6,145.6,0,0,1,1563,114Z"/><path class="cls-2" d="M1492,518h47a120.27,120.27,0,0,1,27,29c19.2,29.14,20.33,59,20,72a141.05,141.05,0,0,0,10,24,146.71,146.71,0,0,0,44,50h-19a62.61,62.61,0,0,1-16-3c-50.36-16.55-62.5-93.64-64-104a145.84,145.84,0,0,0-49-68Z"/><path class="cls-3" d="M1563,521l59,3c4.76,7.52,9.46,15.51,14,24a385.31,385.31,0,0,1,36,97,137.19,137.19,0,0,0,14,17,140.93,140.93,0,0,0,45,31l-32,2a92.23,92.23,0,0,1-49-11c-37.77-20.84-45.88-61.82-47-68a143.4,143.4,0,0,0-7-40A145.6,145.6,0,0,0,1563,521Z"/><path class="cls-2" d="M1492,505h47a120.27,120.27,0,0,0,27-29c19.2-29.14,20.33-59,20-72a141.05,141.05,0,0,1,10-24,146.71,146.71,0,0,1,44-50h-19a62.61,62.61,0,0,0-16,3c-50.36,16.55-62.5,93.64-64,104a145.84,145.84,0,0,1-49,68Z"/><path class="cls-3" d="M1563,502l59-3c4.76-7.52,9.46-15.51,14-24a385.31,385.31,0,0,0,36-97,137.19,137.19,0,0,1,14-17,140.93,140.93,0,0,1,45-31l-32-2a92.23,92.23,0,0,0-49,11c-37.77,20.84-45.88,61.82-47,68a143.4,143.4,0,0,1-7,40A145.6,145.6,0,0,1,1563,502Z"/><path class="cls-2" d="M1485,908h47a120.27,120.27,0,0,1,27,29c19.2,29.14,20.33,59,20,72a141.05,141.05,0,0,0,10,24,146.71,146.71,0,0,0,44,50h-19a62.61,62.61,0,0,1-16-3c-50.36-16.55-62.5-93.64-64-104a145.84,145.84,0,0,0-49-68Z"/><path class="cls-3" d="M1556,911l59,3c4.76,7.52,9.46,15.51,14,24a385.31,385.31,0,0,1,36,97,137.19,137.19,0,0,0,14,17,140.93,140.93,0,0,0,45,31l-32,2a92.23,92.23,0,0,1-49-11c-37.77-20.84-45.88-61.82-47-68a143.4,143.4,0,0,0-7-40A145.6,145.6,0,0,0,1556,911Z"/><path class="cls-2" d="M1485,895h47a120.27,120.27,0,0,0,27-29c19.2-29.14,20.33-59,20-72a141.05,141.05,0,0,1,10-24,146.71,146.71,0,0,1,44-50h-19a62.61,62.61,0,0,0-16,3c-50.36,16.55-62.5,93.64-64,104a145.84,145.84,0,0,1-49,68Z"/><path class="cls-3" d="M1556,892l59-3c4.76-7.52,9.46-15.51,14-24a385.31,385.31,0,0,0,36-97,137.19,137.19,0,0,1,14-17,140.93,140.93,0,0,1,45-31l-32-2a92.23,92.23,0,0,0-49,11c-37.77,20.84-45.88,61.82-47,68a143.4,143.4,0,0,1-7,40A145.6,145.6,0,0,1,1556,892Z"/><path class="cls-3" d="M510,503l-59-3c-4.76-7.52-9.46-15.51-14-24a385.31,385.31,0,0,1-36-97,137.19,137.19,0,0,0-14-17,140.93,140.93,0,0,0-45-31l32-2a92.23,92.23,0,0,1,49,11c37.77,20.84,45.88,61.82,47,68a143.4,143.4,0,0,0,7,40A145.6,145.6,0,0,0,510,503Z"/><circle class="cls-5" cx="299.14" cy="436.02" r="72.59"/><circle class="cls-5" cx="299.95" cy="588.49" r="72.59"/><path class="cls-4" d="M300,518.33c1.08,0,2.15,0,3.21.08a45.52,45.52,0,0,1-.37-5.75c0-.84,0-1.67.07-2.5q-1.46.06-2.91.06a72.6,72.6,0,0,1-72.23-65.3,72.61,72.61,0,0,0,1,131.89A72.61,72.61,0,0,1,300,518.33Z"/><path class="cls-4" d="M308.24,477.31c.41,1,.79,2,1.15,3a47.76,47.76,0,0,1,5.18-2.53c.77-.32,1.55-.62,2.33-.89-.4-.88-.79-1.76-1.16-2.67a72.59,72.59,0,0,1,32.87-91.65A72.61,72.61,0,0,0,227,433.75,72.6,72.6,0,0,1,308.24,477.31Z"/><path class="cls-4" d="M315.07,550.12q.36-1.57.78-3.12a46.83,46.83,0,0,1-5.7-.89c-.82-.19-1.62-.39-2.42-.62q-.25,1.43-.57,2.85a72.6,72.6,0,0,1-79.52,56.2,72.61,72.61,0,0,0,128.92,27.85A72.6,72.6,0,0,1,315.07,550.12Z"/><circle class="cls-6" cx="340.5" cy="513.87" r="51.5"/><line class="cls-4" x1="392" y1="514" x2="627" y2="512"/><path class="cls-3" d="M68,113l59-3c4.76-7.52,9.46-15.51,14-24a385.31,385.31,0,0,0,36-97,137.19,137.19,0,0,1,14-17,140.93,140.93,0,0,1,45-31l-32-2a92.23,92.23,0,0,0-49,11c-37.77,20.84-45.88,61.82-47,68a143.4,143.4,0,0,1-7,40A145.6,145.6,0,0,1,68,113Z"/><circle class="cls-5" cx="278.86" cy="46.02" r="72.59"/><circle class="cls-5" cx="278.05" cy="198.49" r="72.59"/><path class="cls-4" d="M278.05,128.33c-1.08,0-2.15,0-3.21.08a45.52,45.52,0,0,0,.37-5.75c0-.84,0-1.67-.07-2.5q1.46.06,2.91.06a72.6,72.6,0,0,0,72.23-65.3,72.61,72.61,0,0,1-1,131.89A72.61,72.61,0,0,0,278.05,128.33Z"/><path class="cls-4" d="M269.76,87.31c-.41,1-.79,2-1.15,3a47.76,47.76,0,0,0-5.18-2.53c-.77-.32-1.55-.62-2.33-.89.4-.88.79-1.76,1.16-2.67A72.59,72.59,0,0,0,229.39-7.43,72.61,72.61,0,0,1,351,43.75,72.6,72.6,0,0,0,269.76,87.31Z"/><path class="cls-4" d="M262.93,160.12q-.36-1.58-.78-3.12a46.83,46.83,0,0,0,5.7-.89c.82-.19,1.62-.39,2.42-.62q.25,1.42.57,2.85a72.6,72.6,0,0,0,79.52,56.2,72.61,72.61,0,0,1-128.92,27.85A72.6,72.6,0,0,0,262.93,160.12Z"/><circle class="cls-6" cx="237.5" cy="123.87" r="51.5"/><line class="cls-4" x1="186" y1="124" x2="-49" y2="122"/><circle class="cls-5" cx="280.86" cy="825.02" r="72.59"/><circle class="cls-5" cx="280.05" cy="977.49" r="72.59"/><path class="cls-4" d="M280.05,907.33c-1.08,0-2.15,0-3.21.08a45.52,45.52,0,0,0,.37-5.75c0-.84,0-1.67-.07-2.5q1.46.06,2.91.06a72.6,72.6,0,0,0,72.23-65.3,72.61,72.61,0,0,1-1,131.89A72.61,72.61,0,0,0,280.05,907.33Z"/><path class="cls-4" d="M271.76,866.31c-.41,1-.79,2-1.15,3a47.76,47.76,0,0,0-5.18-2.53c-.77-.32-1.55-.62-2.33-.89.4-.88.79-1.76,1.16-2.67a72.59,72.59,0,0,0-32.87-91.65A72.61,72.61,0,0,1,353,822.75,72.6,72.6,0,0,0,271.76,866.31Z"/><path class="cls-4" d="M264.93,939.12q-.36-1.57-.78-3.12a46.83,46.83,0,0,0,5.7-.89c.82-.19,1.62-.39,2.42-.62q.25,1.43.57,2.85a72.6,72.6,0,0,0,79.52,56.2,72.61,72.61,0,0,1-128.92,27.85A72.6,72.6,0,0,0,264.93,939.12Z"/><circle class="cls-6" cx="239.5" cy="902.87" r="51.5"/><line class="cls-4" x1="188" y1="903" x2="-47" y2="901"/><circle class="cls-5" cx="656.86" cy="242.02" r="72.59"/><circle class="cls-5" cx="656.05" cy="394.49" r="72.59"/><path class="cls-4" d="M656.05,324.33c-1.08,0-2.15,0-3.21.08a45.52,45.52,0,0,0,.37-5.75c0-.84,0-1.67-.07-2.5q1.46.06,2.91.06a72.6,72.6,0,0,0,72.23-65.3,72.61,72.61,0,0,1-1,131.89A72.61,72.61,0,0,0,656.05,324.33Z"/><path class="cls-4" d="M647.76,283.31c-.41,1-.79,2-1.15,3a47.76,47.76,0,0,0-5.18-2.53c-.77-.32-1.55-.62-2.33-.89.4-.88.79-1.76,1.16-2.67a72.59,72.59,0,0,0-32.87-91.65A72.61,72.61,0,0,1,729,239.75,72.6,72.6,0,0,0,647.76,283.31Z"/><path class="cls-4" d="M640.93,356.12q-.36-1.58-.78-3.12a46.83,46.83,0,0,0,5.7-.89c.82-.19,1.62-.39,2.42-.62q.26,1.42.57,2.85a72.6,72.6,0,0,0,79.52,56.2,72.61,72.61,0,0,1-128.92,27.85A72.6,72.6,0,0,0,640.93,356.12Z"/><circle class="cls-6" cx="615.5" cy="319.87" r="51.5"/><line class="cls-4" x1="564" y1="320" x2="329" y2="318"/><circle class="cls-5" cx="663.14" cy="628.02" r="72.59"/><circle class="cls-5" cx="663.95" cy="780.49" r="72.59"/><path class="cls-4" d="M664,710.33c1.08,0,2.15,0,3.21.08a45.52,45.52,0,0,1-.37-5.75c0-.84,0-1.67.07-2.5q-1.46.06-2.91.06a72.6,72.6,0,0,1-72.23-65.3,72.61,72.61,0,0,0,1,131.89A72.61,72.61,0,0,1,664,710.33Z"/><path class="cls-4" d="M672.24,669.31c.41,1,.79,2,1.15,3a47.76,47.76,0,0,1,5.18-2.53c.77-.32,1.55-.62,2.33-.89-.4-.88-.79-1.76-1.16-2.67a72.59,72.59,0,0,1,32.87-91.65A72.61,72.61,0,0,0,591,625.75,72.6,72.6,0,0,1,672.24,669.31Z"/><path class="cls-4" d="M679.07,742.12q.36-1.57.78-3.12a46.83,46.83,0,0,1-5.7-.89c-.82-.19-1.62-.39-2.42-.62q-.26,1.43-.57,2.85a72.6,72.6,0,0,1-79.52,56.2,72.61,72.61,0,0,0,128.92,27.85A72.6,72.6,0,0,1,679.07,742.12Z"/><circle class="cls-6" cx="704.5" cy="705.87" r="51.5"/><line class="cls-4" x1="756" y1="706" x2="991" y2="704"/><circle class="cls-5" cx="663.95" cy="0.49" r="72.59"/><path class="cls-4" d="M679.07-37.88q.36-1.57.78-3.12a46.83,46.83,0,0,1-5.7-.89c-.82-.19-1.62-.39-2.42-.62q-.26,1.42-.57,2.85a72.6,72.6,0,0,1-79.52,56.2,72.59,72.59,0,0,0,55,55.08,72.59,72.59,0,0,0,73.92-27.23A72.6,72.6,0,0,1,679.07-37.88Z"/><circle class="cls-5" cx="656.86" cy="1019.02" r="72.59"/><path class="cls-4" d="M656.05,1101.33c-1.08,0-2.15,0-3.21.08a45.52,45.52,0,0,0,.37-5.75c0-.84,0-1.67-.07-2.5q1.46.06,2.91.06a72.6,72.6,0,0,0,72.23-65.3,72.61,72.61,0,0,1-1,131.89A72.61,72.61,0,0,0,656.05,1101.33Z"/><path class="cls-4" d="M647.76,1060.31c-.41,1-.79,2-1.15,3a47.76,47.76,0,0,0-5.18-2.53c-.77-.32-1.55-.62-2.33-.89.4-.88.79-1.76,1.16-2.67a72.59,72.59,0,0,0-32.87-91.65A72.61,72.61,0,0,1,729,1016.75,72.6,72.6,0,0,0,647.76,1060.31Z"/><circle class="cls-6" cx="615.5" cy="1096.87" r="51.5"/><circle class="cls-5" cx="1032.86" cy="432.02" r="72.59"/><circle class="cls-5" cx="1032.05" cy="584.49" r="72.59"/><path class="cls-4" d="M1032.05,514.33c-1.08,0-2.15,0-3.21.08a45.52,45.52,0,0,0,.37-5.75c0-.84,0-1.67-.07-2.5q1.45.06,2.91.06a72.6,72.6,0,0,0,72.23-65.3,72.61,72.61,0,0,1-1,131.89A72.61,72.61,0,0,0,1032.05,514.33Z"/><path class="cls-4" d="M1023.76,473.31c-.41,1-.79,2-1.15,3a47.76,47.76,0,0,0-5.18-2.53c-.77-.32-1.55-.62-2.33-.89.4-.88.79-1.76,1.16-2.67a72.59,72.59,0,0,0-32.87-91.65A72.61,72.61,0,0,1,1105,429.75,72.6,72.6,0,0,0,1023.76,473.31Z"/><path class="cls-4" d="M1016.93,546.12q-.36-1.57-.78-3.12a46.83,46.83,0,0,0,5.7-.89c.82-.19,1.62-.39,2.42-.62q.26,1.43.57,2.85a72.6,72.6,0,0,0,79.52,56.2,72.61,72.61,0,0,1-128.92,27.85A72.6,72.6,0,0,0,1016.93,546.12Z"/><circle class="cls-6" cx="991.5" cy="509.87" r="51.5"/><line class="cls-4" x1="940" y1="510" x2="705" y2="508"/><circle class="cls-5" cx="1421.14" cy="240.02" r="72.59"/><circle class="cls-5" cx="1421.95" cy="392.49" r="72.59"/><path class="cls-4" d="M1422,322.33c1.08,0,2.15,0,3.21.08a45.52,45.52,0,0,1-.37-5.75c0-.84,0-1.67.07-2.5q-1.45.06-2.91.06a72.6,72.6,0,0,1-72.23-65.3,72.61,72.61,0,0,0,1,131.89A72.61,72.61,0,0,1,1422,322.33Z"/><path class="cls-4" d="M1430.24,281.31c.41,1,.79,2,1.15,3a47.76,47.76,0,0,1,5.18-2.53c.77-.32,1.55-.62,2.33-.89-.4-.88-.79-1.76-1.16-2.67a72.59,72.59,0,0,1,32.87-91.65A72.61,72.61,0,0,0,1349,237.75,72.6,72.6,0,0,1,1430.24,281.31Z"/><path class="cls-4" d="M1437.07,354.12q.36-1.58.78-3.12a46.83,46.83,0,0,1-5.7-.89c-.82-.19-1.62-.39-2.42-.62q-.26,1.42-.57,2.85a72.6,72.6,0,0,1-79.52,56.2,72.61,72.61,0,0,0,128.92,27.85A72.6,72.6,0,0,1,1437.07,354.12Z"/><circle class="cls-6" cx="1462.5" cy="317.87" r="51.5"/><line class="cls-4" x1="1514" y1="318" x2="1749" y2="316"/><circle class="cls-5" cx="1407.14" cy="1009.02" r="72.59"/><path class="cls-4" d="M1408,1091.33c1.08,0,2.15,0,3.21.08a45.52,45.52,0,0,1-.37-5.75c0-.84,0-1.67.07-2.5q-1.45.06-2.91.06a72.6,72.6,0,0,1-72.23-65.3,72.61,72.61,0,0,0,1,131.89A72.61,72.61,0,0,1,1408,1091.33Z"/><path class="cls-4" d="M1416.24,1050.31c.41,1,.79,2,1.15,3a47.76,47.76,0,0,1,5.18-2.53c.77-.32,1.55-.62,2.33-.89-.4-.88-.79-1.76-1.16-2.67a72.59,72.59,0,0,1,32.87-91.65A72.61,72.61,0,0,0,1335,1006.75,72.6,72.6,0,0,1,1416.24,1050.31Z"/><circle class="cls-6" cx="1448.5" cy="1086.87" r="51.5"/><circle class="cls-5" cx="1407.86" cy="626.02" r="72.59"/><circle class="cls-5" cx="1407.05" cy="778.49" r="72.59"/><path class="cls-4" d="M1407.05,708.33c-1.08,0-2.15,0-3.21.08a45.52,45.52,0,0,0,.37-5.75c0-.84,0-1.67-.07-2.5q1.45.06,2.91.06a72.6,72.6,0,0,0,72.23-65.3,72.61,72.61,0,0,1-1,131.89A72.61,72.61,0,0,0,1407.05,708.33Z"/><path class="cls-4" d="M1398.76,667.31c-.41,1-.79,2-1.15,3a47.76,47.76,0,0,0-5.18-2.53c-.77-.32-1.55-.62-2.33-.89.4-.88.79-1.76,1.16-2.67a72.59,72.59,0,0,0-32.87-91.65A72.61,72.61,0,0,1,1480,623.75,72.6,72.6,0,0,0,1398.76,667.31Z"/><path class="cls-4" d="M1391.93,740.12q-.36-1.57-.78-3.12a46.83,46.83,0,0,0,5.7-.89c.82-.19,1.62-.39,2.42-.62q.26,1.43.57,2.85a72.6,72.6,0,0,0,79.52,56.2,72.61,72.61,0,0,1-128.92,27.85A72.6,72.6,0,0,0,1391.93,740.12Z"/><circle class="cls-6" cx="1366.5" cy="703.87" r="51.5"/><line class="cls-4" x1="1315" y1="704" x2="1080" y2="702"/><circle class="cls-5" cx="1039.14" cy="44.02" r="72.59"/><circle class="cls-5" cx="1039.95" cy="196.49" r="72.59"/><path class="cls-4" d="M1040,126.33c1.08,0,2.15,0,3.21.08a45.52,45.52,0,0,1-.37-5.75c0-.84,0-1.67.07-2.5q-1.45.06-2.91.06a72.6,72.6,0,0,1-72.23-65.3,72.61,72.61,0,0,0,1,131.89A72.61,72.61,0,0,1,1040,126.33Z"/><path class="cls-4" d="M1048.24,85.31c.41,1,.79,2,1.15,3a47.76,47.76,0,0,1,5.18-2.53c.77-.32,1.55-.62,2.33-.89-.4-.88-.79-1.76-1.16-2.67a72.59,72.59,0,0,1,32.87-91.65A72.61,72.61,0,0,0,967,41.75,72.6,72.6,0,0,1,1048.24,85.31Z"/><path class="cls-4" d="M1055.07,158.12q.36-1.58.78-3.12a46.83,46.83,0,0,1-5.7-.89c-.82-.19-1.62-.39-2.42-.62q-.26,1.42-.57,2.85a72.6,72.6,0,0,1-79.52,56.2,72.61,72.61,0,0,0,128.92,27.85A72.6,72.6,0,0,1,1055.07,158.12Z"/><circle class="cls-6" cx="1080.5" cy="121.87" r="51.5"/><line class="cls-4" x1="1132" y1="122" x2="1367" y2="120"/><circle class="cls-5" cx="1411.05" cy="3.49" r="72.59"/><path class="cls-4" d="M1395.93-34.88q-.36-1.57-.78-3.12a46.83,46.83,0,0,0,5.7-.89c.82-.19,1.62-.39,2.42-.62q.26,1.42.57,2.85a72.6,72.6,0,0,0,79.52,56.2,72.61,72.61,0,0,1-128.92,27.85A72.6,72.6,0,0,0,1395.93-34.88Z"/><circle class="cls-5" cx="1030.14" cy="821.02" r="72.59"/><circle class="cls-5" cx="1030.95" cy="973.49" r="72.59"/><path class="cls-4" d="M1031,903.33c1.08,0,2.15,0,3.21.08a45.52,45.52,0,0,1-.37-5.75c0-.84,0-1.67.07-2.5q-1.45.06-2.91.06a72.6,72.6,0,0,1-72.23-65.3,72.61,72.61,0,0,0,1,131.89A72.61,72.61,0,0,1,1031,903.33Z"/><path class="cls-4" d="M1039.24,862.31c.41,1,.79,2,1.15,3a47.76,47.76,0,0,1,5.18-2.53c.77-.32,1.55-.62,2.33-.89-.4-.88-.79-1.76-1.16-2.67a72.59,72.59,0,0,1,32.87-91.65A72.61,72.61,0,0,0,958,818.75,72.6,72.6,0,0,1,1039.24,862.31Z"/><path class="cls-4" d="M1046.07,935.12q.36-1.57.78-3.12a46.83,46.83,0,0,1-5.7-.89c-.82-.19-1.62-.39-2.42-.62q-.26,1.43-.57,2.85a72.6,72.6,0,0,1-79.52,56.2,72.61,72.61,0,0,0,128.92,27.85A72.6,72.6,0,0,1,1046.07,935.12Z"/><circle class="cls-6" cx="1071.5" cy="898.87" r="51.5"/><line class="cls-4" x1="1123" y1="899" x2="1358" y2="897"/><circle class="cls-5" cx="1784.86" cy="46.02" r="72.59"/><circle class="cls-5" cx="1784.05" cy="198.49" r="72.59"/><path class="cls-4" d="M1784.05,128.33c-1.08,0-2.15,0-3.21.08a45.52,45.52,0,0,0,.37-5.75c0-.84,0-1.67-.07-2.5q1.45.06,2.91.06a72.6,72.6,0,0,0,72.23-65.3,72.61,72.61,0,0,1-1,131.89A72.61,72.61,0,0,0,1784.05,128.33Z"/><path class="cls-4" d="M1775.76,87.31c-.41,1-.79,2-1.15,3a47.76,47.76,0,0,0-5.18-2.53c-.77-.32-1.55-.62-2.33-.89.4-.88.79-1.76,1.16-2.67a72.59,72.59,0,0,0-32.87-91.65A72.61,72.61,0,0,1,1857,43.75,72.6,72.6,0,0,0,1775.76,87.31Z"/><path class="cls-4" d="M1768.93,160.12q-.36-1.58-.78-3.12a46.83,46.83,0,0,0,5.7-.89c.82-.19,1.62-.39,2.42-.62q.26,1.42.57,2.85a72.6,72.6,0,0,0,79.52,56.2,72.61,72.61,0,0,1-128.92,27.85A72.6,72.6,0,0,0,1768.93,160.12Z"/><circle class="cls-6" cx="1743.5" cy="123.87" r="51.5"/><line class="cls-4" x1="1692" y1="124" x2="1457" y2="122"/><circle class="cls-5" cx="1791.14" cy="443.02" r="72.59"/><circle class="cls-5" cx="1791.95" cy="595.49" r="72.59"/><path class="cls-4" d="M1792,525.33c1.08,0,2.15,0,3.21.08a45.52,45.52,0,0,1-.37-5.75c0-.84,0-1.67.07-2.5q-1.45.06-2.91.06a72.6,72.6,0,0,1-72.23-65.3,72.61,72.61,0,0,0,1,131.89A72.61,72.61,0,0,1,1792,525.33Z"/><path class="cls-4" d="M1800.24,484.31c.41,1,.79,2,1.15,3a47.76,47.76,0,0,1,5.18-2.53c.77-.32,1.55-.62,2.33-.89-.4-.88-.79-1.76-1.16-2.67a72.59,72.59,0,0,1,32.87-91.65A72.61,72.61,0,0,0,1719,440.75,72.6,72.6,0,0,1,1800.24,484.31Z"/><path class="cls-4" d="M1807.07,557.12q.36-1.57.78-3.12a46.83,46.83,0,0,1-5.7-.89c-.82-.19-1.62-.39-2.42-.62q-.26,1.43-.57,2.85a72.6,72.6,0,0,1-79.52,56.2,72.61,72.61,0,0,0,128.92,27.85A72.6,72.6,0,0,1,1807.07,557.12Z"/><circle class="cls-6" cx="1832.5" cy="520.87" r="51.5"/><line class="cls-4" x1="1884" y1="521" x2="2119" y2="519"/><circle class="cls-5" cx="1770.86" cy="826.02" r="72.59"/><circle class="cls-5" cx="1770.05" cy="978.49" r="72.59"/><path class="cls-4" d="M1770.05,908.33c-1.08,0-2.15,0-3.21.08a45.52,45.52,0,0,0,.37-5.75c0-.84,0-1.67-.07-2.5q1.45.06,2.91.06a72.6,72.6,0,0,0,72.23-65.3,72.61,72.61,0,0,1-1,131.89A72.61,72.61,0,0,0,1770.05,908.33Z"/><path class="cls-4" d="M1761.76,867.31c-.41,1-.79,2-1.15,3a47.76,47.76,0,0,0-5.18-2.53c-.77-.32-1.55-.62-2.33-.89.4-.88.79-1.76,1.16-2.67a72.59,72.59,0,0,0-32.87-91.65A72.61,72.61,0,0,1,1843,823.75,72.6,72.6,0,0,0,1761.76,867.31Z"/><path class="cls-4" d="M1754.93,940.12q-.36-1.57-.78-3.12a46.83,46.83,0,0,0,5.7-.89c.82-.19,1.62-.39,2.42-.62q.26,1.43.57,2.85a72.6,72.6,0,0,0,79.52,56.2,72.61,72.61,0,0,1-128.92,27.85A72.6,72.6,0,0,0,1754.93,940.12Z"/><circle class="cls-6" cx="1729.5" cy="903.87" r="51.5"/><line class="cls-4" x1="1678" y1="904" x2="1443" y2="902"/><path class="cls-3" d="M2009,132l-59,3c-4.76,7.52-9.46,15.51-14,24a385.31,385.31,0,0,0-36,97,137.19,137.19,0,0,1-14,17,140.93,140.93,0,0,1-45,31l32,2a92.23,92.23,0,0,0,49-11c37.77-20.84,45.88-61.82,47-68a143.4,143.4,0,0,1,7-40A145.6,145.6,0,0,1,2009,132Z"/><path class="cls-3" d="M2009,113l-59-3c-4.76-7.52-9.46-15.51-14-24a385.31,385.31,0,0,1-36-97,137.19,137.19,0,0,0-14-17,140.93,140.93,0,0,0-45-31l32-2a92.23,92.23,0,0,1,49,11c37.77,20.84,45.88,61.82,47,68a143.4,143.4,0,0,0,7,40A145.6,145.6,0,0,0,2009,113Z"/><path class="cls-3" d="M2016.56,518.5l-59,3c-4.76,7.52-9.45,15.51-14,24a385.31,385.31,0,0,0-36,97,137.19,137.19,0,0,1-14,17,140.82,140.82,0,0,1-45,31l32,2a92.23,92.23,0,0,0,49-11c37.78-20.85,45.89-61.82,47-68a143.71,143.71,0,0,1,7-40A145.77,145.77,0,0,1,2016.56,518.5Z"/><path class="cls-3" d="M2016.56,499.5l-59-3c-4.76-7.52-9.45-15.51-14-24a385.31,385.31,0,0,1-36-97,137.19,137.19,0,0,0-14-17,140.82,140.82,0,0,0-45-31l32-2a92.23,92.23,0,0,1,49,11c37.78,20.84,45.89,61.82,47,68a143.77,143.77,0,0,0,7,40A145.86,145.86,0,0,0,2016.56,499.5Z"/><path class="cls-3" d="M2004.56,909l-59,3c-4.76,7.52-9.45,15.51-14,24a385.31,385.31,0,0,0-36,97,137.19,137.19,0,0,1-14,17,140.82,140.82,0,0,1-45,31l32,2a92.23,92.23,0,0,0,49-11c37.78-20.85,45.89-61.82,47-68a143.71,143.71,0,0,1,7-40A145.77,145.77,0,0,1,2004.56,909Z"/><path class="cls-3" d="M2004.56,890l-59-3c-4.76-7.52-9.45-15.51-14-24a385.31,385.31,0,0,1-36-97,137.19,137.19,0,0,0-14-17,140.82,140.82,0,0,0-45-31l32-2a92.23,92.23,0,0,1,49,11c37.78,20.84,45.89,61.82,47,68a143.77,143.77,0,0,0,7,40A145.86,145.86,0,0,0,2004.56,890Z"/><circle class="cls-5" cx="-50.86" cy="238.02" r="72.59"/><circle class="cls-5" cx="-50.05" cy="390.49" r="72.59"/><path class="cls-4" d="M-34.93,352.12q.36-1.58.78-3.12a46.83,46.83,0,0,1-5.7-.89c-.82-.19-1.62-.39-2.42-.62q-.25,1.42-.57,2.85a72.6,72.6,0,0,1-79.52,56.2,72.59,72.59,0,0,0,55,55.08A72.59,72.59,0,0,0,6.56,434.39,72.6,72.6,0,0,1-34.93,352.12Z"/><circle class="cls-6" cx="-9.5" cy="315.87" r="51.5"/><line class="cls-4" x1="42" y1="316" x2="277" y2="314"/><path class="cls-4" d="M-74.95,709.33c-1.08,0-2.15,0-3.21.08a45.52,45.52,0,0,0,.37-5.75c0-.84,0-1.67-.07-2.5q1.45.06,2.91.06a72.6,72.6,0,0,0,72.23-65.3A72.59,72.59,0,0,1,39,701.63,72.59,72.59,0,0,1-3.74,767.81,72.61,72.61,0,0,0-74.95,709.33Z"/></g></svg>