<svg id="Layer_2" data-name="Layer 2" xmlns="http://www.w3.org/2000/svg" viewBox="0 0 879 858"><defs><style>.cls-1{fill:#adadac;}.cls-2{fill:#fff;}</style></defs><title>Artboard 10</title><circle class="cls-1" cx="436.5" cy="430.5" r="401.5"/><path class="cls-2" d="M251.73,328.56c-5.11,30.27-4.33,61.2,4.14,90.81,2.12,7.41,13.7,4.26,11.57-3.19-7.86-27.46-8.88-56.31-4.14-84.43,1.28-7.55-10.29-10.8-11.57-3.19Z"/><path class="cls-2" d="M577.31,308.8c17.34,37.08,21.51,78.64,19.13,119.1-.45,7.72,11.55,7.69,12,0,2.51-42.7-2.51-86.1-20.76-125.16-3.27-7-13.62-.9-10.37,6.06Z"/><path class="cls-2" d="M239.49,409.27c-5.62,2.26-10.94,5.64-11.68,12.17-.81,7.15-.18,14.86.44,22,1.29,14.81,4.33,29.38,7.37,43.91,2.72,12.94,5.31,25.35,11.86,37a74.54,74.54,0,0,0,24.73,26.32c6.51,4.19,12.53-6.19,6.05-10.36-18.1-11.65-25.73-30.44-29.92-50.68-2.39-11.57-5-23.11-6.74-34.8a176,176,0,0,1-1.83-18.9c-.12-2.84-.16-5.69-.1-8.53.06-3.63-.63-5.1,3-6.57,7.08-2.84,4-14.45-3.19-11.57Z"/><path class="cls-2" d="M261.47,413.94l-.28,0,1.6.21a5.94,5.94,0,0,1-1.31-.37l1.44.6a8,8,0,0,1-1.4-.84l1.22.94a12.33,12.33,0,0,1-1.41-1.29,6,6,0,1,0-8.49,8.49,17,17,0,0,0,3.3,2.69,12.07,12.07,0,0,0,5.33,1.6,6,6,0,0,0,4.24-1.76,6,6,0,0,0,0-8.48,6.88,6.88,0,0,0-4.24-1.76Z"/><path class="cls-2" d="M608.41,431.65C614.92,423.46,623,442.7,624,447c2.56,11-5.56,19.64-7,30.19-1.56,11.23-3.57,21.52-8.2,32-2.21,5-4.69,9.86-7.21,14.7-1.24,2.37-3.91,9.9-7.2,10.21-7.63.71-7.7,12.72,0,12,6.51-.61,10.77-4.34,14.13-9.78A177.93,177.93,0,0,0,618.72,516a116.33,116.33,0,0,0,7.76-21.84c1.69-7.39,1.23-15.45,4.19-22.48,2.76-6.54,6-12.24,5.94-19.57s-2.61-14.66-6.26-20.94c-3.15-5.44-7.65-10.82-13.92-12.64-5.83-1.68-12.64-.24-16.51,4.63-4.75,6,3.68,14.53,8.49,8.48Z"/><path class="cls-2" d="M270.85,544.77c4,33.65,9.1,66.65,30.56,94.05,10.67,13.62,23,26.11,34.82,38.7,11.67,12.43,25.26,21.05,40.57,28.33s30.83,16.46,48.21,16.57c16.4.1,34.31-.61,49.41-7.57,15.59-7.19,27.78-21.36,40.06-33,13.07-12.35,27.24-24.2,38.83-38,6.15-7.32,11.25-15.42,16.37-23.47a171.17,171.17,0,0,0,14-25.7c7.14-17.11,6.31-37,15.41-53.24,3.77-6.75-6.59-12.81-10.36-6.06-7.45,13.35-8.55,28.38-12.21,42.93-4,16-13.08,29.79-22,43.46-9,13.83-20.18,24.81-32.1,36.07-12.72,12-25.13,24.5-38.31,36-5.93,5.18-12.39,9.68-19.93,12.15s-15.3,3.35-23.15,3.81-16.53,1.39-24.4-.09c-7.72-1.45-14.85-5.48-21.92-8.75-14.32-6.64-29.49-13-41.45-23.53s-22.4-23.18-33-35c-12.16-13.49-22-27.83-27.63-45.25-5.46-17-7.67-34.82-9.75-52.5-.89-7.57-12.9-7.66-12,0Z"/><path class="cls-2" d="M404.35,362.87c.51,1.49,1.9,4.23,1.35,5.79-.64,1.84-1,1.46-3.36,1.27-4.79-.37-9.55-1.15-14.32-1.59-10.31-.94-20.73-1.33-31-.11a85.51,85.51,0,0,0-28.26,8.08c-4.47,2.22-8.73,4.84-13.31,6.86a164.71,164.71,0,0,1-16.19,5.76l7.59,5.79c-.28-9.06,12.5-11.59,19.11-13.93,9.44-3.35,18.85-6.76,28.3-10,4.31-1.48,8.75-3,13.31-3.51s9.05.15,13.54.6a95.26,95.26,0,0,0,28.29-1.45c7.57-1.5,4.37-13.07-3.19-11.57-11,2.18-21.27,1-32.32.35s-21.48,3.53-31.82,7.19-21,6.88-31.07,11.2c-8.83,3.79-16.47,10.85-16.15,21.15.12,3.74,3.76,7,7.6,5.78,5.88-1.88,11.74-3.82,17.42-6.26s10.92-5.74,16.52-8.33c10.7-5,22.65-6.44,34.33-6.44,5.79,0,11.57.35,17.34.87,5.61.52,11.53,2,17.18,1.67,12.35-.62,14-12.8,10.72-22.33-2.5-7.26-14.09-4.14-11.57,3.19Z"/><path class="cls-2" d="M462,356.51c-1.42,8.7-.32,20.06,10.66,21.22,5.76.61,11.77-2.21,17.22-3.74,6-1.7,12.11-3.23,18.26-4.38,11.89-2.22,24.35-2.87,36.14.21,5.7,1.48,11.15,3.76,16.86,5.22a169.43,169.43,0,0,0,18.46,3.29c3.32.47,8.16-1.46,7.59-5.78-1.26-9.52-7.8-15.59-16.77-18.42-10.91-3.45-23.07-4.35-34.33-6.29-10.74-1.85-21.51-4.25-32.39-2.14-5.37,1-10.54,2.94-15.92,4A80.21,80.21,0,0,1,470,351.05c-7.73-.2-7.72,11.8,0,12a94.89,94.89,0,0,0,27.24-3.27c4.74-1.28,9.37-2.84,14.32-3a67.86,67.86,0,0,1,13.71,1.33c9.59,1.63,19.17,3.3,28.76,4.95,5.75,1,20.09,1.53,21.15,9.5l7.6-5.79A166,166,0,0,1,553.38,360a84.3,84.3,0,0,0-30.28-4.21A148.07,148.07,0,0,0,493,360.71c-5.14,1.31-10.2,2.93-15.31,4.33-2,.54-3.4,1.56-4.31-.21-.63-1.23-.06-3.84.15-5.13,1.24-7.56-10.32-10.81-11.57-3.19Z"/><path class="cls-2" d="M462.71,436.32C467,450,474.59,461,484.68,471c4,4,9.06,8.56,9.8,14.49s-2.36,9.29-8.33,8.5c-7-.92-13-2.1-19.82.62C459.94,497.15,454.56,502,448,504c-7.68,2.29-10.08-3.28-15.23-7.61-5.33-4.49-11.76-5.07-18.47-4.85-4.95.17-9.91.41-14.86.59-2.31.08-7,.79-9-.88-2.56-2.22,1.23-6.62,2.68-8.58a35.22,35.22,0,0,0,5.71-10.22c2.36-7.37-9.22-10.53-11.58-3.19-1.22,3.8-4.24,6.62-6.32,9.95a19.5,19.5,0,0,0-3.26,12c.81,8.09,7.93,12.06,15.33,12.81,8.66.88,17.42-1.12,26.09-.55,8.08.54,11.35,10,19,12.34,8,2.51,16.29-.89,23.16-4.91,3.38-2,6.69-4.31,10.44-5.54,4.36-1.42,8.47-.18,12.86.43,7.57,1.07,15.11-.87,19.18-7.82,3.28-5.6,3.58-12.93,1.45-19-2.95-8.37-9.94-14.17-15.91-20.36a63.83,63.83,0,0,1-15-25.52c-2.28-7.35-13.87-4.21-11.57,3.19Z"/><path class="cls-2" d="M572.69,286a67,67,0,0,1,1.79,7.27c.56,3.1,4.48,5.13,7.38,4.19a6.16,6.16,0,0,0,4.19-7.38,67,67,0,0,0-1.79-7.27c-.92-3-4.24-5.21-7.38-4.19s-5.18,4.17-4.19,7.38Z"/><path class="cls-2" d="M267,283.3c3.16-14.54,9.82-27.44,17.48-40.08,7-11.62,14.82-22.55,24.29-32.33a150.28,150.28,0,0,1,30.33-24.24c11.89-7.19,24.52-12.07,37.58-16.66,15-5.27,30-10.5,44.51-17,7.39-3.31,14.43-7.71,22.17-10.17a71.3,71.3,0,0,1,22.91-3.8,100.29,100.29,0,0,1,24.07,3.87c6.76,1.81,16.85,3.3,21.74,8.62,5.51,6,7.88,14.73,10.9,22.14,3.14,7.69,6.23,15.41,9.34,23.12,7.06,17.5,14.25,35,22.28,52,3.64,7.74,6.19,15.47,10,23.16,4,8,8.06,16.06,12.81,23.7,4.06,6.55,14.45.53,10.36-6.06-4.44-7.14-8.28-14.6-12-22.12-1.55-3.11-3.79-6.44-4.62-9.79-1.1-4.43-2.92-8.12-4.91-12.29-7.69-16.13-14.55-32.62-21.25-49.18-3.36-8.29-6.68-16.6-10.05-24.89-3.18-7.81-5.78-16.87-10.71-23.75a36.94,36.94,0,0,0-7.15-7.77c-3.42-2.67-7.73-3.67-11.81-5a170.13,170.13,0,0,0-24.52-6.35c-16.58-2.76-33.36-1.11-48.76,5.93-8,3.67-15.71,7.89-23.88,11.25-7.93,3.26-16,6.19-24.08,9.05-14.35,5.09-28.88,9.69-42.41,16.76a162.85,162.85,0,0,0-34.32,24.13,173.87,173.87,0,0,0-30,36.39c-9.39,15-18.06,30.63-21.86,48.12-1.64,7.52,9.93,10.74,11.57,3.19Z"/><path class="cls-2" d="M585.85,301c8.1,0,14.93,3.74,21.68,7.84a159.08,159.08,0,0,0,20.4,10.91c10.66,4.53,29.47,10.44,28.74,25-.6,11.9-10.91,22.65-18.86,30.56-11.9,11.85-24.39,23.59-38.75,32.41-6.57,4-.55,14.42,6.05,10.36,13.26-8.14,24.76-18.6,36-29.28,8.61-8.19,17.32-16.95,22.8-27.63,5.27-10.25,7-22.5,0-32.42-8.31-11.71-22.62-15.84-35-21.57-14.36-6.62-26.33-18.11-43-18.14-7.72,0-7.73,12,0,12Z"/><path class="cls-2" d="M258.94,292.57a311,311,0,0,0-41.05,20.27c-10.7,6.2-23.29,12.88-30.54,23.27-6.81,9.76-5.63,23.27-1.85,34,3.87,11,10.9,20.58,19.27,28.61,9.67,9.28,21,16.75,32.74,23.17,6.77,3.71,12.84-6.65,6.05-10.36-20.83-11.41-46.41-28.87-48.84-54.82-.61-6.54.34-12.06,5-16.88,4.42-4.55,10-8.17,15.41-11.46,15-9.19,30.61-17.75,47-24.24,7.1-2.82,4-14.43-3.19-11.58Z"/><path class="cls-2" d="M568,285.68c-18.4-5.19-36.07-13-54.71-17.4-18.95-4.45-38.74-5.78-58.16-5.39A511.47,511.47,0,0,0,396.16,267c-9.94,1.35-19.68,3.59-29.69,4.1-4.3.22-8.41,1.29-12.68,1.7-5.24.51-10.53.62-15.78.92-21.3,1.2-42.29,3.61-62.08,12-3,1.27-3.61,5.65-2.15,8.21,1.76,3.11,5.24,3.41,8.2,2.15,16.85-7.14,35.23-9.12,53.32-10.2,9.63-.58,19.05-1.26,28.61-2.54,3.85-.52,7.78-.28,11.64-.77,5.08-.64,10.13-1.93,15.2-2.74,19-3,38.33-4.27,57.58-4.81s38.34,0,57.21,3.84c20.29,4.08,39.36,12.76,59.23,18.36,7.45,2.1,10.63-9.47,3.19-11.57Z"/><path class="cls-2" d="M437.44,200.91c5.82-7.71,14.15-13.29,21.25-19.71,7.45-6.72,13.7-14.49,16.57-24.24,2.19-7.42-9.39-10.59-11.57-3.19-5.3,18-25.8,26.75-36.61,41.09-4.65,6.16,5.77,12.15,10.36,6Z"/><path class="cls-2" d="M341.86,250.89c29.66-3.48,58.16-15.09,80.57-35.06,5.78-5.15-2.73-13.61-8.49-8.49-19.83,17.68-45.78,28.47-72.08,31.55-7.58.89-7.67,12.9,0,12Z"/><path class="cls-2" d="M470.19,159.53c7.72,0,7.73-12,0-12s-7.74,12,0,12Z"/><path class="cls-2" d="M262.31,299.07a20.06,20.06,0,0,1,3.58-14.78c4.35-6.41-6-12.42-10.36-6.06-4.87,7.18-6.22,15.57-4.79,24,1.28,7.59,12.84,4.37,11.57-3.19Z"/><path class="cls-2" d="M565.81,296.89c.69.23,1.36.47,2,.74-1.17-.47.56.28.78.39a33.87,33.87,0,0,1,3.5,2,6,6,0,0,0,8.21-2.16,6.13,6.13,0,0,0-2.15-8.2,39.47,39.47,0,0,0-9.18-4.37,6,6,0,0,0-7.38,4.19,6.15,6.15,0,0,0,4.19,7.38Z"/><path class="cls-2" d="M244.44,422.27a25.37,25.37,0,0,1,11.4.07c7.52,1.76,10.72-9.81,3.19-11.57a39.25,39.25,0,0,0-17.78-.07c-7.54,1.67-4.35,13.25,3.19,11.57Z"/><path class="cls-2" d="M471.72,430.55a10.3,10.3,0,0,1-2.06-7.61c.55-3.19-.86-6.47-4.19-7.38-2.9-.8-6.82,1-7.38,4.19a22.39,22.39,0,0,0,3.26,16.86,6.15,6.15,0,0,0,8.21,2.15c2.65-1.54,4-5.52,2.16-8.21Z"/><path class="cls-2" d="M275.31,299a40.16,40.16,0,0,0,6-2.76,6,6,0,0,0-6.05-10.36,32.58,32.58,0,0,1-3.35,1.66l1.44-.6-1.27.49a6.51,6.51,0,0,0-3.59,2.76,6.12,6.12,0,0,0-.6,4.62c.93,2.88,4.23,5.36,7.38,4.19Z"/><path class="cls-2" d="M269,324.3c6.23-9,16.29-12.83,26.5-15.41,5.29-1.34,10.66-2.36,16-3.59s11.6-2.26,16.13-5.19c5.53-3.59,13.69-3.74,20.18-4.2,7.4-.52,14.82-.61,22.22-1.17,15.06-1.14,30.13-4.05,45-6.57,7.6-1.29,4.38-12.86-3.19-11.58-16,2.71-32.09,5.74-48.3,6.54-8,.4-16.07.58-24.06,1.59a103.4,103.4,0,0,0-11.71,2.13c-2.5.61-5.79,2.8-6.61,3.22-5,2.55-11.45,3.37-16.86,4.55-5.75,1.25-11.54,2.41-17.18,4.13-11.57,3.52-21.5,9.43-28.47,19.49-4.41,6.36,6,12.37,10.36,6.06Z"/><path class="cls-2" d="M266.35,417.24c-1.14-14.95-5.51-29.21-10.53-43.26-2.32-6.51-5.08-13.35-4.71-20.39.38-7.28,4.69-13.76,9.13-19.29,4.79-6-3.64-14.5-8.48-8.48s-9.44,12.51-11.51,20.07-1.06,15.49,1.15,22.9c4.83,16.14,11.66,31.43,12.95,48.45.57,7.65,12.58,7.71,12,0Z"/><path class="cls-2" d="M579.73,310.87c12.77,8.42,19.54,25.65,22.5,40.11,3.5,17.06-.85,34.71-5.87,51-2.28,7.4,9.3,10.56,11.57,3.19,5.86-19,10.11-39.35,5.5-59.11-4-17.24-12.49-35.56-27.65-45.55-6.46-4.26-12.48,6.12-6,10.36Z"/><path class="cls-2" d="M414.38,288.57c27.24-.19,54.85-1.73,82,.07,26.78,1.77,51.2,10.89,76.34,19.55,7.31,2.52,10.46-9.07,3.19-11.57-12.87-4.43-25.65-9.27-38.72-13.07a192,192,0,0,0-39-6.78c-27.77-2.1-56.06-.39-83.89-.2-7.72.05-7.73,12.05,0,12Z"/><path class="cls-2" d="M258.32,374.16a90.08,90.08,0,0,1-4.57-16c-.31-1.73-2.44-13.93.44-14.5l-7.6-5.79c-.17,4.15-1.94,8.34-2.26,12.57a54.79,54.79,0,0,0,.81,12.78c1.1,6.68,12.09,5.1,11.79-1.6a67.16,67.16,0,0,1,.27-13.07c.64-4.24,2.93-8,2.88-12.34-.08-6.55-10.4-8.42-11.78-1.59a196.67,196.67,0,0,0-3.12,20.79c-.58,6.22-1.82,12.45,2.26,17.63,4.77,6.07,13.21-2.48,8.48-8.49,1.14,1.45.88-4.33,1-5.27q.24-3.39.61-6.77c.55-4.94,1.4-9.83,2.39-14.7l-11.79-1.6c0,2.1-1.46,4.52-2,6.56a48.19,48.19,0,0,0-1,5.83,80.88,80.88,0,0,0-.24,13L256.72,360a38,38,0,0,1-.15-11.71c.53-3.57,1.87-6.82,2-10.45.18-4.14-4-6.51-7.59-5.78-8.37,1.67-10.37,12-10.07,19.22a83.25,83.25,0,0,0,5.82,26.08c2.73,7.14,14.34,4,11.57-3.19Z"/><path class="cls-2" d="M610.89,379.24c2.07-12.2.16-24.16-4.06-35.72-2-5.39-4.31-10.64-6.66-15.87-2.61-5.78-6.21-11.93-6.82-18.34l-11.19,3a84,84,0,0,1,9.78,21.16c2.37,7.89,4.07,15.94,7,23.65,2.2,5.73,12.67,5.67,11.78-1.6-1.06-8.63-2.46-17.18-4.33-25.68-1.21-5.53-10.64-5.91-11.57,0-1,6.08-.29,11.71,1,17.7,1.16,5.44,3,11.59.36,16.89l11,1.44-5-26.45-10,5.84c1.82,1.66,1.76,6,2.16,8.28l1.86,10.69c1,5.88,3.23,12.49.83,18.24l11.57,3.19c1-6.76,2.41-13.6,2.88-20.43.44-6.42-2.87-12.37-2.25-18.63l-11.78,1.59c1,5.58,2.75,16,11.18,13.21,7.45-2.49,5.2-12.68,2.06-17.62-4.14-6.49-14.53-.48-10.37,6.06.1.15,1.5,2.8,1.54,2.75l3.58-2.76-.81.18,4.62.61c1.85,1.24,1,.75.57-1.4l-.8-4.22c-1.35-7.13-11.17-4.64-11.79,1.6-.58,5.88,2.36,11.13,2.33,16.92,0,6.27-1.61,12.76-2.53,18.95-1.14,7.7,8.59,10.35,11.57,3.19,3.24-7.76.55-16.72-.83-24.62-1.31-7.53-1.11-18.78-7.1-24.27-4.58-4.2-11.14,0-10,5.84l5,26.45c.95,5,8.75,5.94,11,1.43,2.79-5.65,3.32-11.34,2.49-17.54-.88-6.53-3.67-13.27-2.63-19.92H594.85c1.64,7.44,3,14.93,3.9,22.49L610.54,354c-3.18-8.28-4.89-17-7.57-25.4a94.58,94.58,0,0,0-10.44-22.28c-2.95-4.61-11.79-3.27-11.18,3,1.09,11.5,7.57,21.75,11.9,32.26,4.47,10.83,8.08,22.66,6.07,34.48-1.28,7.55,10.28,10.8,11.57,3.19Z"/><path class="cls-2" d="M262,332.27a12.81,12.81,0,0,1,7.17-7.67l-6.78-8.82-12.78,17.27L260,339.11c4-8,10.25-14.66,17-20.37,6.52-5.51,14.05-9.52,22.78-9.11,4.81.23,9.46,1.09,14.29.57,5-.54,9.92-2.09,14.8-3.38l30.24-8c6.32-1.67,5.28-12.65-1.59-11.78-23.37,2.95-44.66,11.73-66.5,20.07-9.85,3.75-19.92,7.16-28,14.11a48.23,48.23,0,0,0-15,24.41c-2,7.48,9.45,10.61,11.58,3.19,2.67-9.34,9.09-16.73,16.06-23.25,6.7-6.27,14.71-12,24.16-12.44l-1.59-11.79c-12.21,2-24,4.71-33.65,13-4.57,3.93.29,11.79,5.84,10l38.09-12.06c6.08-1.93,5.42-12.72-1.6-11.79a71.22,71.22,0,0,0-9.49,1.81l4.62,11a143.47,143.47,0,0,1,51.7-13c6.67-.4,8.25-9.75,1.6-11.79a22.79,22.79,0,0,0-12.63.14c-3.78,1-8,3.23-12,2.51v11.57c6.53-1,12.2-4.46,18.56-6,6.69-1.65,13.87,1.58,20.59,2.18,7.43.65,15,0,22.35-.69,7.14-.67,14.16-1.75,20.25-5.82,4.51-3,3.35-11.74-3-11.18q-32.9,2.92-65.69,6.92c-7.57.92-7.66,12.93,0,12q32.79-4,65.69-6.92l-3-11.18c-5.83,3.89-12.82,4.12-19.6,4.63-7.53.57-15.09.91-22.53-.67-6.5-1.38-12.38-2.44-18.94-.65-6.08,1.65-11.53,4.84-17.81,5.83-5.79.91-5.67,10.54,0,11.57a27.58,27.58,0,0,0,12.85-.85c3.83-1.09,7.78-3,11.78-1.8l1.59-11.78A159.6,159.6,0,0,0,296,302.86c-6.27,2.91-1.79,12.73,4.63,11a46.54,46.54,0,0,1,6.3-1.38l-1.59-11.79-38.09,12.07,5.83,10c7.79-6.69,18.56-8.26,28.36-9.88,6.66-1.1,5.11-12.13-1.6-11.78-12.25.62-22.55,6.8-31.46,14.87S251.39,333.78,248,345.6l11.58,3.19a36.51,36.51,0,0,1,13-20c7.76-5.91,17.85-8.68,26.85-12.11,19-7.24,37.77-15.07,58.08-17.64l-1.6-11.79-32.13,8.53c-5.5,1.46-10.65,2.95-16.4,2.55-5.45-.37-10.55-1.07-16-.1-8.92,1.58-16.77,6.75-23.5,12.59-7.21,6.26-14,13.68-18.28,22.26-3.52,7,5.82,12.2,10.36,6.06l12.79-17.27c3-4-2-10.73-6.78-8.82a26,26,0,0,0-15.55,16.06c-2.59,7.29,9,10.43,11.57,3.19Z"/><path class="cls-2" d="M260.68,303.93l15.37-4.54c7.39-2.18,4.24-13.76-3.19-11.57l-15.37,4.53c-7.39,2.19-4.24,13.77,3.19,11.58Z"/><path class="cls-2" d="M600.79,325.88c-8.13-14-17-26.72-32.65-32.78-8.07-3.13-16.7-4.38-25.22-5.6q-13.9-2-27.87-3.42c-18.84-1.87-37.75-2.72-56.67-3.28-18.54-.54-37.48-2-56,0-7.57.84-7.86,11.51,0,12q15.51.94,31,1.9c9.1.56,17.82.58,26.19-3.46,5.66-2.73,2.52-11-3-11.18l-23.51-.88v12c15-.64,29.76,4.32,44.78,2.31,3-.4,5.46-2,5.9-5.2.36-2.66-1.35-6.14-4.3-6.58l-22.75-3.44-1.59,11.78c7.86-.75,15.79.54,23.61,1.32l24.66,2.48c6.75.68,8.12-10.28,1.6-11.79l-21.77-5-1.6,11.79c9.4,1,18.57,3.45,27.75,5.64s18.34,3.14,27.49,5c8.35,1.69,15.36,7.46,23.64,9.76a91.34,91.34,0,0,1,24.16,10.55c5.73,3.51,12.37-4.78,7.27-9.42a86.22,86.22,0,0,0-37.79-20.17c-7.5-1.81-10.7,9.72-3.19,11.58.95.23,1.93.48,2.33,1.51a6.36,6.36,0,0,0,5.79,4.4L562,308c6.3.53,7.66-8.19,3-11.18A92.86,92.86,0,0,0,515.2,282c-7.72-.06-7.73,11.94,0,12A81,81,0,0,1,559,307.15L562,296l-2.91-.24,5.79,4.41c-2-5-5.35-8.57-10.72-9.9L551,301.81a73.4,73.4,0,0,1,32.49,17.08l7.28-9.43a94.48,94.48,0,0,0-25.27-11.3,56.87,56.87,0,0,1-13-5.18,44.33,44.33,0,0,0-12.37-5.05c-9.76-2-19.58-3.09-29.32-5.43s-19.24-4.54-29.11-5.63c-6.74-.75-8.11,10.28-1.59,11.78l21.77,5,1.59-11.79-24.66-2.48c-7.82-.78-15.76-2.07-23.61-1.32-6.14.59-8.82,10.69-1.6,11.79l22.75,3.44,1.59-11.79c-15,2-29.75-2.95-44.78-2.31-7.71.32-7.73,11.71,0,12l23.51.88-3-11.18c-7.26,3.5-16.16,2.07-23.9,1.59l-27.26-1.67v12c16.9-1.88,34.12-.63,51.07-.16,17.94.49,35.87,1.14,53.75,2.69,16.75,1.44,34.2,2.74,50.51,7,7.44,1.95,14.15,5.13,19.58,10.68s9.25,12.29,13.1,18.9,14.26.64,10.36-6.06Z"/><path class="cls-2" d="M574.94,298.42a94,94,0,0,0,10.23,2.45c3.19.57,6.47-.87,7.38-4.19.8-2.91-1-6.8-4.19-7.38a94,94,0,0,1-10.23-2.45,6,6,0,0,0-3.19,11.57Z"/><path class="cls-2" d="M259.91,281.94l5.41,2.37V274c-5,2.25-9.91,5.49-11.26,11.15-1.18,4.94.92,10.68,5.67,12.86l1.43-11L256,288.32l3.19,11.57a11.91,11.91,0,0,0,7.47-5.95c1.72-3.15,1.72-7,3.41-10.11,1.36-2.46,6.15-1.74,9.3-2.36,5.6-1.1,10.85-3.52,16.06-5.79,21.25-9.23,44.18-12.05,66.91-15.4,24.56-3.61,49.17-8.1,73.88-10.54,23.53-2.33,47.09-2.84,70.19,2.73a279.16,279.16,0,0,1,35.74,11.29c9.56,3.72,19.18,8.72,24.41,17.93,3.82,6.71,14.19.67,10.37-6.06-10.41-18.3-33.39-24.72-52.18-30.54a210,210,0,0,0-34.84-7.84c-12-1.56-23.89-1.25-35.95-.69-26,1.2-51.76,5.82-77.51,9.61-24,3.53-49,5.67-72.2,13.29C298,261.51,292,264.29,286,266.77a49.33,49.33,0,0,1-9.83,3.13c-2.51.45-5.14.31-7.62.93-4.95,1.22-8.09,4.71-9.87,9.35-.69,1.79-1.13,3.63-1.67,5.46a13.44,13.44,0,0,1-.6,1.93c-.56,1.21-.46.76-.42.75-7.43,2.1-4.31,13.49,3.19,11.57l5.21-1.33c4.68-1.19,6.23-8.76,1.43-11,.09,0-.7,1,.82-.76,1-1.2,3.39-1.9,4.78-2.53,3.89-1.76,4-8.62,0-10.36L266,271.58c-7-3.07-13.12,7.26-6.06,10.36Z"/><path class="cls-2" d="M260.81,296.72c21.35-.67,42-9,62.6-14a592.77,592.77,0,0,1,63.13-11.59,608.72,608.72,0,0,1,63.71-4.73c21.24-.46,42.89-.36,64,2.09,11.31,1.31,20.6,5.45,30.91,9.92a105.84,105.84,0,0,0,13.35,4.4c3.16.91,7.85,1.89,8.92,5.45l7.39-7.38A408.13,408.13,0,0,0,449.74,253c-43.3-2.67-87.24,2-129.94,9-21.65,3.59-43.27,9.37-61.73,21.66-5.45,3.63-2.18,13,4.63,11L322.06,277c19.74-5.86,39.41-12.32,59.38-17.34,39.43-9.93,80.16-4.69,119.53,2.74,21.1,4,43.81,6.83,63.12,16.72l6.06-10.36c-36.46-17.85-76.91-27.37-117.57-26.43-21.23.49-42,4.37-62.65,8.88q-33.24,7.25-66.49,14.53c-11.88,2.6-23.8,5-35.64,7.81-10.55,2.47-20.59,6-28.88,13.2-5.6,4.87,1.55,11.86,7.27,9.42L306.6,279c6.62-2.81,13.22-5.68,19.86-8.44s13.43-5.17,20.83-4.55V254a89.79,89.79,0,0,0-42,9.13c-6.63,3.2-1.54,11.91,4.62,11,26.68-4.1,53.32-8.44,80.05-12.2,26.16-3.68,53-6,79.23-1.62l1.59-11.79a318.86,318.86,0,0,0-136,21.66c-2.81,1.11-4.73,3.41-4.3,6.58.36,2.64,2.93,5.58,5.9,5.2l62.53-8.08c20.12-2.6,40.26-5.7,60.59-5.93,10-.12,20,.3,30,.76,10.36.46,20.78.8,30.86,3.44,9.86,2.58,19.08,7,28.31,11.22L576.28,296l4.63-11-38.13-14.42c-5.66-2.14-10.11,6.13-5.84,10,4.63,4.22,10,8.47,16.71,7.84,5.86-.55,11.1-5.34,11.67-11.28,1.42-15.06-23.66-13.79-33-13.73-6.64.05-8.31,10.18-1.6,11.79l34.56,8.32c7.66,1.84,10.27-8.82,3.19-11.57-18-7-36-14.4-54.14-21-17.66-6.41-36.12-8.09-54.73-9.37v12a136.63,136.63,0,0,1,82,15.51l-2.15-8.21c-1.59,3.3-9.21,1.24-12,.9l-20.59-2.53-42.16-5.17v12a169.16,169.16,0,0,0,28.93-4.29c6.49-1.55,5.23-12.18-1.6-11.79a125.2,125.2,0,0,1-31.92-2.13A6,6,0,0,0,457,259.47c14.57,5.19,30,.79,45,2.47a81.11,81.11,0,0,1,39.65,16.29c6.16,4.66,12.14-5.75,6-10.36a90.14,90.14,0,0,0-40.75-17.28,109.54,109.54,0,0,0-22.46-.82c-8.27.44-16.37.95-24.31-1.87L457,259.47A137.92,137.92,0,0,0,492.07,262l-1.59-11.78a151.05,151.05,0,0,1-25.74,3.86c-7.87.49-7.54,11.08,0,12l50,6.13c10.13,1.24,29.22,7,35.12-5.27,1.37-2.86.88-6.56-2.15-8.21a147.57,147.57,0,0,0-88.08-17.15c-7.55.91-7.87,11.46,0,12,18.27,1.26,36,3.14,53.24,9.57,17.57,6.53,35,13.57,52.44,20.37L568.5,272l-34.56-8.32-1.59,11.78c6.42,0,13.35,0,19.63,1.49.4.1,3.27,1.21,1.77-.16s.07.21-1.4-.21c-2.83-.8-4.77-2.47-6.93-4.44l-5.83,10,38.13,14.43c6.3,2.38,10.81-8.14,4.62-11C567.83,279,553.43,272,538.69,265.84c-15.32-6.37-30.74-8.3-47.2-9.06s-32.88-1.37-49.31,0-32.78,3.79-49.13,5.9L336.39,270,338,281.74a310.56,310.56,0,0,1,132.83-21.23c6.66.4,8.32-10.65,1.6-11.78-27.24-4.59-54.56-2.61-81.78,1.09-28,3.81-55.93,8.44-83.88,12.73l4.63,11A76.67,76.67,0,0,1,347.29,266c7.81.23,7.59-11.36,0-12-15.06-1.27-29.73,7.39-43.15,13.1l-44,18.73,7.27,9.43c6.83-5.94,15.74-8.31,24.38-10.3,10-2.29,20-4.39,30-6.57l62.74-13.71c19.87-4.35,39.71-8.85,60.08-10A234.56,234.56,0,0,1,502,258.44a246.49,246.49,0,0,1,62.12,20.72c6.89,3.37,13-6.82,6.06-10.36-17.64-9-37.25-12.35-56.52-16.11-20.38-4-40.88-7.66-61.59-9.45-20.5-1.77-41.17-1.49-61.46,2.19-20.81,3.78-41.1,10.95-61.34,17l-69.73,20.7,4.62,11c16-10.62,34.27-16,53-19.41,20.38-3.77,41.13-6.16,61.76-8.07,41.78-3.88,83.65-2.85,124.84,5.59a404.9,404.9,0,0,1,68,20.32c4.32,1.72,8.59-3.32,7.38-7.38-2.46-8.17-9.64-11.63-17.31-13.83a90.46,90.46,0,0,1-12.05-3.88c-4.94-2.18-9.69-4.73-14.78-6.56-9.69-3.49-20.17-4.45-30.38-5.16q-17.1-1.17-34.24-1.35A618.41,618.41,0,0,0,336,267.63q-18.68,3.93-37.07,9c-12.55,3.49-25,7.64-38.16,8.05-7.71.24-7.74,12.25,0,12Z"/><path class="cls-2" d="M567.79,283.45c-12.58-2.7-24-9.9-35.92-14.62a253.46,253.46,0,0,0-37.42-11.49c-7.52-1.7-10.73,9.87-3.19,11.57a254.17,254.17,0,0,1,37.41,11.49c12,4.73,23.28,11.91,35.93,14.62,7.53,1.62,10.75-9.94,3.19-11.57Z"/></svg>