<svg xmlns="http://www.w3.org/2000/svg" viewBox="0 0 1920 1080"><defs><style>.cls-1{fill:#492908;}.cls-2{fill:#404c3b;}.cls-3,.cls-7{fill:#4e6047;}.cls-4{fill:#bca106;}.cls-5{fill:#7c5118;}.cls-6{fill:#53657a;}.cls-7{stroke:#4e6047;stroke-miterlimit:10;stroke-width:4px;}</style></defs><title>Artboard 2</title><g id="Layer_5" data-name="Layer 5"><rect class="cls-1" width="1920" height="1080"/></g><g id="Layer_7" data-name="Layer 7"><path class="cls-2" d="M0,148H47a120.27,120.27,0,0,1,27,29c19.2,29.14,20.33,59,20,72a141.05,141.05,0,0,0,10,24,146.71,146.71,0,0,0,44,50H129a62.61,62.61,0,0,1-16-3c-50.36-16.55-62.5-93.64-64-104a146,146,0,0,0-17-34A146.36,146.36,0,0,0,0,148Z"/><path class="cls-3" d="M71,151l59,3c4.76,7.52,9.46,15.51,14,24a385.31,385.31,0,0,1,36,97,137.19,137.19,0,0,0,14,17,140.93,140.93,0,0,0,45,31l-32,2a92.23,92.23,0,0,1-49-11c-37.77-20.84-45.88-61.82-47-68a143.4,143.4,0,0,0-7-40A145.6,145.6,0,0,0,71,151Z"/><path class="cls-2" d="M0,135H47a120.27,120.27,0,0,0,27-29C93.2,76.86,94.33,47,94,34a141.05,141.05,0,0,1,10-24,146.71,146.71,0,0,1,44-50H129a62.61,62.61,0,0,0-16,3C62.64-20.45,50.5,56.64,49,67a146,146,0,0,1-17,34A146.36,146.36,0,0,1,0,135Z"/><path class="cls-3" d="M71,132l59-3c4.76-7.52,9.46-15.51,14-24A385.31,385.31,0,0,0,180,8,137.19,137.19,0,0,1,194-9a140.93,140.93,0,0,1,45-31l-32-2a92.23,92.23,0,0,0-49,11c-37.77,20.84-45.88,61.82-47,68a143.4,143.4,0,0,1-7,40A145.6,145.6,0,0,1,71,132Z"/><path class="cls-2" d="M581,148H534a120.27,120.27,0,0,0-27,29c-19.2,29.14-20.33,59-20,72a141.05,141.05,0,0,1-10,24,146.71,146.71,0,0,1-44,50h19a62.61,62.61,0,0,0,16-3c50.36-16.55,62.5-93.64,64-104a145.84,145.84,0,0,1,49-68Z"/><path class="cls-3" d="M510,151l-59,3c-4.76,7.52-9.46,15.51-14,24a385.31,385.31,0,0,0-36,97,137.19,137.19,0,0,1-14,17,140.93,140.93,0,0,1-45,31l32,2a92.23,92.23,0,0,0,49-11c37.77-20.84,45.88-61.82,47-68a143.4,143.4,0,0,1,7-40A145.6,145.6,0,0,1,510,151Z"/><path class="cls-2" d="M581,135H534a120.27,120.27,0,0,1-27-29c-19.2-29.14-20.33-59-20-72a141.05,141.05,0,0,0-10-24,146.71,146.71,0,0,0-44-50h19a62.61,62.61,0,0,1,16,3c50.36,16.55,62.5,93.64,64,104a146,146,0,0,0,17,34A146.36,146.36,0,0,0,581,135Z"/><path class="cls-3" d="M510,132l-59-3c-4.76-7.52-9.46-15.51-14-24A385.31,385.31,0,0,1,401,8,137.19,137.19,0,0,0,387-9a140.93,140.93,0,0,0-45-31l32-2a92.23,92.23,0,0,1,49,11c37.77,20.84,45.88,61.82,47,68a143.4,143.4,0,0,0,7,40A145.6,145.6,0,0,0,510,132Z"/><path class="cls-2" d="M0,536H47a120.27,120.27,0,0,1,27,29c19.2,29.14,20.33,59,20,72a141.05,141.05,0,0,0,10,24,146.71,146.71,0,0,0,44,50H129a62.61,62.61,0,0,1-16-3c-50.36-16.55-62.5-93.64-64-104a146,146,0,0,0-17-34A146.36,146.36,0,0,0,0,536Z"/><path class="cls-3" d="M71,539l59,3c4.76,7.52,9.46,15.51,14,24a385.31,385.31,0,0,1,36,97,137.19,137.19,0,0,0,14,17,140.93,140.93,0,0,0,45,31l-32,2a92.23,92.23,0,0,1-49-11c-37.77-20.84-45.88-61.82-47-68a143.4,143.4,0,0,0-7-40A145.6,145.6,0,0,0,71,539Z"/><path class="cls-2" d="M0,523H47a120.27,120.27,0,0,0,27-29c19.2-29.14,20.33-59,20-72a141.05,141.05,0,0,1,10-24,146.71,146.71,0,0,1,44-50H129a62.61,62.61,0,0,0-16,3c-50.36,16.55-62.5,93.64-64,104a146,146,0,0,1-17,34A146.36,146.36,0,0,1,0,523Z"/><path class="cls-3" d="M71,520l59-3c4.76-7.52,9.46-15.51,14-24a385.31,385.31,0,0,0,36-97,137.19,137.19,0,0,1,14-17,140.93,140.93,0,0,1,45-31l-32-2a92.23,92.23,0,0,0-49,11c-37.77,20.84-45.88,61.82-47,68a143.4,143.4,0,0,1-7,40A145.6,145.6,0,0,1,71,520Z"/><path class="cls-2" d="M581,536H534a120.27,120.27,0,0,0-27,29c-19.2,29.14-20.33,59-20,72a141.05,141.05,0,0,1-10,24,146.71,146.71,0,0,1-44,50h19a62.61,62.61,0,0,0,16-3c50.36-16.55,62.5-93.64,64-104a145.84,145.84,0,0,1,49-68Z"/><path class="cls-3" d="M510,539l-59,3c-4.76,7.52-9.46,15.51-14,24a385.31,385.31,0,0,0-36,97,137.19,137.19,0,0,1-14,17,140.93,140.93,0,0,1-45,31l32,2a92.23,92.23,0,0,0,49-11c37.77-20.84,45.88-61.82,47-68a143.4,143.4,0,0,1,7-40A145.6,145.6,0,0,1,510,539Z"/><path class="cls-2" d="M581,523H534a120.27,120.27,0,0,1-27-29c-19.2-29.14-20.33-59-20-72a141.05,141.05,0,0,0-10-24,146.71,146.71,0,0,0-44-50h19a62.61,62.61,0,0,1,16,3c50.36,16.55,62.5,93.64,64,104a145.84,145.84,0,0,0,49,68Z"/><path class="cls-2" d="M-7,926H40a120.27,120.27,0,0,1,27,29c19.2,29.14,20.33,59,20,72a141.05,141.05,0,0,0,10,24,146.71,146.71,0,0,0,44,50H122a62.61,62.61,0,0,1-16-3c-50.36-16.55-62.5-93.64-64-104a146,146,0,0,0-17-34A146.36,146.36,0,0,0-7,926Z"/><path class="cls-3" d="M64,929l59,3c4.76,7.52,9.46,15.51,14,24a385.31,385.31,0,0,1,36,97,137.19,137.19,0,0,0,14,17,140.93,140.93,0,0,0,45,31l-32,2a92.23,92.23,0,0,1-49-11c-37.77-20.84-45.88-61.82-47-68a143.4,143.4,0,0,0-7-40A145.6,145.6,0,0,0,64,929Z"/><path class="cls-2" d="M-7,913H40a120.27,120.27,0,0,0,27-29c19.2-29.14,20.33-59,20-72a141.05,141.05,0,0,1,10-24,146.71,146.71,0,0,1,44-50H122a62.61,62.61,0,0,0-16,3c-50.36,16.55-62.5,93.64-64,104a146,146,0,0,1-17,34A146.36,146.36,0,0,1-7,913Z"/><path class="cls-3" d="M64,910l59-3c4.76-7.52,9.46-15.51,14-24a385.31,385.31,0,0,0,36-97,137.19,137.19,0,0,1,14-17,140.93,140.93,0,0,1,45-31l-32-2a92.23,92.23,0,0,0-49,11c-37.77,20.84-45.88,61.82-47,68a143.4,143.4,0,0,1-7,40A145.6,145.6,0,0,1,64,910Z"/><path class="cls-2" d="M574,926H527a120.27,120.27,0,0,0-27,29c-19.2,29.14-20.33,59-20,72a141.05,141.05,0,0,1-10,24,146.71,146.71,0,0,1-44,50h19a62.61,62.61,0,0,0,16-3c50.36-16.55,62.5-93.64,64-104a145.84,145.84,0,0,1,49-68Z"/><path class="cls-3" d="M503,929l-59,3c-4.76,7.52-9.46,15.51-14,24a385.31,385.31,0,0,0-36,97,137.19,137.19,0,0,1-14,17,140.93,140.93,0,0,1-45,31l32,2a92.23,92.23,0,0,0,49-11c37.77-20.84,45.88-61.82,47-68a143.4,143.4,0,0,1,7-40A145.6,145.6,0,0,1,503,929Z"/><path class="cls-2" d="M574,913H527a120.27,120.27,0,0,1-27-29c-19.2-29.14-20.33-59-20-72a141.05,141.05,0,0,0-10-24,146.71,146.71,0,0,0-44-50h19a62.61,62.61,0,0,1,16,3c50.36,16.55,62.5,93.64,64,104a145.84,145.84,0,0,0,49,68Z"/><path class="cls-3" d="M503,910l-59-3c-4.76-7.52-9.46-15.51-14-24a385.31,385.31,0,0,1-36-97,137.19,137.19,0,0,0-14-17,140.93,140.93,0,0,0-45-31l32-2a92.23,92.23,0,0,1,49,11c37.77,20.84,45.88,61.82,47,68a143.4,143.4,0,0,0,7,40A145.6,145.6,0,0,0,503,910Z"/><path class="cls-2" d="M747,145h47a120.27,120.27,0,0,1,27,29c19.2,29.14,20.33,59,20,72a141.05,141.05,0,0,0,10,24,146.71,146.71,0,0,0,44,50H876a62.61,62.61,0,0,1-16-3c-50.36-16.55-62.5-93.64-64-104a145.84,145.84,0,0,0-49-68Z"/><path class="cls-3" d="M818,148l59,3c4.76,7.52,9.46,15.51,14,24a385.31,385.31,0,0,1,36,97,137.19,137.19,0,0,0,14,17,140.93,140.93,0,0,0,45,31l-32,2a92.23,92.23,0,0,1-49-11c-37.77-20.84-45.88-61.82-47-68a143.4,143.4,0,0,0-7-40A145.6,145.6,0,0,0,818,148Z"/><path class="cls-2" d="M747,132h47a120.27,120.27,0,0,0,27-29c19.2-29.14,20.33-59,20-72A141.05,141.05,0,0,1,851,7a146.71,146.71,0,0,1,44-50H876a62.61,62.61,0,0,0-16,3c-50.36,16.55-62.5,93.64-64,104a146,146,0,0,1-17,34A146.36,146.36,0,0,1,747,132Z"/><path class="cls-3" d="M818,129l59-3c4.76-7.52,9.46-15.51,14-24A385.31,385.31,0,0,0,927,5a137.19,137.19,0,0,1,14-17,140.93,140.93,0,0,1,45-31l-32-2a92.23,92.23,0,0,0-49,11c-37.77,20.84-45.88,61.82-47,68a143.4,143.4,0,0,1-7,40A145.6,145.6,0,0,1,818,129Z"/><path class="cls-2" d="M1328,145h-47a120.27,120.27,0,0,0-27,29c-19.2,29.14-20.33,59-20,72a141.05,141.05,0,0,1-10,24,146.71,146.71,0,0,1-44,50h19a62.61,62.61,0,0,0,16-3c50.36-16.55,62.5-93.64,64-104a145.84,145.84,0,0,1,49-68Z"/><path class="cls-3" d="M1257,148l-59,3c-4.76,7.52-9.46,15.51-14,24a385.31,385.31,0,0,0-36,97,137.19,137.19,0,0,1-14,17,140.93,140.93,0,0,1-45,31l32,2a92.23,92.23,0,0,0,49-11c37.77-20.84,45.88-61.82,47-68a143.4,143.4,0,0,1,7-40A145.6,145.6,0,0,1,1257,148Z"/><path class="cls-2" d="M1328,132h-47a120.27,120.27,0,0,1-27-29c-19.2-29.14-20.33-59-20-72a141.05,141.05,0,0,0-10-24,146.71,146.71,0,0,0-44-50h19a62.61,62.61,0,0,1,16,3c50.36,16.55,62.5,93.64,64,104a146,146,0,0,0,17,34A146.36,146.36,0,0,0,1328,132Z"/><path class="cls-3" d="M1257,129l-59-3c-4.76-7.52-9.46-15.51-14-24a385.31,385.31,0,0,1-36-97,137.19,137.19,0,0,0-14-17,140.93,140.93,0,0,0-45-31l32-2a92.23,92.23,0,0,1,49,11c37.77,20.84,45.88,61.82,47,68a143.4,143.4,0,0,0,7,40A145.6,145.6,0,0,0,1257,129Z"/><path class="cls-2" d="M747,533h47a120.27,120.27,0,0,1,27,29c19.2,29.14,20.33,59,20,72a141.05,141.05,0,0,0,10,24,146.71,146.71,0,0,0,44,50H876a62.61,62.61,0,0,1-16-3c-50.36-16.55-62.5-93.64-64-104a145.84,145.84,0,0,0-49-68Z"/><path class="cls-3" d="M818,536l59,3c4.76,7.52,9.46,15.51,14,24a385.31,385.31,0,0,1,36,97,137.19,137.19,0,0,0,14,17,140.93,140.93,0,0,0,45,31l-32,2a92.23,92.23,0,0,1-49-11c-37.77-20.84-45.88-61.82-47-68a143.4,143.4,0,0,0-7-40A145.6,145.6,0,0,0,818,536Z"/><path class="cls-2" d="M747,520h47a120.27,120.27,0,0,0,27-29c19.2-29.14,20.33-59,20-72a141.05,141.05,0,0,1,10-24,146.71,146.71,0,0,1,44-50H876a62.61,62.61,0,0,0-16,3c-50.36,16.55-62.5,93.64-64,104a145.84,145.84,0,0,1-49,68Z"/><path class="cls-3" d="M818,517l59-3c4.76-7.52,9.46-15.51,14-24a385.31,385.31,0,0,0,36-97,137.19,137.19,0,0,1,14-17,140.93,140.93,0,0,1,45-31l-32-2a92.23,92.23,0,0,0-49,11c-37.77,20.84-45.88,61.82-47,68a143.4,143.4,0,0,1-7,40A145.6,145.6,0,0,1,818,517Z"/><path class="cls-2" d="M1328,533h-47a120.27,120.27,0,0,0-27,29c-19.2,29.14-20.33,59-20,72a141.05,141.05,0,0,1-10,24,146.71,146.71,0,0,1-44,50h19a62.61,62.61,0,0,0,16-3c50.36-16.55,62.5-93.64,64-104a145.84,145.84,0,0,1,49-68Z"/><path class="cls-3" d="M1257,536l-59,3c-4.76,7.52-9.46,15.51-14,24a385.31,385.31,0,0,0-36,97,137.19,137.19,0,0,1-14,17,140.93,140.93,0,0,1-45,31l32,2a92.23,92.23,0,0,0,49-11c37.77-20.84,45.88-61.82,47-68a143.4,143.4,0,0,1,7-40A145.6,145.6,0,0,1,1257,536Z"/><path class="cls-2" d="M1328,520h-47a120.27,120.27,0,0,1-27-29c-19.2-29.14-20.33-59-20-72a141.05,141.05,0,0,0-10-24,146.71,146.71,0,0,0-44-50h19a62.61,62.61,0,0,1,16,3c50.36,16.55,62.5,93.64,64,104a145.84,145.84,0,0,0,49,68Z"/><path class="cls-3" d="M1257,517l-59-3c-4.76-7.52-9.46-15.51-14-24a385.31,385.31,0,0,1-36-97,137.19,137.19,0,0,0-14-17,140.93,140.93,0,0,0-45-31l32-2a92.23,92.23,0,0,1,49,11c37.77,20.84,45.88,61.82,47,68a143.4,143.4,0,0,0,7,40A145.6,145.6,0,0,0,1257,517Z"/><path class="cls-2" d="M740,923h47a120.27,120.27,0,0,1,27,29c19.2,29.14,20.33,59,20,72a141.05,141.05,0,0,0,10,24,146.71,146.71,0,0,0,44,50H869a62.61,62.61,0,0,1-16-3c-50.36-16.55-62.5-93.64-64-104a145.84,145.84,0,0,0-49-68Z"/><path class="cls-3" d="M811,926l59,3c4.76,7.52,9.46,15.51,14,24a385.31,385.31,0,0,1,36,97,137.19,137.19,0,0,0,14,17,140.93,140.93,0,0,0,45,31l-32,2a92.23,92.23,0,0,1-49-11c-37.77-20.84-45.88-61.82-47-68a143.4,143.4,0,0,0-7-40A145.6,145.6,0,0,0,811,926Z"/><path class="cls-2" d="M740,910h47a120.27,120.27,0,0,0,27-29c19.2-29.14,20.33-59,20-72a141.05,141.05,0,0,1,10-24,146.71,146.71,0,0,1,44-50H869a62.61,62.61,0,0,0-16,3c-50.36,16.55-62.5,93.64-64,104a145.84,145.84,0,0,1-49,68Z"/><path class="cls-3" d="M811,907l59-3c4.76-7.52,9.46-15.51,14-24a385.31,385.31,0,0,0,36-97,137.19,137.19,0,0,1,14-17,140.93,140.93,0,0,1,45-31l-32-2a92.23,92.23,0,0,0-49,11c-37.77,20.84-45.88,61.82-47,68a143.4,143.4,0,0,1-7,40A145.6,145.6,0,0,1,811,907Z"/><path class="cls-2" d="M1321,923h-47a120.27,120.27,0,0,0-27,29c-19.2,29.14-20.33,59-20,72a141.05,141.05,0,0,1-10,24,146.71,146.71,0,0,1-44,50h19a62.61,62.61,0,0,0,16-3c50.36-16.55,62.5-93.64,64-104a145.84,145.84,0,0,1,49-68Z"/><path class="cls-3" d="M1250,926l-59,3c-4.76,7.52-9.46,15.51-14,24a385.31,385.31,0,0,0-36,97,137.19,137.19,0,0,1-14,17,140.93,140.93,0,0,1-45,31l32,2a92.23,92.23,0,0,0,49-11c37.77-20.84,45.88-61.82,47-68a143.4,143.4,0,0,1,7-40A145.6,145.6,0,0,1,1250,926Z"/><path class="cls-2" d="M1321,910h-47a120.27,120.27,0,0,1-27-29c-19.2-29.14-20.33-59-20-72a141.05,141.05,0,0,0-10-24,146.71,146.71,0,0,0-44-50h19a62.61,62.61,0,0,1,16,3c50.36,16.55,62.5,93.64,64,104a145.84,145.84,0,0,0,49,68Z"/><path class="cls-3" d="M1250,907l-59-3c-4.76-7.52-9.46-15.51-14-24a385.31,385.31,0,0,1-36-97,137.19,137.19,0,0,0-14-17,140.93,140.93,0,0,0-45-31l32-2a92.23,92.23,0,0,1,49,11c37.77,20.84,45.88,61.82,47,68a143.4,143.4,0,0,0,7,40A145.6,145.6,0,0,0,1250,907Z"/><path class="cls-2" d="M1492,147h47a120.27,120.27,0,0,1,27,29c19.2,29.14,20.33,59,20,72a141.05,141.05,0,0,0,10,24,146.71,146.71,0,0,0,44,50h-19a62.61,62.61,0,0,1-16-3c-50.36-16.55-62.5-93.64-64-104a145.84,145.84,0,0,0-49-68Z"/><path class="cls-3" d="M1563,150l59,3c4.76,7.52,9.46,15.51,14,24a385.31,385.31,0,0,1,36,97,137.19,137.19,0,0,0,14,17,140.93,140.93,0,0,0,45,31l-32,2a92.23,92.23,0,0,1-49-11c-37.77-20.84-45.88-61.82-47-68a143.4,143.4,0,0,0-7-40A145.6,145.6,0,0,0,1563,150Z"/><path class="cls-2" d="M1492,134h47a120.27,120.27,0,0,0,27-29c19.2-29.14,20.33-59,20-72a141.05,141.05,0,0,1,10-24,146.71,146.71,0,0,1,44-50h-19a62.61,62.61,0,0,0-16,3c-50.36,16.55-62.5,93.64-64,104a146,146,0,0,1-17,34A146.36,146.36,0,0,1,1492,134Z"/><path class="cls-3" d="M1563,131l59-3c4.76-7.52,9.46-15.51,14-24a385.31,385.31,0,0,0,36-97,137.19,137.19,0,0,1,14-17,140.93,140.93,0,0,1,45-31l-32-2a92.23,92.23,0,0,0-49,11c-37.77,20.84-45.88,61.82-47,68a143.4,143.4,0,0,1-7,40A145.6,145.6,0,0,1,1563,131Z"/><path class="cls-2" d="M1492,535h47a120.27,120.27,0,0,1,27,29c19.2,29.14,20.33,59,20,72a141.05,141.05,0,0,0,10,24,146.71,146.71,0,0,0,44,50h-19a62.61,62.61,0,0,1-16-3c-50.36-16.55-62.5-93.64-64-104a145.84,145.84,0,0,0-49-68Z"/><path class="cls-3" d="M1563,538l59,3c4.76,7.52,9.46,15.51,14,24a385.31,385.31,0,0,1,36,97,137.19,137.19,0,0,0,14,17,140.93,140.93,0,0,0,45,31l-32,2a92.23,92.23,0,0,1-49-11c-37.77-20.84-45.88-61.82-47-68a143.4,143.4,0,0,0-7-40A145.6,145.6,0,0,0,1563,538Z"/><path class="cls-2" d="M1492,522h47a120.27,120.27,0,0,0,27-29c19.2-29.14,20.33-59,20-72a141.05,141.05,0,0,1,10-24,146.71,146.71,0,0,1,44-50h-19a62.61,62.61,0,0,0-16,3c-50.36,16.55-62.5,93.64-64,104a145.84,145.84,0,0,1-49,68Z"/><path class="cls-3" d="M1563,519l59-3c4.76-7.52,9.46-15.51,14-24a385.31,385.31,0,0,0,36-97,137.19,137.19,0,0,1,14-17,140.93,140.93,0,0,1,45-31l-32-2a92.23,92.23,0,0,0-49,11c-37.77,20.84-45.88,61.82-47,68a143.4,143.4,0,0,1-7,40A145.6,145.6,0,0,1,1563,519Z"/><path class="cls-2" d="M1485,925h47a120.27,120.27,0,0,1,27,29c19.2,29.14,20.33,59,20,72a141.05,141.05,0,0,0,10,24,146.71,146.71,0,0,0,44,50h-19a62.61,62.61,0,0,1-16-3c-50.36-16.55-62.5-93.64-64-104a145.84,145.84,0,0,0-49-68Z"/><path class="cls-3" d="M1556,928l59,3c4.76,7.52,9.46,15.51,14,24a385.31,385.31,0,0,1,36,97,137.19,137.19,0,0,0,14,17,140.93,140.93,0,0,0,45,31l-32,2a92.23,92.23,0,0,1-49-11c-37.77-20.84-45.88-61.82-47-68a143.4,143.4,0,0,0-7-40A145.6,145.6,0,0,0,1556,928Z"/><path class="cls-2" d="M1485,912h47a120.27,120.27,0,0,0,27-29c19.2-29.14,20.33-59,20-72a141.05,141.05,0,0,1,10-24,146.71,146.71,0,0,1,44-50h-19a62.61,62.61,0,0,0-16,3c-50.36,16.55-62.5,93.64-64,104a145.84,145.84,0,0,1-49,68Z"/><path class="cls-3" d="M1556,909l59-3c4.76-7.52,9.46-15.51,14-24a385.31,385.31,0,0,0,36-97,137.19,137.19,0,0,1,14-17,140.93,140.93,0,0,1,45-31l-32-2a92.23,92.23,0,0,0-49,11c-37.77,20.84-45.88,61.82-47,68a143.4,143.4,0,0,1-7,40A145.6,145.6,0,0,1,1556,909Z"/><path class="cls-3" d="M510,520l-59-3c-4.76-7.52-9.46-15.51-14-24a385.31,385.31,0,0,1-36-97,137.19,137.19,0,0,0-14-17,140.93,140.93,0,0,0-45-31l32-2a92.23,92.23,0,0,1,49,11c37.77,20.84,45.88,61.82,47,68a143.4,143.4,0,0,0,7,40A145.6,145.6,0,0,0,510,520Z"/><circle class="cls-4" cx="299.14" cy="453.02" r="72.59"/><circle class="cls-4" cx="299.95" cy="605.49" r="72.59"/><path class="cls-5" d="M300,535.33c1.08,0,2.15,0,3.21.08a45.52,45.52,0,0,1-.37-5.75c0-.84,0-1.67.07-2.5q-1.46.06-2.91.06a72.6,72.6,0,0,1-72.23-65.3,72.61,72.61,0,0,0,1,131.89A72.61,72.61,0,0,1,300,535.33Z"/><path class="cls-5" d="M308.24,494.31c.41,1,.79,2,1.15,3a47.76,47.76,0,0,1,5.18-2.53c.77-.32,1.55-.62,2.33-.89-.4-.88-.79-1.76-1.16-2.67a72.59,72.59,0,0,1,32.87-91.65A72.61,72.61,0,0,0,227,450.75,72.6,72.6,0,0,1,308.24,494.31Z"/><path class="cls-5" d="M315.07,567.12q.36-1.57.78-3.12a46.83,46.83,0,0,1-5.7-.89c-.82-.19-1.62-.39-2.42-.62q-.25,1.43-.57,2.85a72.6,72.6,0,0,1-79.52,56.2,72.61,72.61,0,0,0,128.92,27.85A72.6,72.6,0,0,1,315.07,567.12Z"/><circle class="cls-6" cx="340.5" cy="530.87" r="51.5"/><line class="cls-7" x1="392" y1="531" x2="627" y2="529"/><path class="cls-3" d="M68,130l59-3c4.76-7.52,9.46-15.51,14-24A385.31,385.31,0,0,0,177,6a137.19,137.19,0,0,1,14-17,140.93,140.93,0,0,1,45-31l-32-2a92.23,92.23,0,0,0-49,11c-37.77,20.84-45.88,61.82-47,68a143.4,143.4,0,0,1-7,40A145.6,145.6,0,0,1,68,130Z"/><circle class="cls-4" cx="278.86" cy="63.02" r="72.59"/><circle class="cls-4" cx="278.05" cy="215.49" r="72.59"/><path class="cls-5" d="M278.05,145.33c-1.08,0-2.15,0-3.21.08a45.52,45.52,0,0,0,.37-5.75c0-.84,0-1.67-.07-2.5q1.46.06,2.91.06a72.6,72.6,0,0,0,72.23-65.3,72.61,72.61,0,0,1-1,131.89A72.61,72.61,0,0,0,278.05,145.33Z"/><path class="cls-5" d="M269.76,104.31c-.41,1-.79,2-1.15,3a47.76,47.76,0,0,0-5.18-2.53c-.77-.32-1.55-.62-2.33-.89.4-.88.79-1.76,1.16-2.67A72.59,72.59,0,0,0,229.39,9.57,72.61,72.61,0,0,1,351,60.75,72.6,72.6,0,0,0,269.76,104.31Z"/><path class="cls-5" d="M262.93,177.12q-.36-1.58-.78-3.12a46.83,46.83,0,0,0,5.7-.89c.82-.19,1.62-.39,2.42-.62q.25,1.42.57,2.85a72.6,72.6,0,0,0,79.52,56.2,72.61,72.61,0,0,1-128.92,27.85A72.6,72.6,0,0,0,262.93,177.12Z"/><circle class="cls-6" cx="237.5" cy="140.87" r="51.5"/><line class="cls-7" x1="186" y1="141" x2="-49" y2="139"/><circle class="cls-4" cx="280.86" cy="842.02" r="72.59"/><circle class="cls-4" cx="280.05" cy="994.49" r="72.59"/><path class="cls-5" d="M280.05,924.33c-1.08,0-2.15,0-3.21.08a45.52,45.52,0,0,0,.37-5.75c0-.84,0-1.67-.07-2.5q1.46.06,2.91.06a72.6,72.6,0,0,0,72.23-65.3,72.61,72.61,0,0,1-1,131.89A72.61,72.61,0,0,0,280.05,924.33Z"/><path class="cls-5" d="M271.76,883.31c-.41,1-.79,2-1.15,3a47.76,47.76,0,0,0-5.18-2.53c-.77-.32-1.55-.62-2.33-.89.4-.88.79-1.76,1.16-2.67a72.59,72.59,0,0,0-32.87-91.65A72.61,72.61,0,0,1,353,839.75,72.6,72.6,0,0,0,271.76,883.31Z"/><path class="cls-5" d="M264.93,956.12q-.36-1.57-.78-3.12a46.83,46.83,0,0,0,5.7-.89c.82-.19,1.62-.39,2.42-.62q.25,1.43.57,2.85a72.6,72.6,0,0,0,79.52,56.2,72.61,72.61,0,0,1-128.92,27.85A72.6,72.6,0,0,0,264.93,956.12Z"/><circle class="cls-6" cx="239.5" cy="919.87" r="51.5"/><line class="cls-7" x1="188" y1="920" x2="-47" y2="918"/><circle class="cls-4" cx="656.86" cy="259.02" r="72.59"/><circle class="cls-4" cx="656.05" cy="411.49" r="72.59"/><path class="cls-5" d="M656.05,341.33c-1.08,0-2.15,0-3.21.08a45.52,45.52,0,0,0,.37-5.75c0-.84,0-1.67-.07-2.5q1.46.06,2.91.06a72.6,72.6,0,0,0,72.23-65.3,72.61,72.61,0,0,1-1,131.89A72.61,72.61,0,0,0,656.05,341.33Z"/><path class="cls-5" d="M647.76,300.31c-.41,1-.79,2-1.15,3a47.76,47.76,0,0,0-5.18-2.53c-.77-.32-1.55-.62-2.33-.89.4-.88.79-1.76,1.16-2.67a72.59,72.59,0,0,0-32.87-91.65A72.61,72.61,0,0,1,729,256.75,72.6,72.6,0,0,0,647.76,300.31Z"/><path class="cls-5" d="M640.93,373.12q-.36-1.58-.78-3.12a46.83,46.83,0,0,0,5.7-.89c.82-.19,1.62-.39,2.42-.62q.26,1.42.57,2.85a72.6,72.6,0,0,0,79.52,56.2,72.61,72.61,0,0,1-128.92,27.85A72.6,72.6,0,0,0,640.93,373.12Z"/><circle class="cls-6" cx="615.5" cy="336.87" r="51.5"/><line class="cls-7" x1="564" y1="337" x2="329" y2="335"/><circle class="cls-4" cx="663.14" cy="645.02" r="72.59"/><circle class="cls-4" cx="663.95" cy="797.49" r="72.59"/><path class="cls-5" d="M664,727.33c1.08,0,2.15,0,3.21.08a45.52,45.52,0,0,1-.37-5.75c0-.84,0-1.67.07-2.5q-1.46.06-2.91.06a72.6,72.6,0,0,1-72.23-65.3,72.61,72.61,0,0,0,1,131.89A72.61,72.61,0,0,1,664,727.33Z"/><path class="cls-5" d="M672.24,686.31c.41,1,.79,2,1.15,3a47.76,47.76,0,0,1,5.18-2.53c.77-.32,1.55-.62,2.33-.89-.4-.88-.79-1.76-1.16-2.67a72.59,72.59,0,0,1,32.87-91.65A72.61,72.61,0,0,0,591,642.75,72.6,72.6,0,0,1,672.24,686.31Z"/><path class="cls-5" d="M679.07,759.12q.36-1.57.78-3.12a46.83,46.83,0,0,1-5.7-.89c-.82-.19-1.62-.39-2.42-.62q-.26,1.43-.57,2.85a72.6,72.6,0,0,1-79.52,56.2,72.61,72.61,0,0,0,128.92,27.85A72.6,72.6,0,0,1,679.07,759.12Z"/><circle class="cls-6" cx="704.5" cy="722.87" r="51.5"/><line class="cls-7" x1="756" y1="723" x2="991" y2="721"/><circle class="cls-4" cx="663.95" cy="17.49" r="72.59"/><path class="cls-5" d="M664-52.67c1.08,0,2.15,0,3.21.08a45.52,45.52,0,0,1-.37-5.75c0-.84,0-1.67.07-2.5q-1.46.06-2.91.06a72.6,72.6,0,0,1-72.23-65.3A72.59,72.59,0,0,0,550-60.37,72.59,72.59,0,0,0,592.74,5.81,72.61,72.61,0,0,1,664-52.67Z"/><path class="cls-5" d="M679.07-20.88q.36-1.57.78-3.12a46.83,46.83,0,0,1-5.7-.89c-.82-.19-1.62-.39-2.42-.62q-.26,1.43-.57,2.85a72.6,72.6,0,0,1-79.52,56.2A72.61,72.61,0,0,0,720.56,61.39,72.6,72.6,0,0,1,679.07-20.88Z"/><circle class="cls-4" cx="656.86" cy="1036.02" r="72.59"/><path class="cls-5" d="M656.05,1118.33c-1.08,0-2.15,0-3.21.08a45.52,45.52,0,0,0,.37-5.75c0-.84,0-1.67-.07-2.5q1.46.06,2.91.06a72.6,72.6,0,0,0,72.23-65.3,72.61,72.61,0,0,1-1,131.89A72.61,72.61,0,0,0,656.05,1118.33Z"/><path class="cls-5" d="M647.76,1077.31c-.41,1-.79,2-1.15,3a47.76,47.76,0,0,0-5.18-2.53c-.77-.32-1.55-.62-2.33-.89.4-.88.79-1.76,1.16-2.67a72.59,72.59,0,0,0-32.87-91.65A72.61,72.61,0,0,1,729,1033.75,72.6,72.6,0,0,0,647.76,1077.31Z"/><circle class="cls-6" cx="615.5" cy="1113.87" r="51.5"/><circle class="cls-4" cx="1032.86" cy="449.02" r="72.59"/><circle class="cls-4" cx="1032.05" cy="601.49" r="72.59"/><path class="cls-5" d="M1032.05,531.33c-1.08,0-2.15,0-3.21.08a45.52,45.52,0,0,0,.37-5.75c0-.84,0-1.67-.07-2.5q1.45.06,2.91.06a72.6,72.6,0,0,0,72.23-65.3,72.61,72.61,0,0,1-1,131.89A72.61,72.61,0,0,0,1032.05,531.33Z"/><path class="cls-5" d="M1023.76,490.31c-.41,1-.79,2-1.15,3a47.76,47.76,0,0,0-5.18-2.53c-.77-.32-1.55-.62-2.33-.89.4-.88.79-1.76,1.16-2.67a72.59,72.59,0,0,0-32.87-91.65A72.61,72.61,0,0,1,1105,446.75,72.6,72.6,0,0,0,1023.76,490.31Z"/><path class="cls-5" d="M1016.93,563.12q-.36-1.57-.78-3.12a46.83,46.83,0,0,0,5.7-.89c.82-.19,1.62-.39,2.42-.62q.26,1.43.57,2.85a72.6,72.6,0,0,0,79.52,56.2,72.61,72.61,0,0,1-128.92,27.85A72.6,72.6,0,0,0,1016.93,563.12Z"/><circle class="cls-6" cx="991.5" cy="526.87" r="51.5"/><line class="cls-7" x1="940" y1="527" x2="705" y2="525"/><circle class="cls-4" cx="1421.14" cy="257.02" r="72.59"/><circle class="cls-4" cx="1421.95" cy="409.49" r="72.59"/><path class="cls-5" d="M1422,339.33c1.08,0,2.15,0,3.21.08a45.52,45.52,0,0,1-.37-5.75c0-.84,0-1.67.07-2.5q-1.45.06-2.91.06a72.6,72.6,0,0,1-72.23-65.3,72.61,72.61,0,0,0,1,131.89A72.61,72.61,0,0,1,1422,339.33Z"/><path class="cls-5" d="M1430.24,298.31c.41,1,.79,2,1.15,3a47.76,47.76,0,0,1,5.18-2.53c.77-.32,1.55-.62,2.33-.89-.4-.88-.79-1.76-1.16-2.67a72.59,72.59,0,0,1,32.87-91.65A72.61,72.61,0,0,0,1349,254.75,72.6,72.6,0,0,1,1430.24,298.31Z"/><path class="cls-5" d="M1437.07,371.12q.36-1.58.78-3.12a46.83,46.83,0,0,1-5.7-.89c-.82-.19-1.62-.39-2.42-.62q-.26,1.42-.57,2.85a72.6,72.6,0,0,1-79.52,56.2,72.61,72.61,0,0,0,128.92,27.85A72.6,72.6,0,0,1,1437.07,371.12Z"/><circle class="cls-6" cx="1462.5" cy="334.87" r="51.5"/><line class="cls-7" x1="1514" y1="335" x2="1749" y2="333"/><circle class="cls-4" cx="1407.14" cy="1026.02" r="72.59"/><path class="cls-5" d="M1408,1108.33c1.08,0,2.15,0,3.21.08a45.52,45.52,0,0,1-.37-5.75c0-.84,0-1.67.07-2.5q-1.45.06-2.91.06a72.6,72.6,0,0,1-72.23-65.3,72.61,72.61,0,0,0,1,131.89A72.61,72.61,0,0,1,1408,1108.33Z"/><path class="cls-5" d="M1416.24,1067.31c.41,1,.79,2,1.15,3a47.76,47.76,0,0,1,5.18-2.53c.77-.32,1.55-.62,2.33-.89-.4-.88-.79-1.76-1.16-2.67a72.59,72.59,0,0,1,32.87-91.65A72.61,72.61,0,0,0,1335,1023.75,72.6,72.6,0,0,1,1416.24,1067.31Z"/><circle class="cls-6" cx="1448.5" cy="1103.87" r="51.5"/><circle class="cls-4" cx="1407.86" cy="643.02" r="72.59"/><circle class="cls-4" cx="1407.05" cy="795.49" r="72.59"/><path class="cls-5" d="M1407.05,725.33c-1.08,0-2.15,0-3.21.08a45.52,45.52,0,0,0,.37-5.75c0-.84,0-1.67-.07-2.5q1.45.06,2.91.06a72.6,72.6,0,0,0,72.23-65.3,72.61,72.61,0,0,1-1,131.89A72.61,72.61,0,0,0,1407.05,725.33Z"/><path class="cls-5" d="M1398.76,684.31c-.41,1-.79,2-1.15,3a47.76,47.76,0,0,0-5.18-2.53c-.77-.32-1.55-.62-2.33-.89.4-.88.79-1.76,1.16-2.67a72.59,72.59,0,0,0-32.87-91.65A72.61,72.61,0,0,1,1480,640.75,72.6,72.6,0,0,0,1398.76,684.31Z"/><path class="cls-5" d="M1391.93,757.12q-.36-1.57-.78-3.12a46.83,46.83,0,0,0,5.7-.89c.82-.19,1.62-.39,2.42-.62q.26,1.43.57,2.85a72.6,72.6,0,0,0,79.52,56.2,72.61,72.61,0,0,1-128.92,27.85A72.6,72.6,0,0,0,1391.93,757.12Z"/><circle class="cls-6" cx="1366.5" cy="720.87" r="51.5"/><line class="cls-7" x1="1315" y1="721" x2="1080" y2="719"/><circle class="cls-4" cx="1039.14" cy="61.02" r="72.59"/><circle class="cls-4" cx="1039.95" cy="213.49" r="72.59"/><path class="cls-5" d="M1040,143.33c1.08,0,2.15,0,3.21.08a45.52,45.52,0,0,1-.37-5.75c0-.84,0-1.67.07-2.5q-1.45.06-2.91.06a72.6,72.6,0,0,1-72.23-65.3,72.61,72.61,0,0,0,1,131.89A72.61,72.61,0,0,1,1040,143.33Z"/><path class="cls-5" d="M1048.24,102.31c.41,1,.79,2,1.15,3a47.76,47.76,0,0,1,5.18-2.53c.77-.32,1.55-.62,2.33-.89-.4-.88-.79-1.76-1.16-2.67a72.59,72.59,0,0,1,32.87-91.65A72.61,72.61,0,0,0,967,58.75,72.6,72.6,0,0,1,1048.24,102.31Z"/><path class="cls-5" d="M1055.07,175.12q.36-1.58.78-3.12a46.83,46.83,0,0,1-5.7-.89c-.82-.19-1.62-.39-2.42-.62q-.26,1.42-.57,2.85a72.6,72.6,0,0,1-79.52,56.2,72.61,72.61,0,0,0,128.92,27.85A72.6,72.6,0,0,1,1055.07,175.12Z"/><circle class="cls-6" cx="1080.5" cy="138.87" r="51.5"/><line class="cls-7" x1="1132" y1="139" x2="1367" y2="137"/><circle class="cls-4" cx="1411.05" cy="20.49" r="72.59"/><path class="cls-5" d="M1411.05-49.67c-1.08,0-2.15,0-3.21.08a45.52,45.52,0,0,0,.37-5.75c0-.84,0-1.67-.07-2.5q1.45.06,2.91.06a72.6,72.6,0,0,0,72.23-65.3A72.59,72.59,0,0,1,1525-57.37a72.59,72.59,0,0,1-42.74,66.18A72.61,72.61,0,0,0,1411.05-49.67Z"/><path class="cls-5" d="M1395.93-17.88q-.36-1.57-.78-3.12a46.83,46.83,0,0,0,5.7-.89c.82-.19,1.62-.39,2.42-.62q.26,1.43.57,2.85a72.6,72.6,0,0,0,79.52,56.2,72.61,72.61,0,0,1-128.92,27.85A72.6,72.6,0,0,0,1395.93-17.88Z"/><circle class="cls-4" cx="1030.14" cy="838.02" r="72.59"/><circle class="cls-4" cx="1030.95" cy="990.49" r="72.59"/><path class="cls-5" d="M1031,920.33c1.08,0,2.15,0,3.21.08a45.52,45.52,0,0,1-.37-5.75c0-.84,0-1.67.07-2.5q-1.45.06-2.91.06a72.6,72.6,0,0,1-72.23-65.3,72.61,72.61,0,0,0,1,131.89A72.61,72.61,0,0,1,1031,920.33Z"/><path class="cls-5" d="M1039.24,879.31c.41,1,.79,2,1.15,3a47.76,47.76,0,0,1,5.18-2.53c.77-.32,1.55-.62,2.33-.89-.4-.88-.79-1.76-1.16-2.67a72.59,72.59,0,0,1,32.87-91.65A72.61,72.61,0,0,0,958,835.75,72.6,72.6,0,0,1,1039.24,879.31Z"/><path class="cls-5" d="M1046.07,952.12q.36-1.57.78-3.12a46.83,46.83,0,0,1-5.7-.89c-.82-.19-1.62-.39-2.42-.62q-.26,1.43-.57,2.85a72.6,72.6,0,0,1-79.52,56.2,72.61,72.61,0,0,0,128.92,27.85A72.6,72.6,0,0,1,1046.07,952.12Z"/><circle class="cls-6" cx="1071.5" cy="915.87" r="51.5"/><line class="cls-7" x1="1123" y1="916" x2="1358" y2="914"/><circle class="cls-4" cx="1784.86" cy="63.02" r="72.59"/><circle class="cls-4" cx="1784.05" cy="215.49" r="72.59"/><path class="cls-5" d="M1784.05,145.33c-1.08,0-2.15,0-3.21.08a45.52,45.52,0,0,0,.37-5.75c0-.84,0-1.67-.07-2.5q1.45.06,2.91.06a72.6,72.6,0,0,0,72.23-65.3,72.61,72.61,0,0,1-1,131.89A72.61,72.61,0,0,0,1784.05,145.33Z"/><path class="cls-5" d="M1775.76,104.31c-.41,1-.79,2-1.15,3a47.76,47.76,0,0,0-5.18-2.53c-.77-.32-1.55-.62-2.33-.89.4-.88.79-1.76,1.16-2.67a72.59,72.59,0,0,0-32.87-91.65A72.61,72.61,0,0,1,1857,60.75,72.6,72.6,0,0,0,1775.76,104.31Z"/><path class="cls-5" d="M1768.93,177.12q-.36-1.58-.78-3.12a46.83,46.83,0,0,0,5.7-.89c.82-.19,1.62-.39,2.42-.62q.26,1.42.57,2.85a72.6,72.6,0,0,0,79.52,56.2,72.61,72.61,0,0,1-128.92,27.85A72.6,72.6,0,0,0,1768.93,177.12Z"/><circle class="cls-6" cx="1743.5" cy="140.87" r="51.5"/><line class="cls-7" x1="1692" y1="141" x2="1457" y2="139"/><circle class="cls-4" cx="1791.14" cy="460.02" r="72.59"/><circle class="cls-4" cx="1791.95" cy="612.49" r="72.59"/><path class="cls-5" d="M1792,542.33c1.08,0,2.15,0,3.21.08a45.52,45.52,0,0,1-.37-5.75c0-.84,0-1.67.07-2.5q-1.45.06-2.91.06a72.6,72.6,0,0,1-72.23-65.3,72.61,72.61,0,0,0,1,131.89A72.61,72.61,0,0,1,1792,542.33Z"/><path class="cls-5" d="M1800.24,501.31c.41,1,.79,2,1.15,3a47.76,47.76,0,0,1,5.18-2.53c.77-.32,1.55-.62,2.33-.89-.4-.88-.79-1.76-1.16-2.67a72.59,72.59,0,0,1,32.87-91.65A72.61,72.61,0,0,0,1719,457.75,72.6,72.6,0,0,1,1800.24,501.31Z"/><path class="cls-5" d="M1807.07,574.12q.36-1.57.78-3.12a46.83,46.83,0,0,1-5.7-.89c-.82-.19-1.62-.39-2.42-.62q-.26,1.43-.57,2.85a72.6,72.6,0,0,1-79.52,56.2,72.61,72.61,0,0,0,128.92,27.85A72.6,72.6,0,0,1,1807.07,574.12Z"/><circle class="cls-6" cx="1832.5" cy="537.87" r="51.5"/><line class="cls-7" x1="1884" y1="538" x2="2119" y2="536"/><circle class="cls-4" cx="1770.86" cy="843.02" r="72.59"/><circle class="cls-4" cx="1770.05" cy="995.49" r="72.59"/><path class="cls-5" d="M1770.05,925.33c-1.08,0-2.15,0-3.21.08a45.52,45.52,0,0,0,.37-5.75c0-.84,0-1.67-.07-2.5q1.45.06,2.91.06a72.6,72.6,0,0,0,72.23-65.3,72.61,72.61,0,0,1-1,131.89A72.61,72.61,0,0,0,1770.05,925.33Z"/><path class="cls-5" d="M1761.76,884.31c-.41,1-.79,2-1.15,3a47.76,47.76,0,0,0-5.18-2.53c-.77-.32-1.55-.62-2.33-.89.4-.88.79-1.76,1.16-2.67a72.59,72.59,0,0,0-32.87-91.65A72.61,72.61,0,0,1,1843,840.75,72.6,72.6,0,0,0,1761.76,884.31Z"/><path class="cls-5" d="M1754.93,957.12q-.36-1.57-.78-3.12a46.83,46.83,0,0,0,5.7-.89c.82-.19,1.62-.39,2.42-.62q.26,1.43.57,2.85a72.6,72.6,0,0,0,79.52,56.2,72.61,72.61,0,0,1-128.92,27.85A72.6,72.6,0,0,0,1754.93,957.12Z"/><circle class="cls-6" cx="1729.5" cy="920.87" r="51.5"/><line class="cls-7" x1="1678" y1="921" x2="1443" y2="919"/><path class="cls-3" d="M2009,149l-59,3c-4.76,7.52-9.46,15.51-14,24a385.31,385.31,0,0,0-36,97,137.19,137.19,0,0,1-14,17,140.93,140.93,0,0,1-45,31l32,2a92.23,92.23,0,0,0,49-11c37.77-20.84,45.88-61.82,47-68a143.4,143.4,0,0,1,7-40A145.6,145.6,0,0,1,2009,149Z"/><path class="cls-3" d="M2009,130l-59-3c-4.76-7.52-9.46-15.51-14-24a385.31,385.31,0,0,1-36-97,137.19,137.19,0,0,0-14-17,140.93,140.93,0,0,0-45-31l32-2a92.23,92.23,0,0,1,49,11c37.77,20.84,45.88,61.82,47,68a143.4,143.4,0,0,0,7,40A145.6,145.6,0,0,0,2009,130Z"/><path class="cls-3" d="M2016.56,535.5l-59,3c-4.76,7.52-9.45,15.51-14,24a385.31,385.31,0,0,0-36,97,137.19,137.19,0,0,1-14,17,140.82,140.82,0,0,1-45,31l32,2a92.23,92.23,0,0,0,49-11c37.78-20.85,45.89-61.82,47-68a143.71,143.71,0,0,1,7-40A145.77,145.77,0,0,1,2016.56,535.5Z"/><path class="cls-3" d="M2016.56,516.5l-59-3c-4.76-7.52-9.45-15.51-14-24a385.31,385.31,0,0,1-36-97,137.19,137.19,0,0,0-14-17,140.82,140.82,0,0,0-45-31l32-2a92.23,92.23,0,0,1,49,11c37.78,20.84,45.89,61.82,47,68a143.77,143.77,0,0,0,7,40A145.86,145.86,0,0,0,2016.56,516.5Z"/><path class="cls-3" d="M2004.56,926l-59,3c-4.76,7.52-9.45,15.51-14,24a385.31,385.31,0,0,0-36,97,137.19,137.19,0,0,1-14,17,140.82,140.82,0,0,1-45,31l32,2a92.23,92.23,0,0,0,49-11c37.78-20.85,45.89-61.82,47-68a143.71,143.71,0,0,1,7-40A145.77,145.77,0,0,1,2004.56,926Z"/><path class="cls-3" d="M2004.56,907l-59-3c-4.76-7.52-9.45-15.51-14-24a385.31,385.31,0,0,1-36-97,137.19,137.19,0,0,0-14-17,140.82,140.82,0,0,0-45-31l32-2a92.23,92.23,0,0,1,49,11c37.78,20.84,45.89,61.82,47,68a143.77,143.77,0,0,0,7,40A145.86,145.86,0,0,0,2004.56,907Z"/><circle class="cls-4" cx="-50.86" cy="255.02" r="72.59"/><circle class="cls-4" cx="-50.05" cy="407.49" r="72.59"/><path class="cls-5" d="M-34.93,369.12q.36-1.58.78-3.12a46.83,46.83,0,0,1-5.7-.89c-.82-.19-1.62-.39-2.42-.62q-.25,1.42-.57,2.85a72.6,72.6,0,0,1-79.52,56.2,72.59,72.59,0,0,0,55,55.08A72.59,72.59,0,0,0,6.56,451.39,72.6,72.6,0,0,1-34.93,369.12Z"/><circle class="cls-6" cx="-9.5" cy="332.87" r="51.5"/><line class="cls-7" x1="42" y1="333" x2="277" y2="331"/><path class="cls-5" d="M-74.95,726.33c-1.08,0-2.15,0-3.21.08a45.52,45.52,0,0,0,.37-5.75c0-.84,0-1.67-.07-2.5q1.45.06,2.91.06a72.6,72.6,0,0,0,72.23-65.3A72.59,72.59,0,0,1,39,718.63,72.59,72.59,0,0,1-3.74,784.81,72.61,72.61,0,0,0-74.95,726.33Z"/></g></svg>